G04 #@! TF.GenerationSoftware,KiCad,Pcbnew,5.0.1*
G04 #@! TF.CreationDate,2018-12-10T22:32:32+01:00*
G04 #@! TF.ProjectId,tamtam_board,74616D74616D5F626F6172642E6B6963,rev?*
G04 #@! TF.SameCoordinates,Original*
G04 #@! TF.FileFunction,Copper,L2,Bot,Signal*
G04 #@! TF.FilePolarity,Positive*
%FSLAX46Y46*%
G04 Gerber Fmt 4.6, Leading zero omitted, Abs format (unit mm)*
G04 Created by KiCad (PCBNEW 5.0.1) date dilluns, 10 de desembre de 2018, 22:32:32 CET*
%MOMM*%
%LPD*%
G01*
G04 APERTURE LIST*
G04 #@! TA.AperFunction,ComponentPad*
%ADD10O,1.700000X1.700000*%
G04 #@! TD*
G04 #@! TA.AperFunction,ComponentPad*
%ADD11R,1.700000X1.700000*%
G04 #@! TD*
G04 #@! TA.AperFunction,SMDPad,CuDef*
%ADD12R,1.600000X0.550000*%
G04 #@! TD*
G04 #@! TA.AperFunction,SMDPad,CuDef*
%ADD13R,0.550000X1.600000*%
G04 #@! TD*
G04 #@! TA.AperFunction,Conductor*
%ADD14C,0.100000*%
G04 #@! TD*
G04 #@! TA.AperFunction,SMDPad,CuDef*
%ADD15C,0.950000*%
G04 #@! TD*
G04 #@! TA.AperFunction,ComponentPad*
%ADD16R,1.905000X2.000000*%
G04 #@! TD*
G04 #@! TA.AperFunction,ComponentPad*
%ADD17O,1.905000X2.000000*%
G04 #@! TD*
G04 #@! TA.AperFunction,ComponentPad*
%ADD18R,1.600000X2.400000*%
G04 #@! TD*
G04 #@! TA.AperFunction,ComponentPad*
%ADD19O,1.600000X2.400000*%
G04 #@! TD*
G04 #@! TA.AperFunction,ComponentPad*
%ADD20C,1.700000*%
G04 #@! TD*
G04 #@! TA.AperFunction,ComponentPad*
%ADD21C,1.500000*%
G04 #@! TD*
G04 #@! TA.AperFunction,ViaPad*
%ADD22C,0.800000*%
G04 #@! TD*
G04 #@! TA.AperFunction,Conductor*
%ADD23C,0.300000*%
G04 #@! TD*
G04 #@! TA.AperFunction,Conductor*
%ADD24C,0.500000*%
G04 #@! TD*
G04 #@! TA.AperFunction,Conductor*
%ADD25C,0.250000*%
G04 #@! TD*
G04 #@! TA.AperFunction,Conductor*
%ADD26C,0.600000*%
G04 #@! TD*
G04 APERTURE END LIST*
D10*
G04 #@! TO.P,J33,4*
G04 #@! TO.N,GND*
X101460000Y-39120000D03*
G04 #@! TO.P,J33,3*
G04 #@! TO.N,SCL*
X104000000Y-39120000D03*
G04 #@! TO.P,J33,2*
G04 #@! TO.N,SDA*
X106540000Y-39120000D03*
D11*
G04 #@! TO.P,J33,1*
G04 #@! TO.N,+5V*
X109080000Y-39120000D03*
G04 #@! TD*
G04 #@! TO.P,J34,1*
G04 #@! TO.N,+5V*
X109050000Y-29880000D03*
D10*
G04 #@! TO.P,J34,2*
G04 #@! TO.N,SDA*
X106510000Y-29880000D03*
G04 #@! TO.P,J34,3*
G04 #@! TO.N,SCL*
X103970000Y-29880000D03*
G04 #@! TO.P,J34,4*
G04 #@! TO.N,GND*
X101430000Y-29880000D03*
G04 #@! TD*
G04 #@! TO.P,J35,4*
G04 #@! TO.N,GND*
X101460000Y-34500000D03*
G04 #@! TO.P,J35,3*
G04 #@! TO.N,SCL*
X104000000Y-34500000D03*
G04 #@! TO.P,J35,2*
G04 #@! TO.N,SDA*
X106540000Y-34500000D03*
D11*
G04 #@! TO.P,J35,1*
G04 #@! TO.N,+5V*
X109080000Y-34500000D03*
G04 #@! TD*
D12*
G04 #@! TO.P,U1,1*
G04 #@! TO.N,Net-(U1-Pad1)*
X88430000Y-41420000D03*
G04 #@! TO.P,U1,2*
G04 #@! TO.N,Net-(U1-Pad2)*
X88430000Y-40620000D03*
G04 #@! TO.P,U1,3*
G04 #@! TO.N,GND*
X88430000Y-39820000D03*
G04 #@! TO.P,U1,4*
G04 #@! TO.N,+5V*
X88430000Y-39020000D03*
G04 #@! TO.P,U1,5*
G04 #@! TO.N,GND*
X88430000Y-38220000D03*
G04 #@! TO.P,U1,6*
G04 #@! TO.N,+5V*
X88430000Y-37420000D03*
G04 #@! TO.P,U1,7*
G04 #@! TO.N,Net-(C3-Pad2)*
X88430000Y-36620000D03*
G04 #@! TO.P,U1,8*
G04 #@! TO.N,Net-(C4-Pad2)*
X88430000Y-35820000D03*
D13*
G04 #@! TO.P,U1,9*
G04 #@! TO.N,eyes_RED*
X89880000Y-34370000D03*
G04 #@! TO.P,U1,10*
G04 #@! TO.N,eyes_GREEN*
X90680000Y-34370000D03*
G04 #@! TO.P,U1,11*
G04 #@! TO.N,Net-(U1-Pad11)*
X91480000Y-34370000D03*
G04 #@! TO.P,U1,12*
G04 #@! TO.N,servos_ON*
X92280000Y-34370000D03*
G04 #@! TO.P,U1,13*
G04 #@! TO.N,eyes_BLUE*
X93080000Y-34370000D03*
G04 #@! TO.P,U1,14*
G04 #@! TO.N,Net-(U1-Pad14)*
X93880000Y-34370000D03*
G04 #@! TO.P,U1,15*
G04 #@! TO.N,MOSI*
X94680000Y-34370000D03*
G04 #@! TO.P,U1,16*
G04 #@! TO.N,MISO*
X95480000Y-34370000D03*
D12*
G04 #@! TO.P,U1,17*
G04 #@! TO.N,SCK*
X96930000Y-35820000D03*
G04 #@! TO.P,U1,18*
G04 #@! TO.N,+5V*
X96930000Y-36620000D03*
G04 #@! TO.P,U1,19*
G04 #@! TO.N,Net-(U1-Pad19)*
X96930000Y-37420000D03*
G04 #@! TO.P,U1,20*
G04 #@! TO.N,Net-(C2-Pad1)*
X96930000Y-38220000D03*
G04 #@! TO.P,U1,21*
G04 #@! TO.N,GND*
X96930000Y-39020000D03*
G04 #@! TO.P,U1,22*
G04 #@! TO.N,Net-(U1-Pad22)*
X96930000Y-39820000D03*
G04 #@! TO.P,U1,23*
G04 #@! TO.N,LVL_LIPO*
X96930000Y-40620000D03*
G04 #@! TO.P,U1,24*
G04 #@! TO.N,ADC1*
X96930000Y-41420000D03*
D13*
G04 #@! TO.P,U1,25*
G04 #@! TO.N,ADC2*
X95480000Y-42870000D03*
G04 #@! TO.P,U1,26*
G04 #@! TO.N,ADC3*
X94680000Y-42870000D03*
G04 #@! TO.P,U1,27*
G04 #@! TO.N,SDA*
X93880000Y-42870000D03*
G04 #@! TO.P,U1,28*
G04 #@! TO.N,SCL*
X93080000Y-42870000D03*
G04 #@! TO.P,U1,29*
G04 #@! TO.N,RST*
X92280000Y-42870000D03*
G04 #@! TO.P,U1,30*
G04 #@! TO.N,RX*
X91480000Y-42870000D03*
G04 #@! TO.P,U1,31*
G04 #@! TO.N,TX*
X90680000Y-42870000D03*
G04 #@! TO.P,U1,32*
G04 #@! TO.N,Net-(U1-Pad32)*
X89880000Y-42870000D03*
G04 #@! TD*
D14*
G04 #@! TO.N,+5V*
G04 #@! TO.C,C2*
G36*
X100965779Y-37126144D02*
X100988834Y-37129563D01*
X101011443Y-37135227D01*
X101033387Y-37143079D01*
X101054457Y-37153044D01*
X101074448Y-37165026D01*
X101093168Y-37178910D01*
X101110438Y-37194562D01*
X101126090Y-37211832D01*
X101139974Y-37230552D01*
X101151956Y-37250543D01*
X101161921Y-37271613D01*
X101169773Y-37293557D01*
X101175437Y-37316166D01*
X101178856Y-37339221D01*
X101180000Y-37362500D01*
X101180000Y-37837500D01*
X101178856Y-37860779D01*
X101175437Y-37883834D01*
X101169773Y-37906443D01*
X101161921Y-37928387D01*
X101151956Y-37949457D01*
X101139974Y-37969448D01*
X101126090Y-37988168D01*
X101110438Y-38005438D01*
X101093168Y-38021090D01*
X101074448Y-38034974D01*
X101054457Y-38046956D01*
X101033387Y-38056921D01*
X101011443Y-38064773D01*
X100988834Y-38070437D01*
X100965779Y-38073856D01*
X100942500Y-38075000D01*
X100367500Y-38075000D01*
X100344221Y-38073856D01*
X100321166Y-38070437D01*
X100298557Y-38064773D01*
X100276613Y-38056921D01*
X100255543Y-38046956D01*
X100235552Y-38034974D01*
X100216832Y-38021090D01*
X100199562Y-38005438D01*
X100183910Y-37988168D01*
X100170026Y-37969448D01*
X100158044Y-37949457D01*
X100148079Y-37928387D01*
X100140227Y-37906443D01*
X100134563Y-37883834D01*
X100131144Y-37860779D01*
X100130000Y-37837500D01*
X100130000Y-37362500D01*
X100131144Y-37339221D01*
X100134563Y-37316166D01*
X100140227Y-37293557D01*
X100148079Y-37271613D01*
X100158044Y-37250543D01*
X100170026Y-37230552D01*
X100183910Y-37211832D01*
X100199562Y-37194562D01*
X100216832Y-37178910D01*
X100235552Y-37165026D01*
X100255543Y-37153044D01*
X100276613Y-37143079D01*
X100298557Y-37135227D01*
X100321166Y-37129563D01*
X100344221Y-37126144D01*
X100367500Y-37125000D01*
X100942500Y-37125000D01*
X100965779Y-37126144D01*
X100965779Y-37126144D01*
G37*
D15*
G04 #@! TD*
G04 #@! TO.P,C2,2*
G04 #@! TO.N,+5V*
X100655000Y-37600000D03*
D14*
G04 #@! TO.N,Net-(C2-Pad1)*
G04 #@! TO.C,C2*
G36*
X99215779Y-37126144D02*
X99238834Y-37129563D01*
X99261443Y-37135227D01*
X99283387Y-37143079D01*
X99304457Y-37153044D01*
X99324448Y-37165026D01*
X99343168Y-37178910D01*
X99360438Y-37194562D01*
X99376090Y-37211832D01*
X99389974Y-37230552D01*
X99401956Y-37250543D01*
X99411921Y-37271613D01*
X99419773Y-37293557D01*
X99425437Y-37316166D01*
X99428856Y-37339221D01*
X99430000Y-37362500D01*
X99430000Y-37837500D01*
X99428856Y-37860779D01*
X99425437Y-37883834D01*
X99419773Y-37906443D01*
X99411921Y-37928387D01*
X99401956Y-37949457D01*
X99389974Y-37969448D01*
X99376090Y-37988168D01*
X99360438Y-38005438D01*
X99343168Y-38021090D01*
X99324448Y-38034974D01*
X99304457Y-38046956D01*
X99283387Y-38056921D01*
X99261443Y-38064773D01*
X99238834Y-38070437D01*
X99215779Y-38073856D01*
X99192500Y-38075000D01*
X98617500Y-38075000D01*
X98594221Y-38073856D01*
X98571166Y-38070437D01*
X98548557Y-38064773D01*
X98526613Y-38056921D01*
X98505543Y-38046956D01*
X98485552Y-38034974D01*
X98466832Y-38021090D01*
X98449562Y-38005438D01*
X98433910Y-37988168D01*
X98420026Y-37969448D01*
X98408044Y-37949457D01*
X98398079Y-37928387D01*
X98390227Y-37906443D01*
X98384563Y-37883834D01*
X98381144Y-37860779D01*
X98380000Y-37837500D01*
X98380000Y-37362500D01*
X98381144Y-37339221D01*
X98384563Y-37316166D01*
X98390227Y-37293557D01*
X98398079Y-37271613D01*
X98408044Y-37250543D01*
X98420026Y-37230552D01*
X98433910Y-37211832D01*
X98449562Y-37194562D01*
X98466832Y-37178910D01*
X98485552Y-37165026D01*
X98505543Y-37153044D01*
X98526613Y-37143079D01*
X98548557Y-37135227D01*
X98571166Y-37129563D01*
X98594221Y-37126144D01*
X98617500Y-37125000D01*
X99192500Y-37125000D01*
X99215779Y-37126144D01*
X99215779Y-37126144D01*
G37*
D15*
G04 #@! TD*
G04 #@! TO.P,C2,1*
G04 #@! TO.N,Net-(C2-Pad1)*
X98905000Y-37600000D03*
D14*
G04 #@! TO.N,Net-(C3-Pad2)*
G04 #@! TO.C,C3*
G36*
X82130779Y-40931144D02*
X82153834Y-40934563D01*
X82176443Y-40940227D01*
X82198387Y-40948079D01*
X82219457Y-40958044D01*
X82239448Y-40970026D01*
X82258168Y-40983910D01*
X82275438Y-40999562D01*
X82291090Y-41016832D01*
X82304974Y-41035552D01*
X82316956Y-41055543D01*
X82326921Y-41076613D01*
X82334773Y-41098557D01*
X82340437Y-41121166D01*
X82343856Y-41144221D01*
X82345000Y-41167500D01*
X82345000Y-41742500D01*
X82343856Y-41765779D01*
X82340437Y-41788834D01*
X82334773Y-41811443D01*
X82326921Y-41833387D01*
X82316956Y-41854457D01*
X82304974Y-41874448D01*
X82291090Y-41893168D01*
X82275438Y-41910438D01*
X82258168Y-41926090D01*
X82239448Y-41939974D01*
X82219457Y-41951956D01*
X82198387Y-41961921D01*
X82176443Y-41969773D01*
X82153834Y-41975437D01*
X82130779Y-41978856D01*
X82107500Y-41980000D01*
X81632500Y-41980000D01*
X81609221Y-41978856D01*
X81586166Y-41975437D01*
X81563557Y-41969773D01*
X81541613Y-41961921D01*
X81520543Y-41951956D01*
X81500552Y-41939974D01*
X81481832Y-41926090D01*
X81464562Y-41910438D01*
X81448910Y-41893168D01*
X81435026Y-41874448D01*
X81423044Y-41854457D01*
X81413079Y-41833387D01*
X81405227Y-41811443D01*
X81399563Y-41788834D01*
X81396144Y-41765779D01*
X81395000Y-41742500D01*
X81395000Y-41167500D01*
X81396144Y-41144221D01*
X81399563Y-41121166D01*
X81405227Y-41098557D01*
X81413079Y-41076613D01*
X81423044Y-41055543D01*
X81435026Y-41035552D01*
X81448910Y-41016832D01*
X81464562Y-40999562D01*
X81481832Y-40983910D01*
X81500552Y-40970026D01*
X81520543Y-40958044D01*
X81541613Y-40948079D01*
X81563557Y-40940227D01*
X81586166Y-40934563D01*
X81609221Y-40931144D01*
X81632500Y-40930000D01*
X82107500Y-40930000D01*
X82130779Y-40931144D01*
X82130779Y-40931144D01*
G37*
D15*
G04 #@! TD*
G04 #@! TO.P,C3,2*
G04 #@! TO.N,Net-(C3-Pad2)*
X81870000Y-41455000D03*
D14*
G04 #@! TO.N,GND*
G04 #@! TO.C,C3*
G36*
X82130779Y-42681144D02*
X82153834Y-42684563D01*
X82176443Y-42690227D01*
X82198387Y-42698079D01*
X82219457Y-42708044D01*
X82239448Y-42720026D01*
X82258168Y-42733910D01*
X82275438Y-42749562D01*
X82291090Y-42766832D01*
X82304974Y-42785552D01*
X82316956Y-42805543D01*
X82326921Y-42826613D01*
X82334773Y-42848557D01*
X82340437Y-42871166D01*
X82343856Y-42894221D01*
X82345000Y-42917500D01*
X82345000Y-43492500D01*
X82343856Y-43515779D01*
X82340437Y-43538834D01*
X82334773Y-43561443D01*
X82326921Y-43583387D01*
X82316956Y-43604457D01*
X82304974Y-43624448D01*
X82291090Y-43643168D01*
X82275438Y-43660438D01*
X82258168Y-43676090D01*
X82239448Y-43689974D01*
X82219457Y-43701956D01*
X82198387Y-43711921D01*
X82176443Y-43719773D01*
X82153834Y-43725437D01*
X82130779Y-43728856D01*
X82107500Y-43730000D01*
X81632500Y-43730000D01*
X81609221Y-43728856D01*
X81586166Y-43725437D01*
X81563557Y-43719773D01*
X81541613Y-43711921D01*
X81520543Y-43701956D01*
X81500552Y-43689974D01*
X81481832Y-43676090D01*
X81464562Y-43660438D01*
X81448910Y-43643168D01*
X81435026Y-43624448D01*
X81423044Y-43604457D01*
X81413079Y-43583387D01*
X81405227Y-43561443D01*
X81399563Y-43538834D01*
X81396144Y-43515779D01*
X81395000Y-43492500D01*
X81395000Y-42917500D01*
X81396144Y-42894221D01*
X81399563Y-42871166D01*
X81405227Y-42848557D01*
X81413079Y-42826613D01*
X81423044Y-42805543D01*
X81435026Y-42785552D01*
X81448910Y-42766832D01*
X81464562Y-42749562D01*
X81481832Y-42733910D01*
X81500552Y-42720026D01*
X81520543Y-42708044D01*
X81541613Y-42698079D01*
X81563557Y-42690227D01*
X81586166Y-42684563D01*
X81609221Y-42681144D01*
X81632500Y-42680000D01*
X82107500Y-42680000D01*
X82130779Y-42681144D01*
X82130779Y-42681144D01*
G37*
D15*
G04 #@! TD*
G04 #@! TO.P,C3,1*
G04 #@! TO.N,GND*
X81870000Y-43205000D03*
D14*
G04 #@! TO.N,GND*
G04 #@! TO.C,C4*
G36*
X80390779Y-42626144D02*
X80413834Y-42629563D01*
X80436443Y-42635227D01*
X80458387Y-42643079D01*
X80479457Y-42653044D01*
X80499448Y-42665026D01*
X80518168Y-42678910D01*
X80535438Y-42694562D01*
X80551090Y-42711832D01*
X80564974Y-42730552D01*
X80576956Y-42750543D01*
X80586921Y-42771613D01*
X80594773Y-42793557D01*
X80600437Y-42816166D01*
X80603856Y-42839221D01*
X80605000Y-42862500D01*
X80605000Y-43437500D01*
X80603856Y-43460779D01*
X80600437Y-43483834D01*
X80594773Y-43506443D01*
X80586921Y-43528387D01*
X80576956Y-43549457D01*
X80564974Y-43569448D01*
X80551090Y-43588168D01*
X80535438Y-43605438D01*
X80518168Y-43621090D01*
X80499448Y-43634974D01*
X80479457Y-43646956D01*
X80458387Y-43656921D01*
X80436443Y-43664773D01*
X80413834Y-43670437D01*
X80390779Y-43673856D01*
X80367500Y-43675000D01*
X79892500Y-43675000D01*
X79869221Y-43673856D01*
X79846166Y-43670437D01*
X79823557Y-43664773D01*
X79801613Y-43656921D01*
X79780543Y-43646956D01*
X79760552Y-43634974D01*
X79741832Y-43621090D01*
X79724562Y-43605438D01*
X79708910Y-43588168D01*
X79695026Y-43569448D01*
X79683044Y-43549457D01*
X79673079Y-43528387D01*
X79665227Y-43506443D01*
X79659563Y-43483834D01*
X79656144Y-43460779D01*
X79655000Y-43437500D01*
X79655000Y-42862500D01*
X79656144Y-42839221D01*
X79659563Y-42816166D01*
X79665227Y-42793557D01*
X79673079Y-42771613D01*
X79683044Y-42750543D01*
X79695026Y-42730552D01*
X79708910Y-42711832D01*
X79724562Y-42694562D01*
X79741832Y-42678910D01*
X79760552Y-42665026D01*
X79780543Y-42653044D01*
X79801613Y-42643079D01*
X79823557Y-42635227D01*
X79846166Y-42629563D01*
X79869221Y-42626144D01*
X79892500Y-42625000D01*
X80367500Y-42625000D01*
X80390779Y-42626144D01*
X80390779Y-42626144D01*
G37*
D15*
G04 #@! TD*
G04 #@! TO.P,C4,1*
G04 #@! TO.N,GND*
X80130000Y-43150000D03*
D14*
G04 #@! TO.N,Net-(C4-Pad2)*
G04 #@! TO.C,C4*
G36*
X80390779Y-40876144D02*
X80413834Y-40879563D01*
X80436443Y-40885227D01*
X80458387Y-40893079D01*
X80479457Y-40903044D01*
X80499448Y-40915026D01*
X80518168Y-40928910D01*
X80535438Y-40944562D01*
X80551090Y-40961832D01*
X80564974Y-40980552D01*
X80576956Y-41000543D01*
X80586921Y-41021613D01*
X80594773Y-41043557D01*
X80600437Y-41066166D01*
X80603856Y-41089221D01*
X80605000Y-41112500D01*
X80605000Y-41687500D01*
X80603856Y-41710779D01*
X80600437Y-41733834D01*
X80594773Y-41756443D01*
X80586921Y-41778387D01*
X80576956Y-41799457D01*
X80564974Y-41819448D01*
X80551090Y-41838168D01*
X80535438Y-41855438D01*
X80518168Y-41871090D01*
X80499448Y-41884974D01*
X80479457Y-41896956D01*
X80458387Y-41906921D01*
X80436443Y-41914773D01*
X80413834Y-41920437D01*
X80390779Y-41923856D01*
X80367500Y-41925000D01*
X79892500Y-41925000D01*
X79869221Y-41923856D01*
X79846166Y-41920437D01*
X79823557Y-41914773D01*
X79801613Y-41906921D01*
X79780543Y-41896956D01*
X79760552Y-41884974D01*
X79741832Y-41871090D01*
X79724562Y-41855438D01*
X79708910Y-41838168D01*
X79695026Y-41819448D01*
X79683044Y-41799457D01*
X79673079Y-41778387D01*
X79665227Y-41756443D01*
X79659563Y-41733834D01*
X79656144Y-41710779D01*
X79655000Y-41687500D01*
X79655000Y-41112500D01*
X79656144Y-41089221D01*
X79659563Y-41066166D01*
X79665227Y-41043557D01*
X79673079Y-41021613D01*
X79683044Y-41000543D01*
X79695026Y-40980552D01*
X79708910Y-40961832D01*
X79724562Y-40944562D01*
X79741832Y-40928910D01*
X79760552Y-40915026D01*
X79780543Y-40903044D01*
X79801613Y-40893079D01*
X79823557Y-40885227D01*
X79846166Y-40879563D01*
X79869221Y-40876144D01*
X79892500Y-40875000D01*
X80367500Y-40875000D01*
X80390779Y-40876144D01*
X80390779Y-40876144D01*
G37*
D15*
G04 #@! TD*
G04 #@! TO.P,C4,2*
G04 #@! TO.N,Net-(C4-Pad2)*
X80130000Y-41400000D03*
D11*
G04 #@! TO.P,J1,1*
G04 #@! TO.N,MISO*
X83070000Y-32010000D03*
D10*
G04 #@! TO.P,J1,2*
G04 #@! TO.N,+5V*
X83070000Y-34550000D03*
G04 #@! TO.P,J1,3*
G04 #@! TO.N,SCK*
X80530000Y-32010000D03*
G04 #@! TO.P,J1,4*
G04 #@! TO.N,MOSI*
X80530000Y-34550000D03*
G04 #@! TO.P,J1,5*
G04 #@! TO.N,RST*
X77990000Y-32010000D03*
G04 #@! TO.P,J1,6*
G04 #@! TO.N,GND*
X77990000Y-34550000D03*
G04 #@! TD*
G04 #@! TO.P,J6,3*
G04 #@! TO.N,servos_GND*
X53247742Y-44481954D03*
G04 #@! TO.P,J6,2*
G04 #@! TO.N,+6V*
X55787742Y-44481954D03*
D11*
G04 #@! TO.P,J6,1*
G04 #@! TO.N,SERVO0*
X58327742Y-44481954D03*
G04 #@! TD*
G04 #@! TO.P,J7,1*
G04 #@! TO.N,SERVO4*
X58327742Y-58881954D03*
D10*
G04 #@! TO.P,J7,2*
G04 #@! TO.N,+6V*
X55787742Y-58881954D03*
G04 #@! TO.P,J7,3*
G04 #@! TO.N,servos_GND*
X53247742Y-58881954D03*
G04 #@! TD*
D11*
G04 #@! TO.P,J8,1*
G04 #@! TO.N,SERVO8*
X73770000Y-63190000D03*
D10*
G04 #@! TO.P,J8,2*
G04 #@! TO.N,+6V*
X73770000Y-65730000D03*
G04 #@! TO.P,J8,3*
G04 #@! TO.N,servos_GND*
X73770000Y-68270000D03*
G04 #@! TD*
D11*
G04 #@! TO.P,J9,1*
G04 #@! TO.N,SERVO12*
X91930000Y-63130000D03*
D10*
G04 #@! TO.P,J9,2*
G04 #@! TO.N,+6V*
X91930000Y-65670000D03*
G04 #@! TO.P,J9,3*
G04 #@! TO.N,servos_GND*
X91930000Y-68210000D03*
G04 #@! TD*
D11*
G04 #@! TO.P,J10,1*
G04 #@! TO.N,SERVO16*
X103886000Y-55280000D03*
D10*
G04 #@! TO.P,J10,2*
G04 #@! TO.N,+6V*
X106426000Y-55280000D03*
G04 #@! TO.P,J10,3*
G04 #@! TO.N,servos_GND*
X108966000Y-55280000D03*
G04 #@! TD*
D11*
G04 #@! TO.P,J11,1*
G04 #@! TO.N,ADC1*
X59120000Y-30480000D03*
D10*
G04 #@! TO.P,J11,2*
G04 #@! TO.N,GND*
X59120000Y-33020000D03*
G04 #@! TO.P,J11,3*
G04 #@! TO.N,+5V*
X59120000Y-35560000D03*
G04 #@! TD*
G04 #@! TO.P,J12,3*
G04 #@! TO.N,+5V*
X63990000Y-35560000D03*
G04 #@! TO.P,J12,2*
G04 #@! TO.N,GND*
X63990000Y-33020000D03*
D11*
G04 #@! TO.P,J12,1*
G04 #@! TO.N,ADC2*
X63990000Y-30480000D03*
G04 #@! TD*
G04 #@! TO.P,J13,1*
G04 #@! TO.N,ADC3*
X68760000Y-30520000D03*
D10*
G04 #@! TO.P,J13,2*
G04 #@! TO.N,GND*
X68760000Y-33060000D03*
G04 #@! TO.P,J13,3*
G04 #@! TO.N,+5V*
X68760000Y-35600000D03*
G04 #@! TD*
G04 #@! TO.P,J14,3*
G04 #@! TO.N,servos_GND*
X53247742Y-48081954D03*
G04 #@! TO.P,J14,2*
G04 #@! TO.N,+6V*
X55787742Y-48081954D03*
D11*
G04 #@! TO.P,J14,1*
G04 #@! TO.N,SERVO1*
X58327742Y-48081954D03*
G04 #@! TD*
G04 #@! TO.P,J15,1*
G04 #@! TO.N,SERVO5*
X62990000Y-63190000D03*
D10*
G04 #@! TO.P,J15,2*
G04 #@! TO.N,+6V*
X62990000Y-65730000D03*
G04 #@! TO.P,J15,3*
G04 #@! TO.N,servos_GND*
X62990000Y-68270000D03*
G04 #@! TD*
G04 #@! TO.P,J16,3*
G04 #@! TO.N,servos_GND*
X77390000Y-68230000D03*
G04 #@! TO.P,J16,2*
G04 #@! TO.N,+6V*
X77390000Y-65690000D03*
D11*
G04 #@! TO.P,J16,1*
G04 #@! TO.N,SERVO9*
X77390000Y-63150000D03*
G04 #@! TD*
D10*
G04 #@! TO.P,J17,3*
G04 #@! TO.N,servos_GND*
X95560000Y-68210000D03*
G04 #@! TO.P,J17,2*
G04 #@! TO.N,+6V*
X95560000Y-65670000D03*
D11*
G04 #@! TO.P,J17,1*
G04 #@! TO.N,SERVO13*
X95560000Y-63130000D03*
G04 #@! TD*
D10*
G04 #@! TO.P,J18,3*
G04 #@! TO.N,servos_GND*
X108970000Y-51650000D03*
G04 #@! TO.P,J18,2*
G04 #@! TO.N,+6V*
X106430000Y-51650000D03*
D11*
G04 #@! TO.P,J18,1*
G04 #@! TO.N,SERVO17*
X103890000Y-51650000D03*
G04 #@! TD*
D10*
G04 #@! TO.P,J19,4*
G04 #@! TO.N,Net-(J19-Pad4)*
X73070000Y-39230000D03*
G04 #@! TO.P,J19,3*
G04 #@! TO.N,RX*
X73070000Y-36690000D03*
G04 #@! TO.P,J19,2*
G04 #@! TO.N,GND*
X73070000Y-34150000D03*
D11*
G04 #@! TO.P,J19,1*
G04 #@! TO.N,+5V*
X73070000Y-31610000D03*
G04 #@! TD*
G04 #@! TO.P,J22,1*
G04 #@! TO.N,SERVO2*
X58327742Y-51681954D03*
D10*
G04 #@! TO.P,J22,2*
G04 #@! TO.N,+6V*
X55787742Y-51681954D03*
G04 #@! TO.P,J22,3*
G04 #@! TO.N,servos_GND*
X53247742Y-51681954D03*
G04 #@! TD*
D11*
G04 #@! TO.P,J23,1*
G04 #@! TO.N,SERVO6*
X66590000Y-63190000D03*
D10*
G04 #@! TO.P,J23,2*
G04 #@! TO.N,+6V*
X66590000Y-65730000D03*
G04 #@! TO.P,J23,3*
G04 #@! TO.N,servos_GND*
X66590000Y-68270000D03*
G04 #@! TD*
D11*
G04 #@! TO.P,J24,1*
G04 #@! TO.N,SERVO10*
X84680000Y-63130000D03*
D10*
G04 #@! TO.P,J24,2*
G04 #@! TO.N,+6V*
X84680000Y-65670000D03*
G04 #@! TO.P,J24,3*
G04 #@! TO.N,servos_GND*
X84680000Y-68210000D03*
G04 #@! TD*
G04 #@! TO.P,J25,3*
G04 #@! TO.N,servos_GND*
X99220000Y-68230000D03*
G04 #@! TO.P,J25,2*
G04 #@! TO.N,+6V*
X99220000Y-65690000D03*
D11*
G04 #@! TO.P,J25,1*
G04 #@! TO.N,SERVO14*
X99220000Y-63150000D03*
G04 #@! TD*
G04 #@! TO.P,J26,1*
G04 #@! TO.N,SERVO18*
X103890000Y-48010000D03*
D10*
G04 #@! TO.P,J26,2*
G04 #@! TO.N,+6V*
X106430000Y-48010000D03*
G04 #@! TO.P,J26,3*
G04 #@! TO.N,servos_GND*
X108970000Y-48010000D03*
G04 #@! TD*
D11*
G04 #@! TO.P,J27,1*
G04 #@! TO.N,eyes_BLUE*
X95790000Y-29860000D03*
D10*
G04 #@! TO.P,J27,2*
G04 #@! TO.N,eyes_GREEN*
X93250000Y-29860000D03*
G04 #@! TO.P,J27,3*
G04 #@! TO.N,eyes_RED*
X90710000Y-29860000D03*
G04 #@! TO.P,J27,4*
G04 #@! TO.N,GND*
X88170000Y-29860000D03*
G04 #@! TD*
D11*
G04 #@! TO.P,J28,1*
G04 #@! TO.N,SERVO3*
X58327742Y-55281954D03*
D10*
G04 #@! TO.P,J28,2*
G04 #@! TO.N,+6V*
X55787742Y-55281954D03*
G04 #@! TO.P,J28,3*
G04 #@! TO.N,servos_GND*
X53247742Y-55281954D03*
G04 #@! TD*
G04 #@! TO.P,J29,3*
G04 #@! TO.N,servos_GND*
X70190000Y-68270000D03*
G04 #@! TO.P,J29,2*
G04 #@! TO.N,+6V*
X70190000Y-65730000D03*
D11*
G04 #@! TO.P,J29,1*
G04 #@! TO.N,SERVO7*
X70190000Y-63190000D03*
G04 #@! TD*
D10*
G04 #@! TO.P,J30,3*
G04 #@! TO.N,servos_GND*
X88300000Y-68210000D03*
G04 #@! TO.P,J30,2*
G04 #@! TO.N,+6V*
X88300000Y-65670000D03*
D11*
G04 #@! TO.P,J30,1*
G04 #@! TO.N,SERVO11*
X88300000Y-63130000D03*
G04 #@! TD*
D10*
G04 #@! TO.P,J31,3*
G04 #@! TO.N,servos_GND*
X108966000Y-58928000D03*
G04 #@! TO.P,J31,2*
G04 #@! TO.N,+6V*
X106426000Y-58928000D03*
D11*
G04 #@! TO.P,J31,1*
G04 #@! TO.N,SERVO15*
X103886000Y-58928000D03*
G04 #@! TD*
D10*
G04 #@! TO.P,J32,3*
G04 #@! TO.N,servos_GND*
X108980000Y-44390000D03*
G04 #@! TO.P,J32,2*
G04 #@! TO.N,+6V*
X106440000Y-44390000D03*
D11*
G04 #@! TO.P,J32,1*
G04 #@! TO.N,SERVO19*
X103900000Y-44390000D03*
G04 #@! TD*
D16*
G04 #@! TO.P,Q1,1*
G04 #@! TO.N,servos_ON*
X68320000Y-39790000D03*
D17*
G04 #@! TO.P,Q1,2*
G04 #@! TO.N,servos_GND*
X65780000Y-39790000D03*
G04 #@! TO.P,Q1,3*
G04 #@! TO.N,GND*
X63240000Y-39790000D03*
G04 #@! TD*
D14*
G04 #@! TO.N,+5V*
G04 #@! TO.C,R1*
G36*
X108975779Y-36326144D02*
X108998834Y-36329563D01*
X109021443Y-36335227D01*
X109043387Y-36343079D01*
X109064457Y-36353044D01*
X109084448Y-36365026D01*
X109103168Y-36378910D01*
X109120438Y-36394562D01*
X109136090Y-36411832D01*
X109149974Y-36430552D01*
X109161956Y-36450543D01*
X109171921Y-36471613D01*
X109179773Y-36493557D01*
X109185437Y-36516166D01*
X109188856Y-36539221D01*
X109190000Y-36562500D01*
X109190000Y-37037500D01*
X109188856Y-37060779D01*
X109185437Y-37083834D01*
X109179773Y-37106443D01*
X109171921Y-37128387D01*
X109161956Y-37149457D01*
X109149974Y-37169448D01*
X109136090Y-37188168D01*
X109120438Y-37205438D01*
X109103168Y-37221090D01*
X109084448Y-37234974D01*
X109064457Y-37246956D01*
X109043387Y-37256921D01*
X109021443Y-37264773D01*
X108998834Y-37270437D01*
X108975779Y-37273856D01*
X108952500Y-37275000D01*
X108377500Y-37275000D01*
X108354221Y-37273856D01*
X108331166Y-37270437D01*
X108308557Y-37264773D01*
X108286613Y-37256921D01*
X108265543Y-37246956D01*
X108245552Y-37234974D01*
X108226832Y-37221090D01*
X108209562Y-37205438D01*
X108193910Y-37188168D01*
X108180026Y-37169448D01*
X108168044Y-37149457D01*
X108158079Y-37128387D01*
X108150227Y-37106443D01*
X108144563Y-37083834D01*
X108141144Y-37060779D01*
X108140000Y-37037500D01*
X108140000Y-36562500D01*
X108141144Y-36539221D01*
X108144563Y-36516166D01*
X108150227Y-36493557D01*
X108158079Y-36471613D01*
X108168044Y-36450543D01*
X108180026Y-36430552D01*
X108193910Y-36411832D01*
X108209562Y-36394562D01*
X108226832Y-36378910D01*
X108245552Y-36365026D01*
X108265543Y-36353044D01*
X108286613Y-36343079D01*
X108308557Y-36335227D01*
X108331166Y-36329563D01*
X108354221Y-36326144D01*
X108377500Y-36325000D01*
X108952500Y-36325000D01*
X108975779Y-36326144D01*
X108975779Y-36326144D01*
G37*
D15*
G04 #@! TD*
G04 #@! TO.P,R1,1*
G04 #@! TO.N,+5V*
X108665000Y-36800000D03*
D14*
G04 #@! TO.N,SDA*
G04 #@! TO.C,R1*
G36*
X107225779Y-36326144D02*
X107248834Y-36329563D01*
X107271443Y-36335227D01*
X107293387Y-36343079D01*
X107314457Y-36353044D01*
X107334448Y-36365026D01*
X107353168Y-36378910D01*
X107370438Y-36394562D01*
X107386090Y-36411832D01*
X107399974Y-36430552D01*
X107411956Y-36450543D01*
X107421921Y-36471613D01*
X107429773Y-36493557D01*
X107435437Y-36516166D01*
X107438856Y-36539221D01*
X107440000Y-36562500D01*
X107440000Y-37037500D01*
X107438856Y-37060779D01*
X107435437Y-37083834D01*
X107429773Y-37106443D01*
X107421921Y-37128387D01*
X107411956Y-37149457D01*
X107399974Y-37169448D01*
X107386090Y-37188168D01*
X107370438Y-37205438D01*
X107353168Y-37221090D01*
X107334448Y-37234974D01*
X107314457Y-37246956D01*
X107293387Y-37256921D01*
X107271443Y-37264773D01*
X107248834Y-37270437D01*
X107225779Y-37273856D01*
X107202500Y-37275000D01*
X106627500Y-37275000D01*
X106604221Y-37273856D01*
X106581166Y-37270437D01*
X106558557Y-37264773D01*
X106536613Y-37256921D01*
X106515543Y-37246956D01*
X106495552Y-37234974D01*
X106476832Y-37221090D01*
X106459562Y-37205438D01*
X106443910Y-37188168D01*
X106430026Y-37169448D01*
X106418044Y-37149457D01*
X106408079Y-37128387D01*
X106400227Y-37106443D01*
X106394563Y-37083834D01*
X106391144Y-37060779D01*
X106390000Y-37037500D01*
X106390000Y-36562500D01*
X106391144Y-36539221D01*
X106394563Y-36516166D01*
X106400227Y-36493557D01*
X106408079Y-36471613D01*
X106418044Y-36450543D01*
X106430026Y-36430552D01*
X106443910Y-36411832D01*
X106459562Y-36394562D01*
X106476832Y-36378910D01*
X106495552Y-36365026D01*
X106515543Y-36353044D01*
X106536613Y-36343079D01*
X106558557Y-36335227D01*
X106581166Y-36329563D01*
X106604221Y-36326144D01*
X106627500Y-36325000D01*
X107202500Y-36325000D01*
X107225779Y-36326144D01*
X107225779Y-36326144D01*
G37*
D15*
G04 #@! TD*
G04 #@! TO.P,R1,2*
G04 #@! TO.N,SDA*
X106915000Y-36800000D03*
D14*
G04 #@! TO.N,SCL*
G04 #@! TO.C,R2*
G36*
X107085779Y-41086144D02*
X107108834Y-41089563D01*
X107131443Y-41095227D01*
X107153387Y-41103079D01*
X107174457Y-41113044D01*
X107194448Y-41125026D01*
X107213168Y-41138910D01*
X107230438Y-41154562D01*
X107246090Y-41171832D01*
X107259974Y-41190552D01*
X107271956Y-41210543D01*
X107281921Y-41231613D01*
X107289773Y-41253557D01*
X107295437Y-41276166D01*
X107298856Y-41299221D01*
X107300000Y-41322500D01*
X107300000Y-41797500D01*
X107298856Y-41820779D01*
X107295437Y-41843834D01*
X107289773Y-41866443D01*
X107281921Y-41888387D01*
X107271956Y-41909457D01*
X107259974Y-41929448D01*
X107246090Y-41948168D01*
X107230438Y-41965438D01*
X107213168Y-41981090D01*
X107194448Y-41994974D01*
X107174457Y-42006956D01*
X107153387Y-42016921D01*
X107131443Y-42024773D01*
X107108834Y-42030437D01*
X107085779Y-42033856D01*
X107062500Y-42035000D01*
X106487500Y-42035000D01*
X106464221Y-42033856D01*
X106441166Y-42030437D01*
X106418557Y-42024773D01*
X106396613Y-42016921D01*
X106375543Y-42006956D01*
X106355552Y-41994974D01*
X106336832Y-41981090D01*
X106319562Y-41965438D01*
X106303910Y-41948168D01*
X106290026Y-41929448D01*
X106278044Y-41909457D01*
X106268079Y-41888387D01*
X106260227Y-41866443D01*
X106254563Y-41843834D01*
X106251144Y-41820779D01*
X106250000Y-41797500D01*
X106250000Y-41322500D01*
X106251144Y-41299221D01*
X106254563Y-41276166D01*
X106260227Y-41253557D01*
X106268079Y-41231613D01*
X106278044Y-41210543D01*
X106290026Y-41190552D01*
X106303910Y-41171832D01*
X106319562Y-41154562D01*
X106336832Y-41138910D01*
X106355552Y-41125026D01*
X106375543Y-41113044D01*
X106396613Y-41103079D01*
X106418557Y-41095227D01*
X106441166Y-41089563D01*
X106464221Y-41086144D01*
X106487500Y-41085000D01*
X107062500Y-41085000D01*
X107085779Y-41086144D01*
X107085779Y-41086144D01*
G37*
D15*
G04 #@! TD*
G04 #@! TO.P,R2,2*
G04 #@! TO.N,SCL*
X106775000Y-41560000D03*
D14*
G04 #@! TO.N,+5V*
G04 #@! TO.C,R2*
G36*
X108835779Y-41086144D02*
X108858834Y-41089563D01*
X108881443Y-41095227D01*
X108903387Y-41103079D01*
X108924457Y-41113044D01*
X108944448Y-41125026D01*
X108963168Y-41138910D01*
X108980438Y-41154562D01*
X108996090Y-41171832D01*
X109009974Y-41190552D01*
X109021956Y-41210543D01*
X109031921Y-41231613D01*
X109039773Y-41253557D01*
X109045437Y-41276166D01*
X109048856Y-41299221D01*
X109050000Y-41322500D01*
X109050000Y-41797500D01*
X109048856Y-41820779D01*
X109045437Y-41843834D01*
X109039773Y-41866443D01*
X109031921Y-41888387D01*
X109021956Y-41909457D01*
X109009974Y-41929448D01*
X108996090Y-41948168D01*
X108980438Y-41965438D01*
X108963168Y-41981090D01*
X108944448Y-41994974D01*
X108924457Y-42006956D01*
X108903387Y-42016921D01*
X108881443Y-42024773D01*
X108858834Y-42030437D01*
X108835779Y-42033856D01*
X108812500Y-42035000D01*
X108237500Y-42035000D01*
X108214221Y-42033856D01*
X108191166Y-42030437D01*
X108168557Y-42024773D01*
X108146613Y-42016921D01*
X108125543Y-42006956D01*
X108105552Y-41994974D01*
X108086832Y-41981090D01*
X108069562Y-41965438D01*
X108053910Y-41948168D01*
X108040026Y-41929448D01*
X108028044Y-41909457D01*
X108018079Y-41888387D01*
X108010227Y-41866443D01*
X108004563Y-41843834D01*
X108001144Y-41820779D01*
X108000000Y-41797500D01*
X108000000Y-41322500D01*
X108001144Y-41299221D01*
X108004563Y-41276166D01*
X108010227Y-41253557D01*
X108018079Y-41231613D01*
X108028044Y-41210543D01*
X108040026Y-41190552D01*
X108053910Y-41171832D01*
X108069562Y-41154562D01*
X108086832Y-41138910D01*
X108105552Y-41125026D01*
X108125543Y-41113044D01*
X108146613Y-41103079D01*
X108168557Y-41095227D01*
X108191166Y-41089563D01*
X108214221Y-41086144D01*
X108237500Y-41085000D01*
X108812500Y-41085000D01*
X108835779Y-41086144D01*
X108835779Y-41086144D01*
G37*
D15*
G04 #@! TD*
G04 #@! TO.P,R2,1*
G04 #@! TO.N,+5V*
X108525000Y-41560000D03*
D14*
G04 #@! TO.N,servos_ON*
G04 #@! TO.C,R3*
G36*
X65410779Y-37156144D02*
X65433834Y-37159563D01*
X65456443Y-37165227D01*
X65478387Y-37173079D01*
X65499457Y-37183044D01*
X65519448Y-37195026D01*
X65538168Y-37208910D01*
X65555438Y-37224562D01*
X65571090Y-37241832D01*
X65584974Y-37260552D01*
X65596956Y-37280543D01*
X65606921Y-37301613D01*
X65614773Y-37323557D01*
X65620437Y-37346166D01*
X65623856Y-37369221D01*
X65625000Y-37392500D01*
X65625000Y-37867500D01*
X65623856Y-37890779D01*
X65620437Y-37913834D01*
X65614773Y-37936443D01*
X65606921Y-37958387D01*
X65596956Y-37979457D01*
X65584974Y-37999448D01*
X65571090Y-38018168D01*
X65555438Y-38035438D01*
X65538168Y-38051090D01*
X65519448Y-38064974D01*
X65499457Y-38076956D01*
X65478387Y-38086921D01*
X65456443Y-38094773D01*
X65433834Y-38100437D01*
X65410779Y-38103856D01*
X65387500Y-38105000D01*
X64812500Y-38105000D01*
X64789221Y-38103856D01*
X64766166Y-38100437D01*
X64743557Y-38094773D01*
X64721613Y-38086921D01*
X64700543Y-38076956D01*
X64680552Y-38064974D01*
X64661832Y-38051090D01*
X64644562Y-38035438D01*
X64628910Y-38018168D01*
X64615026Y-37999448D01*
X64603044Y-37979457D01*
X64593079Y-37958387D01*
X64585227Y-37936443D01*
X64579563Y-37913834D01*
X64576144Y-37890779D01*
X64575000Y-37867500D01*
X64575000Y-37392500D01*
X64576144Y-37369221D01*
X64579563Y-37346166D01*
X64585227Y-37323557D01*
X64593079Y-37301613D01*
X64603044Y-37280543D01*
X64615026Y-37260552D01*
X64628910Y-37241832D01*
X64644562Y-37224562D01*
X64661832Y-37208910D01*
X64680552Y-37195026D01*
X64700543Y-37183044D01*
X64721613Y-37173079D01*
X64743557Y-37165227D01*
X64766166Y-37159563D01*
X64789221Y-37156144D01*
X64812500Y-37155000D01*
X65387500Y-37155000D01*
X65410779Y-37156144D01*
X65410779Y-37156144D01*
G37*
D15*
G04 #@! TD*
G04 #@! TO.P,R3,1*
G04 #@! TO.N,servos_ON*
X65100000Y-37630000D03*
D14*
G04 #@! TO.N,GND*
G04 #@! TO.C,R3*
G36*
X63660779Y-37156144D02*
X63683834Y-37159563D01*
X63706443Y-37165227D01*
X63728387Y-37173079D01*
X63749457Y-37183044D01*
X63769448Y-37195026D01*
X63788168Y-37208910D01*
X63805438Y-37224562D01*
X63821090Y-37241832D01*
X63834974Y-37260552D01*
X63846956Y-37280543D01*
X63856921Y-37301613D01*
X63864773Y-37323557D01*
X63870437Y-37346166D01*
X63873856Y-37369221D01*
X63875000Y-37392500D01*
X63875000Y-37867500D01*
X63873856Y-37890779D01*
X63870437Y-37913834D01*
X63864773Y-37936443D01*
X63856921Y-37958387D01*
X63846956Y-37979457D01*
X63834974Y-37999448D01*
X63821090Y-38018168D01*
X63805438Y-38035438D01*
X63788168Y-38051090D01*
X63769448Y-38064974D01*
X63749457Y-38076956D01*
X63728387Y-38086921D01*
X63706443Y-38094773D01*
X63683834Y-38100437D01*
X63660779Y-38103856D01*
X63637500Y-38105000D01*
X63062500Y-38105000D01*
X63039221Y-38103856D01*
X63016166Y-38100437D01*
X62993557Y-38094773D01*
X62971613Y-38086921D01*
X62950543Y-38076956D01*
X62930552Y-38064974D01*
X62911832Y-38051090D01*
X62894562Y-38035438D01*
X62878910Y-38018168D01*
X62865026Y-37999448D01*
X62853044Y-37979457D01*
X62843079Y-37958387D01*
X62835227Y-37936443D01*
X62829563Y-37913834D01*
X62826144Y-37890779D01*
X62825000Y-37867500D01*
X62825000Y-37392500D01*
X62826144Y-37369221D01*
X62829563Y-37346166D01*
X62835227Y-37323557D01*
X62843079Y-37301613D01*
X62853044Y-37280543D01*
X62865026Y-37260552D01*
X62878910Y-37241832D01*
X62894562Y-37224562D01*
X62911832Y-37208910D01*
X62930552Y-37195026D01*
X62950543Y-37183044D01*
X62971613Y-37173079D01*
X62993557Y-37165227D01*
X63016166Y-37159563D01*
X63039221Y-37156144D01*
X63062500Y-37155000D01*
X63637500Y-37155000D01*
X63660779Y-37156144D01*
X63660779Y-37156144D01*
G37*
D15*
G04 #@! TD*
G04 #@! TO.P,R3,2*
G04 #@! TO.N,GND*
X63350000Y-37630000D03*
D14*
G04 #@! TO.N,TX*
G04 #@! TO.C,R6*
G36*
X76714779Y-42576144D02*
X76737834Y-42579563D01*
X76760443Y-42585227D01*
X76782387Y-42593079D01*
X76803457Y-42603044D01*
X76823448Y-42615026D01*
X76842168Y-42628910D01*
X76859438Y-42644562D01*
X76875090Y-42661832D01*
X76888974Y-42680552D01*
X76900956Y-42700543D01*
X76910921Y-42721613D01*
X76918773Y-42743557D01*
X76924437Y-42766166D01*
X76927856Y-42789221D01*
X76929000Y-42812500D01*
X76929000Y-43387500D01*
X76927856Y-43410779D01*
X76924437Y-43433834D01*
X76918773Y-43456443D01*
X76910921Y-43478387D01*
X76900956Y-43499457D01*
X76888974Y-43519448D01*
X76875090Y-43538168D01*
X76859438Y-43555438D01*
X76842168Y-43571090D01*
X76823448Y-43584974D01*
X76803457Y-43596956D01*
X76782387Y-43606921D01*
X76760443Y-43614773D01*
X76737834Y-43620437D01*
X76714779Y-43623856D01*
X76691500Y-43625000D01*
X76216500Y-43625000D01*
X76193221Y-43623856D01*
X76170166Y-43620437D01*
X76147557Y-43614773D01*
X76125613Y-43606921D01*
X76104543Y-43596956D01*
X76084552Y-43584974D01*
X76065832Y-43571090D01*
X76048562Y-43555438D01*
X76032910Y-43538168D01*
X76019026Y-43519448D01*
X76007044Y-43499457D01*
X75997079Y-43478387D01*
X75989227Y-43456443D01*
X75983563Y-43433834D01*
X75980144Y-43410779D01*
X75979000Y-43387500D01*
X75979000Y-42812500D01*
X75980144Y-42789221D01*
X75983563Y-42766166D01*
X75989227Y-42743557D01*
X75997079Y-42721613D01*
X76007044Y-42700543D01*
X76019026Y-42680552D01*
X76032910Y-42661832D01*
X76048562Y-42644562D01*
X76065832Y-42628910D01*
X76084552Y-42615026D01*
X76104543Y-42603044D01*
X76125613Y-42593079D01*
X76147557Y-42585227D01*
X76170166Y-42579563D01*
X76193221Y-42576144D01*
X76216500Y-42575000D01*
X76691500Y-42575000D01*
X76714779Y-42576144D01*
X76714779Y-42576144D01*
G37*
D15*
G04 #@! TD*
G04 #@! TO.P,R6,2*
G04 #@! TO.N,TX*
X76454000Y-43100000D03*
D14*
G04 #@! TO.N,Net-(J19-Pad4)*
G04 #@! TO.C,R6*
G36*
X76714779Y-40826144D02*
X76737834Y-40829563D01*
X76760443Y-40835227D01*
X76782387Y-40843079D01*
X76803457Y-40853044D01*
X76823448Y-40865026D01*
X76842168Y-40878910D01*
X76859438Y-40894562D01*
X76875090Y-40911832D01*
X76888974Y-40930552D01*
X76900956Y-40950543D01*
X76910921Y-40971613D01*
X76918773Y-40993557D01*
X76924437Y-41016166D01*
X76927856Y-41039221D01*
X76929000Y-41062500D01*
X76929000Y-41637500D01*
X76927856Y-41660779D01*
X76924437Y-41683834D01*
X76918773Y-41706443D01*
X76910921Y-41728387D01*
X76900956Y-41749457D01*
X76888974Y-41769448D01*
X76875090Y-41788168D01*
X76859438Y-41805438D01*
X76842168Y-41821090D01*
X76823448Y-41834974D01*
X76803457Y-41846956D01*
X76782387Y-41856921D01*
X76760443Y-41864773D01*
X76737834Y-41870437D01*
X76714779Y-41873856D01*
X76691500Y-41875000D01*
X76216500Y-41875000D01*
X76193221Y-41873856D01*
X76170166Y-41870437D01*
X76147557Y-41864773D01*
X76125613Y-41856921D01*
X76104543Y-41846956D01*
X76084552Y-41834974D01*
X76065832Y-41821090D01*
X76048562Y-41805438D01*
X76032910Y-41788168D01*
X76019026Y-41769448D01*
X76007044Y-41749457D01*
X75997079Y-41728387D01*
X75989227Y-41706443D01*
X75983563Y-41683834D01*
X75980144Y-41660779D01*
X75979000Y-41637500D01*
X75979000Y-41062500D01*
X75980144Y-41039221D01*
X75983563Y-41016166D01*
X75989227Y-40993557D01*
X75997079Y-40971613D01*
X76007044Y-40950543D01*
X76019026Y-40930552D01*
X76032910Y-40911832D01*
X76048562Y-40894562D01*
X76065832Y-40878910D01*
X76084552Y-40865026D01*
X76104543Y-40853044D01*
X76125613Y-40843079D01*
X76147557Y-40835227D01*
X76170166Y-40829563D01*
X76193221Y-40826144D01*
X76216500Y-40825000D01*
X76691500Y-40825000D01*
X76714779Y-40826144D01*
X76714779Y-40826144D01*
G37*
D15*
G04 #@! TD*
G04 #@! TO.P,R6,1*
G04 #@! TO.N,Net-(J19-Pad4)*
X76454000Y-41350000D03*
D14*
G04 #@! TO.N,GND*
G04 #@! TO.C,R7*
G36*
X78492779Y-42628144D02*
X78515834Y-42631563D01*
X78538443Y-42637227D01*
X78560387Y-42645079D01*
X78581457Y-42655044D01*
X78601448Y-42667026D01*
X78620168Y-42680910D01*
X78637438Y-42696562D01*
X78653090Y-42713832D01*
X78666974Y-42732552D01*
X78678956Y-42752543D01*
X78688921Y-42773613D01*
X78696773Y-42795557D01*
X78702437Y-42818166D01*
X78705856Y-42841221D01*
X78707000Y-42864500D01*
X78707000Y-43439500D01*
X78705856Y-43462779D01*
X78702437Y-43485834D01*
X78696773Y-43508443D01*
X78688921Y-43530387D01*
X78678956Y-43551457D01*
X78666974Y-43571448D01*
X78653090Y-43590168D01*
X78637438Y-43607438D01*
X78620168Y-43623090D01*
X78601448Y-43636974D01*
X78581457Y-43648956D01*
X78560387Y-43658921D01*
X78538443Y-43666773D01*
X78515834Y-43672437D01*
X78492779Y-43675856D01*
X78469500Y-43677000D01*
X77994500Y-43677000D01*
X77971221Y-43675856D01*
X77948166Y-43672437D01*
X77925557Y-43666773D01*
X77903613Y-43658921D01*
X77882543Y-43648956D01*
X77862552Y-43636974D01*
X77843832Y-43623090D01*
X77826562Y-43607438D01*
X77810910Y-43590168D01*
X77797026Y-43571448D01*
X77785044Y-43551457D01*
X77775079Y-43530387D01*
X77767227Y-43508443D01*
X77761563Y-43485834D01*
X77758144Y-43462779D01*
X77757000Y-43439500D01*
X77757000Y-42864500D01*
X77758144Y-42841221D01*
X77761563Y-42818166D01*
X77767227Y-42795557D01*
X77775079Y-42773613D01*
X77785044Y-42752543D01*
X77797026Y-42732552D01*
X77810910Y-42713832D01*
X77826562Y-42696562D01*
X77843832Y-42680910D01*
X77862552Y-42667026D01*
X77882543Y-42655044D01*
X77903613Y-42645079D01*
X77925557Y-42637227D01*
X77948166Y-42631563D01*
X77971221Y-42628144D01*
X77994500Y-42627000D01*
X78469500Y-42627000D01*
X78492779Y-42628144D01*
X78492779Y-42628144D01*
G37*
D15*
G04 #@! TD*
G04 #@! TO.P,R7,2*
G04 #@! TO.N,GND*
X78232000Y-43152000D03*
D14*
G04 #@! TO.N,Net-(J19-Pad4)*
G04 #@! TO.C,R7*
G36*
X78492779Y-40878144D02*
X78515834Y-40881563D01*
X78538443Y-40887227D01*
X78560387Y-40895079D01*
X78581457Y-40905044D01*
X78601448Y-40917026D01*
X78620168Y-40930910D01*
X78637438Y-40946562D01*
X78653090Y-40963832D01*
X78666974Y-40982552D01*
X78678956Y-41002543D01*
X78688921Y-41023613D01*
X78696773Y-41045557D01*
X78702437Y-41068166D01*
X78705856Y-41091221D01*
X78707000Y-41114500D01*
X78707000Y-41689500D01*
X78705856Y-41712779D01*
X78702437Y-41735834D01*
X78696773Y-41758443D01*
X78688921Y-41780387D01*
X78678956Y-41801457D01*
X78666974Y-41821448D01*
X78653090Y-41840168D01*
X78637438Y-41857438D01*
X78620168Y-41873090D01*
X78601448Y-41886974D01*
X78581457Y-41898956D01*
X78560387Y-41908921D01*
X78538443Y-41916773D01*
X78515834Y-41922437D01*
X78492779Y-41925856D01*
X78469500Y-41927000D01*
X77994500Y-41927000D01*
X77971221Y-41925856D01*
X77948166Y-41922437D01*
X77925557Y-41916773D01*
X77903613Y-41908921D01*
X77882543Y-41898956D01*
X77862552Y-41886974D01*
X77843832Y-41873090D01*
X77826562Y-41857438D01*
X77810910Y-41840168D01*
X77797026Y-41821448D01*
X77785044Y-41801457D01*
X77775079Y-41780387D01*
X77767227Y-41758443D01*
X77761563Y-41735834D01*
X77758144Y-41712779D01*
X77757000Y-41689500D01*
X77757000Y-41114500D01*
X77758144Y-41091221D01*
X77761563Y-41068166D01*
X77767227Y-41045557D01*
X77775079Y-41023613D01*
X77785044Y-41002543D01*
X77797026Y-40982552D01*
X77810910Y-40963832D01*
X77826562Y-40946562D01*
X77843832Y-40930910D01*
X77862552Y-40917026D01*
X77882543Y-40905044D01*
X77903613Y-40895079D01*
X77925557Y-40887227D01*
X77948166Y-40881563D01*
X77971221Y-40878144D01*
X77994500Y-40877000D01*
X78469500Y-40877000D01*
X78492779Y-40878144D01*
X78492779Y-40878144D01*
G37*
D15*
G04 #@! TD*
G04 #@! TO.P,R7,1*
G04 #@! TO.N,Net-(J19-Pad4)*
X78232000Y-41402000D03*
D18*
G04 #@! TO.P,U2,1*
G04 #@! TO.N,+5V*
X64630000Y-54400000D03*
D19*
G04 #@! TO.P,U2,15*
G04 #@! TO.N,SDA*
X97650000Y-46780000D03*
G04 #@! TO.P,U2,2*
G04 #@! TO.N,SERVO0*
X67170000Y-54400000D03*
G04 #@! TO.P,U2,16*
G04 #@! TO.N,SERVO9*
X95110000Y-46780000D03*
G04 #@! TO.P,U2,3*
G04 #@! TO.N,SERVO1*
X69710000Y-54400000D03*
G04 #@! TO.P,U2,17*
G04 #@! TO.N,SERVO10*
X92570000Y-46780000D03*
G04 #@! TO.P,U2,4*
G04 #@! TO.N,SERVO2*
X72250000Y-54400000D03*
G04 #@! TO.P,U2,18*
G04 #@! TO.N,SERVO11*
X90030000Y-46780000D03*
G04 #@! TO.P,U2,5*
G04 #@! TO.N,SERVO3*
X74790000Y-54400000D03*
G04 #@! TO.P,U2,19*
G04 #@! TO.N,GND*
X87490000Y-46780000D03*
G04 #@! TO.P,U2,6*
G04 #@! TO.N,SERVO4*
X77330000Y-54400000D03*
G04 #@! TO.P,U2,20*
G04 #@! TO.N,+5V*
X84950000Y-46780000D03*
G04 #@! TO.P,U2,7*
G04 #@! TO.N,SERVO5*
X79870000Y-54400000D03*
G04 #@! TO.P,U2,21*
G04 #@! TO.N,SERVO12*
X82410000Y-46780000D03*
G04 #@! TO.P,U2,8*
G04 #@! TO.N,GND*
X82410000Y-54400000D03*
G04 #@! TO.P,U2,22*
G04 #@! TO.N,SERVO13*
X79870000Y-46780000D03*
G04 #@! TO.P,U2,9*
G04 #@! TO.N,Net-(U2-Pad9)*
X84950000Y-54400000D03*
G04 #@! TO.P,U2,23*
G04 #@! TO.N,SERVO14*
X77330000Y-46780000D03*
G04 #@! TO.P,U2,10*
G04 #@! TO.N,Net-(U2-Pad10)*
X87490000Y-54400000D03*
G04 #@! TO.P,U2,24*
G04 #@! TO.N,SERVO15*
X74790000Y-46780000D03*
G04 #@! TO.P,U2,11*
G04 #@! TO.N,SERVO6*
X90030000Y-54400000D03*
G04 #@! TO.P,U2,25*
G04 #@! TO.N,SERVO16*
X72250000Y-46780000D03*
G04 #@! TO.P,U2,12*
G04 #@! TO.N,SERVO7*
X92570000Y-54400000D03*
G04 #@! TO.P,U2,26*
G04 #@! TO.N,SERVO17*
X69710000Y-46780000D03*
G04 #@! TO.P,U2,13*
G04 #@! TO.N,SERVO8*
X95110000Y-54400000D03*
G04 #@! TO.P,U2,27*
G04 #@! TO.N,SERVO18*
X67170000Y-46780000D03*
G04 #@! TO.P,U2,14*
G04 #@! TO.N,SCL*
X97650000Y-54400000D03*
G04 #@! TO.P,U2,28*
G04 #@! TO.N,SERVO19*
X64630000Y-46780000D03*
G04 #@! TD*
D20*
G04 #@! TO.P,Y1,1*
G04 #@! TO.N,Net-(U2-Pad9)*
X78570000Y-58990000D03*
G04 #@! TO.P,Y1,2*
G04 #@! TO.N,GND*
X81070000Y-58990000D03*
G04 #@! TO.P,Y1,3*
G04 #@! TO.N,Net-(U2-Pad10)*
X83570000Y-58990000D03*
G04 #@! TD*
D21*
G04 #@! TO.P,Y2,1*
G04 #@! TO.N,Net-(C3-Pad2)*
X85140000Y-39400000D03*
G04 #@! TO.P,Y2,2*
G04 #@! TO.N,Net-(C4-Pad2)*
X80260000Y-39400000D03*
G04 #@! TD*
D11*
G04 #@! TO.P,J2,1*
G04 #@! TO.N,V_LIPO*
X53010000Y-30840000D03*
D10*
G04 #@! TO.P,J2,2*
G04 #@! TO.N,GND*
X53010000Y-33380000D03*
G04 #@! TO.P,J2,3*
G04 #@! TO.N,+5V*
X53010000Y-35920000D03*
G04 #@! TD*
D11*
G04 #@! TO.P,J3,1*
G04 #@! TO.N,+6V*
X55860000Y-40280000D03*
D10*
G04 #@! TO.P,J3,2*
G04 #@! TO.N,GND*
X58400000Y-40280000D03*
G04 #@! TD*
D22*
G04 #@! TO.N,GND*
X83780000Y-52099990D03*
X83608362Y-53599990D03*
G04 #@! TO.N,+5V*
X86830000Y-38360000D03*
X80610000Y-37370000D03*
X70356581Y-38766581D03*
X69280919Y-37720919D03*
G04 #@! TO.N,ADC1*
X94529995Y-39849972D03*
X100037621Y-34781676D03*
G04 #@! TO.N,ADC2*
X93529992Y-39849972D03*
X99905372Y-33790457D03*
G04 #@! TO.N,ADC3*
X99609929Y-32835095D03*
X92530221Y-39828502D03*
G04 #@! TO.N,RX*
X88838837Y-48518183D03*
X89510000Y-44940000D03*
G04 #@! TO.N,eyes_BLUE*
X93093252Y-35555612D03*
G04 #@! TO.N,eyes_GREEN*
X90601265Y-35770000D03*
G04 #@! TO.N,eyes_RED*
X89804998Y-34370000D03*
G04 #@! TO.N,SERVO19*
X104895332Y-41994668D03*
X103384670Y-42605330D03*
G04 #@! TO.N,servos_ON*
X92080000Y-35770000D03*
G04 #@! TO.N,LVL_LIPO*
X56270000Y-32390000D03*
X56190000Y-34460000D03*
X95529998Y-39849972D03*
X100190000Y-35770000D03*
G04 #@! TD*
D23*
G04 #@! TO.N,GND*
X83780000Y-52099990D02*
X83780000Y-53428352D01*
X83780000Y-53428352D02*
X83608362Y-53599990D01*
D24*
X89730000Y-38220000D02*
X90530000Y-39020000D01*
X88430000Y-38220000D02*
X89730000Y-38220000D01*
X89804999Y-39745001D02*
X90530000Y-39020000D01*
X89234999Y-39745001D02*
X89804999Y-39745001D01*
X89160000Y-39820000D02*
X89234999Y-39745001D01*
X88430000Y-39820000D02*
X89160000Y-39820000D01*
X101360000Y-39020000D02*
X101460000Y-39120000D01*
X96930000Y-39020000D02*
X101360000Y-39020000D01*
X87100000Y-40039962D02*
X87319962Y-39820000D01*
X87319962Y-39820000D02*
X88430000Y-39820000D01*
X87100000Y-44690000D02*
X87100000Y-40039962D01*
X87490000Y-45080000D02*
X87100000Y-44690000D01*
X87490000Y-46780000D02*
X87490000Y-45080000D01*
D23*
X81815000Y-43150000D02*
X81870000Y-43205000D01*
X80130000Y-43150000D02*
X81815000Y-43150000D01*
X83780000Y-47636359D02*
X84713641Y-48570000D01*
X83780000Y-44540000D02*
X83780000Y-47636359D01*
X81870000Y-43205000D02*
X82445000Y-43205000D01*
X82445000Y-43205000D02*
X83780000Y-44540000D01*
X87490000Y-47180000D02*
X87490000Y-46780000D01*
X86100000Y-48570000D02*
X87490000Y-47180000D01*
X84713641Y-48570000D02*
X86100000Y-48570000D01*
X80128000Y-43152000D02*
X80130000Y-43150000D01*
X78232000Y-43152000D02*
X80128000Y-43152000D01*
X78731072Y-42652928D02*
X78232000Y-43152000D01*
X79057010Y-42326990D02*
X78731072Y-42652928D01*
X79057010Y-35617010D02*
X79057010Y-42326990D01*
X77990000Y-34550000D02*
X79057010Y-35617010D01*
X63240000Y-37740000D02*
X63350000Y-37630000D01*
X63240000Y-39790000D02*
X63240000Y-37740000D01*
D24*
X96855001Y-38945001D02*
X96930000Y-39020000D01*
X90604999Y-38945001D02*
X96855001Y-38945001D01*
X90530000Y-39020000D02*
X90604999Y-38945001D01*
D25*
G04 #@! TO.N,+5V*
X109080000Y-41005000D02*
X109080000Y-39120000D01*
X108525000Y-41560000D02*
X109080000Y-41005000D01*
X108665000Y-38705000D02*
X109080000Y-39120000D01*
X108665000Y-36800000D02*
X108665000Y-38705000D01*
D24*
X107779999Y-35800001D02*
X109080000Y-34500000D01*
X106119999Y-35800001D02*
X107779999Y-35800001D01*
X105300000Y-36620000D02*
X106119999Y-35800001D01*
X89515002Y-37420000D02*
X88430000Y-37420000D01*
X90315002Y-36620000D02*
X89515002Y-37420000D01*
X96930000Y-36620000D02*
X90315002Y-36620000D01*
X87510000Y-37420000D02*
X88430000Y-37420000D01*
X87344998Y-39020000D02*
X87179999Y-38855001D01*
X87179999Y-37750001D02*
X87510000Y-37420000D01*
X87179999Y-38855001D02*
X87179999Y-37750001D01*
X88430000Y-39020000D02*
X87344998Y-39020000D01*
X84950000Y-46380000D02*
X84950000Y-46780000D01*
X86340001Y-44989999D02*
X84950000Y-46380000D01*
X86340001Y-39809999D02*
X86340001Y-44989999D01*
X87130000Y-39020000D02*
X86340001Y-39809999D01*
X88430000Y-39020000D02*
X87130000Y-39020000D01*
D23*
X75020001Y-30809999D02*
X74220000Y-31610000D01*
X78566001Y-30809999D02*
X75020001Y-30809999D01*
X79190001Y-31433999D02*
X78566001Y-30809999D01*
X74220000Y-31610000D02*
X73070000Y-31610000D01*
X79190001Y-35042881D02*
X79190001Y-31433999D01*
X79897121Y-35750001D02*
X79190001Y-35042881D01*
X81869999Y-35750001D02*
X79897121Y-35750001D01*
X83070000Y-34550000D02*
X81869999Y-35750001D01*
X101154072Y-37100928D02*
X101154072Y-36805928D01*
X101154072Y-36805928D02*
X101340000Y-36620000D01*
X100655000Y-37600000D02*
X101154072Y-37100928D01*
D24*
X96930000Y-36620000D02*
X101340000Y-36620000D01*
X101340000Y-36620000D02*
X105300000Y-36620000D01*
X87130000Y-38660000D02*
X86830000Y-38360000D01*
X87130000Y-39020000D02*
X87130000Y-38660000D01*
X80610000Y-37010000D02*
X83070000Y-34550000D01*
X80610000Y-37370000D02*
X80610000Y-37010000D01*
D23*
X70356581Y-38766581D02*
X70326581Y-38766581D01*
X70326581Y-38766581D02*
X69280919Y-37720919D01*
G04 #@! TO.N,Net-(C2-Pad1)*
X98285000Y-38220000D02*
X96930000Y-38220000D01*
X98905000Y-37600000D02*
X98285000Y-38220000D01*
G04 #@! TO.N,Net-(C3-Pad2)*
X83085000Y-41455000D02*
X85140000Y-39400000D01*
X81870000Y-41455000D02*
X83085000Y-41455000D01*
X85889999Y-38060001D02*
X87330000Y-36620000D01*
X87330000Y-36620000D02*
X88430000Y-36620000D01*
X85889999Y-38650001D02*
X85889999Y-38060001D01*
X85140000Y-39400000D02*
X85889999Y-38650001D01*
G04 #@! TO.N,Net-(C4-Pad2)*
X80130000Y-39530000D02*
X80260000Y-39400000D01*
X80130000Y-41400000D02*
X80130000Y-39530000D01*
X83840000Y-35820000D02*
X80260000Y-39400000D01*
X88430000Y-35820000D02*
X83840000Y-35820000D01*
G04 #@! TO.N,MISO*
X84220000Y-32010000D02*
X84690000Y-32480000D01*
X83070000Y-32010000D02*
X84220000Y-32010000D01*
X95480000Y-33270000D02*
X95480000Y-34370000D01*
X94690000Y-32480000D02*
X95480000Y-33270000D01*
X84690000Y-32480000D02*
X94690000Y-32480000D01*
G04 #@! TO.N,SCK*
X96930000Y-34012880D02*
X96930000Y-35820000D01*
X81730001Y-30809999D02*
X84200001Y-30809999D01*
X80530000Y-32010000D02*
X81730001Y-30809999D01*
X84200001Y-30809999D02*
X84850000Y-31459998D01*
X84850000Y-31459998D02*
X84850000Y-31932880D01*
X84850000Y-31932880D02*
X94850000Y-31932880D01*
X94850000Y-31932880D02*
X96930000Y-34012880D01*
G04 #@! TO.N,MOSI*
X85030001Y-33349999D02*
X85300000Y-33080000D01*
X80530000Y-34550000D02*
X81730001Y-33349999D01*
X81730001Y-33349999D02*
X85030001Y-33349999D01*
X94680000Y-33270000D02*
X94680000Y-34370000D01*
X94490000Y-33080000D02*
X94680000Y-33270000D01*
X85300000Y-33080000D02*
X94490000Y-33080000D01*
G04 #@! TO.N,RST*
X74649999Y-35350001D02*
X77140001Y-32859999D01*
X72633997Y-35350001D02*
X74649999Y-35350001D01*
X75940010Y-44770010D02*
X71369989Y-40199989D01*
X71369989Y-40199989D02*
X71369989Y-36614009D01*
X92280000Y-42870000D02*
X92280000Y-45043641D01*
X75940010Y-47656349D02*
X75940010Y-44770010D01*
X92280000Y-45043641D02*
X91290000Y-46033641D01*
X91290000Y-47546359D02*
X88766329Y-50070030D01*
X71369989Y-36614009D02*
X72633997Y-35350001D01*
X91290000Y-46033641D02*
X91290000Y-47546359D01*
X78353691Y-50070030D02*
X75940010Y-47656349D01*
X77140001Y-32859999D02*
X77990000Y-32010000D01*
X88766329Y-50070030D02*
X78353691Y-50070030D01*
D26*
G04 #@! TO.N,servos_GND*
X54597743Y-43131953D02*
X54097741Y-43631955D01*
X62485547Y-43131953D02*
X54597743Y-43131953D01*
X65780000Y-39837500D02*
X62485547Y-43131953D01*
X54097741Y-43631955D02*
X53247742Y-44481954D01*
X65780000Y-39790000D02*
X65780000Y-39837500D01*
D23*
G04 #@! TO.N,ADC1*
X94529995Y-40119995D02*
X94529995Y-39849972D01*
X96930000Y-41420000D02*
X95830000Y-41420000D01*
X95830000Y-41420000D02*
X94529995Y-40119995D01*
X62860001Y-34220001D02*
X59120000Y-30480000D01*
X96920001Y-28659999D02*
X87450001Y-28659999D01*
X97930020Y-29670018D02*
X96920001Y-28659999D01*
X97930020Y-34352900D02*
X97930020Y-29670018D01*
X98758795Y-35181675D02*
X97930020Y-34352900D01*
X71942878Y-29700000D02*
X70940000Y-30702878D01*
X99637622Y-35181675D02*
X98758795Y-35181675D01*
X100037621Y-34781676D02*
X99637622Y-35181675D01*
X64470001Y-34220001D02*
X62860001Y-34220001D01*
X86310000Y-29800000D02*
X79120000Y-29800000D01*
X79020000Y-29700000D02*
X71942878Y-29700000D01*
X87450001Y-28659999D02*
X86310000Y-29800000D01*
X64650000Y-34400000D02*
X64470001Y-34220001D01*
X70940000Y-30702878D02*
X70940000Y-32656002D01*
X79120000Y-29800000D02*
X79020000Y-29700000D01*
X69196002Y-34400000D02*
X64650000Y-34400000D01*
X70940000Y-32656002D02*
X69196002Y-34400000D01*
G04 #@! TO.N,ADC2*
X93529992Y-39959971D02*
X93529992Y-39849972D01*
X95480000Y-42870000D02*
X95480000Y-41909979D01*
X95480000Y-41909979D02*
X93529992Y-39959971D01*
X99905372Y-33790457D02*
X99050000Y-34645829D01*
X98930069Y-34645829D02*
X98430030Y-34145790D01*
X99050000Y-34645829D02*
X98930069Y-34645829D01*
X98430030Y-29462908D02*
X97087122Y-28120000D01*
X98430030Y-34145790D02*
X98430030Y-29462908D01*
X87282880Y-28120000D02*
X86452880Y-28950000D01*
X97087122Y-28120000D02*
X87282880Y-28120000D01*
X86452880Y-28950000D02*
X76090000Y-28950000D01*
X75840010Y-29199990D02*
X71720010Y-29199990D01*
X76090000Y-28950000D02*
X75840010Y-29199990D01*
X69960001Y-31650001D02*
X69890001Y-31720001D01*
X71720010Y-29199990D02*
X69960001Y-30959999D01*
X69960001Y-30959999D02*
X69960001Y-31650001D01*
X65140000Y-30480000D02*
X63990000Y-30480000D01*
X66380001Y-31720001D02*
X65140000Y-30480000D01*
X69890001Y-31720001D02*
X66380001Y-31720001D01*
G04 #@! TO.N,ADC3*
X68760000Y-29370000D02*
X69790000Y-28340000D01*
X68760000Y-30520000D02*
X68760000Y-29370000D01*
X69790000Y-28340000D02*
X70530000Y-27600000D01*
X99609929Y-29935687D02*
X99609929Y-32835095D01*
X70530000Y-27600000D02*
X97274242Y-27600000D01*
X97274242Y-27600000D02*
X99609929Y-29935687D01*
X92530221Y-40394187D02*
X92786034Y-40650000D01*
X92530221Y-39828502D02*
X92530221Y-40394187D01*
X94680000Y-41964998D02*
X94680000Y-42870000D01*
X93365002Y-40650000D02*
X94680000Y-41964998D01*
X92786034Y-40650000D02*
X93365002Y-40650000D01*
G04 #@! TO.N,Net-(J19-Pad4)*
X78180000Y-41350000D02*
X78232000Y-41402000D01*
X76454000Y-41350000D02*
X78180000Y-41350000D01*
X75190000Y-41350000D02*
X73070000Y-39230000D01*
X76454000Y-41350000D02*
X75190000Y-41350000D01*
G04 #@! TO.N,RX*
X71869999Y-39871865D02*
X77210134Y-45212000D01*
X78719990Y-46143631D02*
X78719990Y-47731990D01*
X71869999Y-37890001D02*
X71869999Y-39871865D01*
X87787000Y-49570020D02*
X88838837Y-48518183D01*
X80558020Y-49570020D02*
X87787000Y-49570020D01*
X78719990Y-47731990D02*
X80558020Y-49570020D01*
X77210134Y-45212000D02*
X77788359Y-45212000D01*
X77788359Y-45212000D02*
X78719990Y-46143631D01*
X73070000Y-36690000D02*
X71869999Y-37890001D01*
X91480000Y-43970000D02*
X91480000Y-42870000D01*
X90510000Y-44940000D02*
X91480000Y-43970000D01*
X89510000Y-44940000D02*
X90510000Y-44940000D01*
G04 #@! TO.N,eyes_BLUE*
X93093252Y-34383252D02*
X93080000Y-34370000D01*
X93093252Y-35555612D02*
X93093252Y-34383252D01*
G04 #@! TO.N,eyes_GREEN*
X90680000Y-34370000D02*
X90680000Y-35691265D01*
X90680000Y-35691265D02*
X90601265Y-35770000D01*
G04 #@! TO.N,eyes_RED*
X89880000Y-34370000D02*
X89804998Y-34370000D01*
G04 #@! TO.N,SERVO19*
X104895332Y-41994668D02*
X103995332Y-41994668D01*
X103995332Y-41994668D02*
X103384670Y-42605330D01*
D25*
G04 #@! TO.N,SCL*
X104335000Y-39120000D02*
X104000000Y-39120000D01*
X106775000Y-41560000D02*
X104335000Y-39120000D01*
D23*
X104000000Y-40879998D02*
X98890000Y-45989998D01*
X104000000Y-39120000D02*
X104000000Y-40879998D01*
X98890000Y-51660000D02*
X97650000Y-52900000D01*
X97650000Y-52900000D02*
X97650000Y-54400000D01*
X98890000Y-45989998D02*
X98890000Y-51660000D01*
X97650000Y-54400000D02*
X97650000Y-51340000D01*
X93720010Y-47440010D02*
X93720010Y-45300010D01*
X97650000Y-51340000D02*
X97620000Y-51340000D01*
X97620000Y-51340000D02*
X93720010Y-47440010D01*
X93080000Y-44660000D02*
X93080000Y-42870000D01*
X93720010Y-45300010D02*
X93080000Y-44660000D01*
D25*
G04 #@! TO.N,SDA*
X106540000Y-37175000D02*
X106915000Y-36800000D01*
X106540000Y-39120000D02*
X106540000Y-37175000D01*
D23*
X103423999Y-37919999D02*
X102660001Y-38683997D01*
X106540000Y-39120000D02*
X105339999Y-37919999D01*
X105339999Y-37919999D02*
X103423999Y-37919999D01*
X102660001Y-41369999D02*
X97650000Y-46380000D01*
X97650000Y-46380000D02*
X97650000Y-46780000D01*
X102660001Y-38683997D02*
X102660001Y-41369999D01*
X97650000Y-46380000D02*
X96450000Y-45180000D01*
X96450000Y-45180000D02*
X94400000Y-45180000D01*
X93880000Y-44660000D02*
X93880000Y-42870000D01*
X94400000Y-45180000D02*
X93880000Y-44660000D01*
G04 #@! TO.N,servos_ON*
X66706572Y-38129072D02*
X68320000Y-39742500D01*
X65599072Y-38129072D02*
X66706572Y-38129072D01*
X68320000Y-39742500D02*
X68320000Y-39790000D01*
X65100000Y-37630000D02*
X65599072Y-38129072D01*
X92280000Y-34370000D02*
X92280000Y-35570000D01*
X92280000Y-35570000D02*
X92080000Y-35770000D01*
G04 #@! TO.N,TX*
X81020010Y-47416369D02*
X81020010Y-45903651D01*
X82673651Y-49070010D02*
X81020010Y-47416369D01*
X87966349Y-48330010D02*
X87047110Y-48330010D01*
X77804000Y-44450000D02*
X76454000Y-43100000D01*
X79566359Y-44450000D02*
X77804000Y-44450000D01*
X87047110Y-48330010D02*
X86307110Y-49070010D01*
X90680000Y-43970000D02*
X90485002Y-43970000D01*
X86307110Y-49070010D02*
X82673651Y-49070010D01*
X90680000Y-42870000D02*
X90680000Y-43970000D01*
X89280001Y-44020001D02*
X88640010Y-44659992D01*
X88640010Y-44659992D02*
X88640010Y-47656349D01*
X81020010Y-45903651D02*
X79566359Y-44450000D01*
X90485002Y-43970000D02*
X90435001Y-44020001D01*
X88640010Y-47656349D02*
X87966349Y-48330010D01*
X90435001Y-44020001D02*
X89280001Y-44020001D01*
G04 #@! TO.N,LVL_LIPO*
X56190000Y-32470000D02*
X56270000Y-32390000D01*
X56190000Y-34460000D02*
X56190000Y-32470000D01*
X95529998Y-40319998D02*
X95529998Y-39849972D01*
X96930000Y-40620000D02*
X95830000Y-40620000D01*
X95830000Y-40620000D02*
X95529998Y-40319998D01*
X58530001Y-36800001D02*
X56689072Y-34959072D01*
X70269997Y-36800001D02*
X58530001Y-36800001D01*
X71869999Y-30479999D02*
X71869999Y-35199999D01*
X99350000Y-35950000D02*
X98765002Y-35950000D01*
X99494315Y-35900000D02*
X99400000Y-35900000D01*
X98765002Y-35950000D02*
X98715002Y-35900000D01*
X99624315Y-35770000D02*
X99494315Y-35900000D01*
X99400000Y-35900000D02*
X99350000Y-35950000D01*
X98715002Y-35900000D02*
X98715002Y-35845002D01*
X97260000Y-33510000D02*
X97134240Y-33510000D01*
X98715002Y-35845002D02*
X97430010Y-34560010D01*
X71869999Y-35199999D02*
X70269997Y-36800001D01*
X97430010Y-34560010D02*
X97430010Y-33680010D01*
X97134240Y-33510000D02*
X95054240Y-31430000D01*
X85527122Y-31430000D02*
X84407111Y-30309989D01*
X97430010Y-33680010D02*
X97260000Y-33510000D01*
X95054240Y-31430000D02*
X85527122Y-31430000D01*
X56689072Y-34959072D02*
X56190000Y-34460000D01*
X100190000Y-35770000D02*
X99624315Y-35770000D01*
X72040009Y-30309989D02*
X71869999Y-30479999D01*
X84407111Y-30309989D02*
X72040009Y-30309989D01*
G04 #@! TD*
M02*
