G04 #@! TF.GenerationSoftware,KiCad,Pcbnew,5.0.1*
G04 #@! TF.CreationDate,2018-12-10T22:32:32+01:00*
G04 #@! TF.ProjectId,tamtam_board,74616D74616D5F626F6172642E6B6963,rev?*
G04 #@! TF.SameCoordinates,Original*
G04 #@! TF.FileFunction,Soldermask,Bot*
G04 #@! TF.FilePolarity,Negative*
%FSLAX46Y46*%
G04 Gerber Fmt 4.6, Leading zero omitted, Abs format (unit mm)*
G04 Created by KiCad (PCBNEW 5.0.1) date dilluns, 10 de desembre de 2018, 22:32:32 CET*
%MOMM*%
%LPD*%
G01*
G04 APERTURE LIST*
%ADD10C,0.100000*%
G04 APERTURE END LIST*
D10*
G36*
X73860527Y-67373557D02*
X73946627Y-67382037D01*
X74059853Y-67416384D01*
X74116467Y-67433557D01*
X74160740Y-67457222D01*
X74272991Y-67517222D01*
X74308729Y-67546552D01*
X74410186Y-67629814D01*
X74473537Y-67707009D01*
X74522778Y-67767009D01*
X74522779Y-67767011D01*
X74606443Y-67923533D01*
X74606443Y-67923534D01*
X74657963Y-68093373D01*
X74675359Y-68270000D01*
X74657963Y-68446627D01*
X74624644Y-68556466D01*
X74606443Y-68616467D01*
X74554850Y-68712989D01*
X74522778Y-68772991D01*
X74493448Y-68808729D01*
X74410186Y-68910186D01*
X74321731Y-68982778D01*
X74272991Y-69022778D01*
X74272989Y-69022779D01*
X74116467Y-69106443D01*
X74101444Y-69111000D01*
X73946627Y-69157963D01*
X73880443Y-69164481D01*
X73814260Y-69171000D01*
X73725740Y-69171000D01*
X73659557Y-69164481D01*
X73593373Y-69157963D01*
X73438556Y-69111000D01*
X73423533Y-69106443D01*
X73267011Y-69022779D01*
X73267009Y-69022778D01*
X73218269Y-68982778D01*
X73129814Y-68910186D01*
X73046552Y-68808729D01*
X73017222Y-68772991D01*
X72985150Y-68712989D01*
X72933557Y-68616467D01*
X72915356Y-68556466D01*
X72882037Y-68446627D01*
X72864641Y-68270000D01*
X72882037Y-68093373D01*
X72933557Y-67923534D01*
X72933557Y-67923533D01*
X73017221Y-67767011D01*
X73017222Y-67767009D01*
X73066463Y-67707009D01*
X73129814Y-67629814D01*
X73231271Y-67546552D01*
X73267009Y-67517222D01*
X73379260Y-67457222D01*
X73423533Y-67433557D01*
X73480147Y-67416384D01*
X73593373Y-67382037D01*
X73679473Y-67373557D01*
X73725740Y-67369000D01*
X73814260Y-67369000D01*
X73860527Y-67373557D01*
X73860527Y-67373557D01*
G37*
G36*
X70280527Y-67373557D02*
X70366627Y-67382037D01*
X70479853Y-67416384D01*
X70536467Y-67433557D01*
X70580740Y-67457222D01*
X70692991Y-67517222D01*
X70728729Y-67546552D01*
X70830186Y-67629814D01*
X70893537Y-67707009D01*
X70942778Y-67767009D01*
X70942779Y-67767011D01*
X71026443Y-67923533D01*
X71026443Y-67923534D01*
X71077963Y-68093373D01*
X71095359Y-68270000D01*
X71077963Y-68446627D01*
X71044644Y-68556466D01*
X71026443Y-68616467D01*
X70974850Y-68712989D01*
X70942778Y-68772991D01*
X70913448Y-68808729D01*
X70830186Y-68910186D01*
X70741731Y-68982778D01*
X70692991Y-69022778D01*
X70692989Y-69022779D01*
X70536467Y-69106443D01*
X70521444Y-69111000D01*
X70366627Y-69157963D01*
X70300443Y-69164481D01*
X70234260Y-69171000D01*
X70145740Y-69171000D01*
X70079557Y-69164481D01*
X70013373Y-69157963D01*
X69858556Y-69111000D01*
X69843533Y-69106443D01*
X69687011Y-69022779D01*
X69687009Y-69022778D01*
X69638269Y-68982778D01*
X69549814Y-68910186D01*
X69466552Y-68808729D01*
X69437222Y-68772991D01*
X69405150Y-68712989D01*
X69353557Y-68616467D01*
X69335356Y-68556466D01*
X69302037Y-68446627D01*
X69284641Y-68270000D01*
X69302037Y-68093373D01*
X69353557Y-67923534D01*
X69353557Y-67923533D01*
X69437221Y-67767011D01*
X69437222Y-67767009D01*
X69486463Y-67707009D01*
X69549814Y-67629814D01*
X69651271Y-67546552D01*
X69687009Y-67517222D01*
X69799260Y-67457222D01*
X69843533Y-67433557D01*
X69900147Y-67416384D01*
X70013373Y-67382037D01*
X70099473Y-67373557D01*
X70145740Y-67369000D01*
X70234260Y-67369000D01*
X70280527Y-67373557D01*
X70280527Y-67373557D01*
G37*
G36*
X63080527Y-67373557D02*
X63166627Y-67382037D01*
X63279853Y-67416384D01*
X63336467Y-67433557D01*
X63380740Y-67457222D01*
X63492991Y-67517222D01*
X63528729Y-67546552D01*
X63630186Y-67629814D01*
X63693537Y-67707009D01*
X63742778Y-67767009D01*
X63742779Y-67767011D01*
X63826443Y-67923533D01*
X63826443Y-67923534D01*
X63877963Y-68093373D01*
X63895359Y-68270000D01*
X63877963Y-68446627D01*
X63844644Y-68556466D01*
X63826443Y-68616467D01*
X63774850Y-68712989D01*
X63742778Y-68772991D01*
X63713448Y-68808729D01*
X63630186Y-68910186D01*
X63541731Y-68982778D01*
X63492991Y-69022778D01*
X63492989Y-69022779D01*
X63336467Y-69106443D01*
X63321444Y-69111000D01*
X63166627Y-69157963D01*
X63100443Y-69164481D01*
X63034260Y-69171000D01*
X62945740Y-69171000D01*
X62879557Y-69164481D01*
X62813373Y-69157963D01*
X62658556Y-69111000D01*
X62643533Y-69106443D01*
X62487011Y-69022779D01*
X62487009Y-69022778D01*
X62438269Y-68982778D01*
X62349814Y-68910186D01*
X62266552Y-68808729D01*
X62237222Y-68772991D01*
X62205150Y-68712989D01*
X62153557Y-68616467D01*
X62135356Y-68556466D01*
X62102037Y-68446627D01*
X62084641Y-68270000D01*
X62102037Y-68093373D01*
X62153557Y-67923534D01*
X62153557Y-67923533D01*
X62237221Y-67767011D01*
X62237222Y-67767009D01*
X62286463Y-67707009D01*
X62349814Y-67629814D01*
X62451271Y-67546552D01*
X62487009Y-67517222D01*
X62599260Y-67457222D01*
X62643533Y-67433557D01*
X62700147Y-67416384D01*
X62813373Y-67382037D01*
X62899473Y-67373557D01*
X62945740Y-67369000D01*
X63034260Y-67369000D01*
X63080527Y-67373557D01*
X63080527Y-67373557D01*
G37*
G36*
X66680527Y-67373557D02*
X66766627Y-67382037D01*
X66879853Y-67416384D01*
X66936467Y-67433557D01*
X66980740Y-67457222D01*
X67092991Y-67517222D01*
X67128729Y-67546552D01*
X67230186Y-67629814D01*
X67293537Y-67707009D01*
X67342778Y-67767009D01*
X67342779Y-67767011D01*
X67426443Y-67923533D01*
X67426443Y-67923534D01*
X67477963Y-68093373D01*
X67495359Y-68270000D01*
X67477963Y-68446627D01*
X67444644Y-68556466D01*
X67426443Y-68616467D01*
X67374850Y-68712989D01*
X67342778Y-68772991D01*
X67313448Y-68808729D01*
X67230186Y-68910186D01*
X67141731Y-68982778D01*
X67092991Y-69022778D01*
X67092989Y-69022779D01*
X66936467Y-69106443D01*
X66921444Y-69111000D01*
X66766627Y-69157963D01*
X66700443Y-69164481D01*
X66634260Y-69171000D01*
X66545740Y-69171000D01*
X66479557Y-69164481D01*
X66413373Y-69157963D01*
X66258556Y-69111000D01*
X66243533Y-69106443D01*
X66087011Y-69022779D01*
X66087009Y-69022778D01*
X66038269Y-68982778D01*
X65949814Y-68910186D01*
X65866552Y-68808729D01*
X65837222Y-68772991D01*
X65805150Y-68712989D01*
X65753557Y-68616467D01*
X65735356Y-68556466D01*
X65702037Y-68446627D01*
X65684641Y-68270000D01*
X65702037Y-68093373D01*
X65753557Y-67923534D01*
X65753557Y-67923533D01*
X65837221Y-67767011D01*
X65837222Y-67767009D01*
X65886463Y-67707009D01*
X65949814Y-67629814D01*
X66051271Y-67546552D01*
X66087009Y-67517222D01*
X66199260Y-67457222D01*
X66243533Y-67433557D01*
X66300147Y-67416384D01*
X66413373Y-67382037D01*
X66499473Y-67373557D01*
X66545740Y-67369000D01*
X66634260Y-67369000D01*
X66680527Y-67373557D01*
X66680527Y-67373557D01*
G37*
G36*
X77500442Y-67335518D02*
X77566627Y-67342037D01*
X77655512Y-67369000D01*
X77736467Y-67393557D01*
X77855572Y-67457221D01*
X77892991Y-67477222D01*
X77928729Y-67506552D01*
X78030186Y-67589814D01*
X78113448Y-67691271D01*
X78142778Y-67727009D01*
X78142779Y-67727011D01*
X78226443Y-67883533D01*
X78226443Y-67883534D01*
X78277963Y-68053373D01*
X78295359Y-68230000D01*
X78277963Y-68406627D01*
X78265829Y-68446627D01*
X78226443Y-68576467D01*
X78205062Y-68616467D01*
X78142778Y-68732991D01*
X78113448Y-68768729D01*
X78030186Y-68870186D01*
X77928729Y-68953448D01*
X77892991Y-68982778D01*
X77892989Y-68982779D01*
X77736467Y-69066443D01*
X77679853Y-69083616D01*
X77566627Y-69117963D01*
X77500442Y-69124482D01*
X77434260Y-69131000D01*
X77345740Y-69131000D01*
X77279558Y-69124482D01*
X77213373Y-69117963D01*
X77100147Y-69083616D01*
X77043533Y-69066443D01*
X76887011Y-68982779D01*
X76887009Y-68982778D01*
X76851271Y-68953448D01*
X76749814Y-68870186D01*
X76666552Y-68768729D01*
X76637222Y-68732991D01*
X76574938Y-68616467D01*
X76553557Y-68576467D01*
X76514171Y-68446627D01*
X76502037Y-68406627D01*
X76484641Y-68230000D01*
X76502037Y-68053373D01*
X76553557Y-67883534D01*
X76553557Y-67883533D01*
X76637221Y-67727011D01*
X76637222Y-67727009D01*
X76666552Y-67691271D01*
X76749814Y-67589814D01*
X76851271Y-67506552D01*
X76887009Y-67477222D01*
X76924428Y-67457221D01*
X77043533Y-67393557D01*
X77124488Y-67369000D01*
X77213373Y-67342037D01*
X77279558Y-67335518D01*
X77345740Y-67329000D01*
X77434260Y-67329000D01*
X77500442Y-67335518D01*
X77500442Y-67335518D01*
G37*
G36*
X99330442Y-67335518D02*
X99396627Y-67342037D01*
X99485512Y-67369000D01*
X99566467Y-67393557D01*
X99685572Y-67457221D01*
X99722991Y-67477222D01*
X99758729Y-67506552D01*
X99860186Y-67589814D01*
X99943448Y-67691271D01*
X99972778Y-67727009D01*
X99972779Y-67727011D01*
X100056443Y-67883533D01*
X100056443Y-67883534D01*
X100107963Y-68053373D01*
X100125359Y-68230000D01*
X100107963Y-68406627D01*
X100095829Y-68446627D01*
X100056443Y-68576467D01*
X100035062Y-68616467D01*
X99972778Y-68732991D01*
X99943448Y-68768729D01*
X99860186Y-68870186D01*
X99758729Y-68953448D01*
X99722991Y-68982778D01*
X99722989Y-68982779D01*
X99566467Y-69066443D01*
X99509853Y-69083616D01*
X99396627Y-69117963D01*
X99330442Y-69124482D01*
X99264260Y-69131000D01*
X99175740Y-69131000D01*
X99109558Y-69124482D01*
X99043373Y-69117963D01*
X98930147Y-69083616D01*
X98873533Y-69066443D01*
X98717011Y-68982779D01*
X98717009Y-68982778D01*
X98681271Y-68953448D01*
X98579814Y-68870186D01*
X98496552Y-68768729D01*
X98467222Y-68732991D01*
X98404938Y-68616467D01*
X98383557Y-68576467D01*
X98344171Y-68446627D01*
X98332037Y-68406627D01*
X98314641Y-68230000D01*
X98332037Y-68053373D01*
X98383557Y-67883534D01*
X98383557Y-67883533D01*
X98467221Y-67727011D01*
X98467222Y-67727009D01*
X98496552Y-67691271D01*
X98579814Y-67589814D01*
X98681271Y-67506552D01*
X98717009Y-67477222D01*
X98754428Y-67457221D01*
X98873533Y-67393557D01*
X98954488Y-67369000D01*
X99043373Y-67342037D01*
X99109558Y-67335518D01*
X99175740Y-67329000D01*
X99264260Y-67329000D01*
X99330442Y-67335518D01*
X99330442Y-67335518D01*
G37*
G36*
X92040443Y-67315519D02*
X92106627Y-67322037D01*
X92219853Y-67356384D01*
X92276467Y-67373557D01*
X92388717Y-67433557D01*
X92432991Y-67457222D01*
X92457361Y-67477222D01*
X92570186Y-67569814D01*
X92653448Y-67671271D01*
X92682778Y-67707009D01*
X92682779Y-67707011D01*
X92766443Y-67863533D01*
X92766443Y-67863534D01*
X92817963Y-68033373D01*
X92835359Y-68210000D01*
X92817963Y-68386627D01*
X92811896Y-68406627D01*
X92766443Y-68556467D01*
X92734372Y-68616466D01*
X92682778Y-68712991D01*
X92666366Y-68732989D01*
X92570186Y-68850186D01*
X92468729Y-68933448D01*
X92432991Y-68962778D01*
X92432989Y-68962779D01*
X92276467Y-69046443D01*
X92219853Y-69063616D01*
X92106627Y-69097963D01*
X92040443Y-69104481D01*
X91974260Y-69111000D01*
X91885740Y-69111000D01*
X91819557Y-69104481D01*
X91753373Y-69097963D01*
X91640147Y-69063616D01*
X91583533Y-69046443D01*
X91427011Y-68962779D01*
X91427009Y-68962778D01*
X91391271Y-68933448D01*
X91289814Y-68850186D01*
X91193634Y-68732989D01*
X91177222Y-68712991D01*
X91125628Y-68616466D01*
X91093557Y-68556467D01*
X91048104Y-68406627D01*
X91042037Y-68386627D01*
X91024641Y-68210000D01*
X91042037Y-68033373D01*
X91093557Y-67863534D01*
X91093557Y-67863533D01*
X91177221Y-67707011D01*
X91177222Y-67707009D01*
X91206552Y-67671271D01*
X91289814Y-67569814D01*
X91402639Y-67477222D01*
X91427009Y-67457222D01*
X91471283Y-67433557D01*
X91583533Y-67373557D01*
X91640147Y-67356384D01*
X91753373Y-67322037D01*
X91819557Y-67315519D01*
X91885740Y-67309000D01*
X91974260Y-67309000D01*
X92040443Y-67315519D01*
X92040443Y-67315519D01*
G37*
G36*
X95670443Y-67315519D02*
X95736627Y-67322037D01*
X95849853Y-67356384D01*
X95906467Y-67373557D01*
X96018717Y-67433557D01*
X96062991Y-67457222D01*
X96087361Y-67477222D01*
X96200186Y-67569814D01*
X96283448Y-67671271D01*
X96312778Y-67707009D01*
X96312779Y-67707011D01*
X96396443Y-67863533D01*
X96396443Y-67863534D01*
X96447963Y-68033373D01*
X96465359Y-68210000D01*
X96447963Y-68386627D01*
X96441896Y-68406627D01*
X96396443Y-68556467D01*
X96364372Y-68616466D01*
X96312778Y-68712991D01*
X96296366Y-68732989D01*
X96200186Y-68850186D01*
X96098729Y-68933448D01*
X96062991Y-68962778D01*
X96062989Y-68962779D01*
X95906467Y-69046443D01*
X95849853Y-69063616D01*
X95736627Y-69097963D01*
X95670443Y-69104481D01*
X95604260Y-69111000D01*
X95515740Y-69111000D01*
X95449557Y-69104481D01*
X95383373Y-69097963D01*
X95270147Y-69063616D01*
X95213533Y-69046443D01*
X95057011Y-68962779D01*
X95057009Y-68962778D01*
X95021271Y-68933448D01*
X94919814Y-68850186D01*
X94823634Y-68732989D01*
X94807222Y-68712991D01*
X94755628Y-68616466D01*
X94723557Y-68556467D01*
X94678104Y-68406627D01*
X94672037Y-68386627D01*
X94654641Y-68210000D01*
X94672037Y-68033373D01*
X94723557Y-67863534D01*
X94723557Y-67863533D01*
X94807221Y-67707011D01*
X94807222Y-67707009D01*
X94836552Y-67671271D01*
X94919814Y-67569814D01*
X95032639Y-67477222D01*
X95057009Y-67457222D01*
X95101283Y-67433557D01*
X95213533Y-67373557D01*
X95270147Y-67356384D01*
X95383373Y-67322037D01*
X95449557Y-67315519D01*
X95515740Y-67309000D01*
X95604260Y-67309000D01*
X95670443Y-67315519D01*
X95670443Y-67315519D01*
G37*
G36*
X84790443Y-67315519D02*
X84856627Y-67322037D01*
X84969853Y-67356384D01*
X85026467Y-67373557D01*
X85138717Y-67433557D01*
X85182991Y-67457222D01*
X85207361Y-67477222D01*
X85320186Y-67569814D01*
X85403448Y-67671271D01*
X85432778Y-67707009D01*
X85432779Y-67707011D01*
X85516443Y-67863533D01*
X85516443Y-67863534D01*
X85567963Y-68033373D01*
X85585359Y-68210000D01*
X85567963Y-68386627D01*
X85561896Y-68406627D01*
X85516443Y-68556467D01*
X85484372Y-68616466D01*
X85432778Y-68712991D01*
X85416366Y-68732989D01*
X85320186Y-68850186D01*
X85218729Y-68933448D01*
X85182991Y-68962778D01*
X85182989Y-68962779D01*
X85026467Y-69046443D01*
X84969853Y-69063616D01*
X84856627Y-69097963D01*
X84790443Y-69104481D01*
X84724260Y-69111000D01*
X84635740Y-69111000D01*
X84569557Y-69104481D01*
X84503373Y-69097963D01*
X84390147Y-69063616D01*
X84333533Y-69046443D01*
X84177011Y-68962779D01*
X84177009Y-68962778D01*
X84141271Y-68933448D01*
X84039814Y-68850186D01*
X83943634Y-68732989D01*
X83927222Y-68712991D01*
X83875628Y-68616466D01*
X83843557Y-68556467D01*
X83798104Y-68406627D01*
X83792037Y-68386627D01*
X83774641Y-68210000D01*
X83792037Y-68033373D01*
X83843557Y-67863534D01*
X83843557Y-67863533D01*
X83927221Y-67707011D01*
X83927222Y-67707009D01*
X83956552Y-67671271D01*
X84039814Y-67569814D01*
X84152639Y-67477222D01*
X84177009Y-67457222D01*
X84221283Y-67433557D01*
X84333533Y-67373557D01*
X84390147Y-67356384D01*
X84503373Y-67322037D01*
X84569557Y-67315519D01*
X84635740Y-67309000D01*
X84724260Y-67309000D01*
X84790443Y-67315519D01*
X84790443Y-67315519D01*
G37*
G36*
X88410443Y-67315519D02*
X88476627Y-67322037D01*
X88589853Y-67356384D01*
X88646467Y-67373557D01*
X88758717Y-67433557D01*
X88802991Y-67457222D01*
X88827361Y-67477222D01*
X88940186Y-67569814D01*
X89023448Y-67671271D01*
X89052778Y-67707009D01*
X89052779Y-67707011D01*
X89136443Y-67863533D01*
X89136443Y-67863534D01*
X89187963Y-68033373D01*
X89205359Y-68210000D01*
X89187963Y-68386627D01*
X89181896Y-68406627D01*
X89136443Y-68556467D01*
X89104372Y-68616466D01*
X89052778Y-68712991D01*
X89036366Y-68732989D01*
X88940186Y-68850186D01*
X88838729Y-68933448D01*
X88802991Y-68962778D01*
X88802989Y-68962779D01*
X88646467Y-69046443D01*
X88589853Y-69063616D01*
X88476627Y-69097963D01*
X88410443Y-69104481D01*
X88344260Y-69111000D01*
X88255740Y-69111000D01*
X88189557Y-69104481D01*
X88123373Y-69097963D01*
X88010147Y-69063616D01*
X87953533Y-69046443D01*
X87797011Y-68962779D01*
X87797009Y-68962778D01*
X87761271Y-68933448D01*
X87659814Y-68850186D01*
X87563634Y-68732989D01*
X87547222Y-68712991D01*
X87495628Y-68616466D01*
X87463557Y-68556467D01*
X87418104Y-68406627D01*
X87412037Y-68386627D01*
X87394641Y-68210000D01*
X87412037Y-68033373D01*
X87463557Y-67863534D01*
X87463557Y-67863533D01*
X87547221Y-67707011D01*
X87547222Y-67707009D01*
X87576552Y-67671271D01*
X87659814Y-67569814D01*
X87772639Y-67477222D01*
X87797009Y-67457222D01*
X87841283Y-67433557D01*
X87953533Y-67373557D01*
X88010147Y-67356384D01*
X88123373Y-67322037D01*
X88189557Y-67315519D01*
X88255740Y-67309000D01*
X88344260Y-67309000D01*
X88410443Y-67315519D01*
X88410443Y-67315519D01*
G37*
G36*
X70280527Y-64833557D02*
X70366627Y-64842037D01*
X70479853Y-64876384D01*
X70536467Y-64893557D01*
X70580740Y-64917222D01*
X70692991Y-64977222D01*
X70728729Y-65006552D01*
X70830186Y-65089814D01*
X70893537Y-65167009D01*
X70942778Y-65227009D01*
X70942779Y-65227011D01*
X71026443Y-65383533D01*
X71026443Y-65383534D01*
X71077963Y-65553373D01*
X71095359Y-65730000D01*
X71077963Y-65906627D01*
X71044644Y-66016466D01*
X71026443Y-66076467D01*
X70974850Y-66172989D01*
X70942778Y-66232991D01*
X70913448Y-66268729D01*
X70830186Y-66370186D01*
X70741731Y-66442778D01*
X70692991Y-66482778D01*
X70692989Y-66482779D01*
X70536467Y-66566443D01*
X70521444Y-66571000D01*
X70366627Y-66617963D01*
X70300443Y-66624481D01*
X70234260Y-66631000D01*
X70145740Y-66631000D01*
X70079557Y-66624481D01*
X70013373Y-66617963D01*
X69858556Y-66571000D01*
X69843533Y-66566443D01*
X69687011Y-66482779D01*
X69687009Y-66482778D01*
X69638269Y-66442778D01*
X69549814Y-66370186D01*
X69466552Y-66268729D01*
X69437222Y-66232991D01*
X69405150Y-66172989D01*
X69353557Y-66076467D01*
X69335356Y-66016466D01*
X69302037Y-65906627D01*
X69284641Y-65730000D01*
X69302037Y-65553373D01*
X69353557Y-65383534D01*
X69353557Y-65383533D01*
X69437221Y-65227011D01*
X69437222Y-65227009D01*
X69486463Y-65167009D01*
X69549814Y-65089814D01*
X69651271Y-65006552D01*
X69687009Y-64977222D01*
X69799260Y-64917222D01*
X69843533Y-64893557D01*
X69900147Y-64876384D01*
X70013373Y-64842037D01*
X70099473Y-64833557D01*
X70145740Y-64829000D01*
X70234260Y-64829000D01*
X70280527Y-64833557D01*
X70280527Y-64833557D01*
G37*
G36*
X73860527Y-64833557D02*
X73946627Y-64842037D01*
X74059853Y-64876384D01*
X74116467Y-64893557D01*
X74160740Y-64917222D01*
X74272991Y-64977222D01*
X74308729Y-65006552D01*
X74410186Y-65089814D01*
X74473537Y-65167009D01*
X74522778Y-65227009D01*
X74522779Y-65227011D01*
X74606443Y-65383533D01*
X74606443Y-65383534D01*
X74657963Y-65553373D01*
X74675359Y-65730000D01*
X74657963Y-65906627D01*
X74624644Y-66016466D01*
X74606443Y-66076467D01*
X74554850Y-66172989D01*
X74522778Y-66232991D01*
X74493448Y-66268729D01*
X74410186Y-66370186D01*
X74321731Y-66442778D01*
X74272991Y-66482778D01*
X74272989Y-66482779D01*
X74116467Y-66566443D01*
X74101444Y-66571000D01*
X73946627Y-66617963D01*
X73880443Y-66624481D01*
X73814260Y-66631000D01*
X73725740Y-66631000D01*
X73659557Y-66624481D01*
X73593373Y-66617963D01*
X73438556Y-66571000D01*
X73423533Y-66566443D01*
X73267011Y-66482779D01*
X73267009Y-66482778D01*
X73218269Y-66442778D01*
X73129814Y-66370186D01*
X73046552Y-66268729D01*
X73017222Y-66232991D01*
X72985150Y-66172989D01*
X72933557Y-66076467D01*
X72915356Y-66016466D01*
X72882037Y-65906627D01*
X72864641Y-65730000D01*
X72882037Y-65553373D01*
X72933557Y-65383534D01*
X72933557Y-65383533D01*
X73017221Y-65227011D01*
X73017222Y-65227009D01*
X73066463Y-65167009D01*
X73129814Y-65089814D01*
X73231271Y-65006552D01*
X73267009Y-64977222D01*
X73379260Y-64917222D01*
X73423533Y-64893557D01*
X73480147Y-64876384D01*
X73593373Y-64842037D01*
X73679473Y-64833557D01*
X73725740Y-64829000D01*
X73814260Y-64829000D01*
X73860527Y-64833557D01*
X73860527Y-64833557D01*
G37*
G36*
X63080527Y-64833557D02*
X63166627Y-64842037D01*
X63279853Y-64876384D01*
X63336467Y-64893557D01*
X63380740Y-64917222D01*
X63492991Y-64977222D01*
X63528729Y-65006552D01*
X63630186Y-65089814D01*
X63693537Y-65167009D01*
X63742778Y-65227009D01*
X63742779Y-65227011D01*
X63826443Y-65383533D01*
X63826443Y-65383534D01*
X63877963Y-65553373D01*
X63895359Y-65730000D01*
X63877963Y-65906627D01*
X63844644Y-66016466D01*
X63826443Y-66076467D01*
X63774850Y-66172989D01*
X63742778Y-66232991D01*
X63713448Y-66268729D01*
X63630186Y-66370186D01*
X63541731Y-66442778D01*
X63492991Y-66482778D01*
X63492989Y-66482779D01*
X63336467Y-66566443D01*
X63321444Y-66571000D01*
X63166627Y-66617963D01*
X63100443Y-66624481D01*
X63034260Y-66631000D01*
X62945740Y-66631000D01*
X62879557Y-66624481D01*
X62813373Y-66617963D01*
X62658556Y-66571000D01*
X62643533Y-66566443D01*
X62487011Y-66482779D01*
X62487009Y-66482778D01*
X62438269Y-66442778D01*
X62349814Y-66370186D01*
X62266552Y-66268729D01*
X62237222Y-66232991D01*
X62205150Y-66172989D01*
X62153557Y-66076467D01*
X62135356Y-66016466D01*
X62102037Y-65906627D01*
X62084641Y-65730000D01*
X62102037Y-65553373D01*
X62153557Y-65383534D01*
X62153557Y-65383533D01*
X62237221Y-65227011D01*
X62237222Y-65227009D01*
X62286463Y-65167009D01*
X62349814Y-65089814D01*
X62451271Y-65006552D01*
X62487009Y-64977222D01*
X62599260Y-64917222D01*
X62643533Y-64893557D01*
X62700147Y-64876384D01*
X62813373Y-64842037D01*
X62899473Y-64833557D01*
X62945740Y-64829000D01*
X63034260Y-64829000D01*
X63080527Y-64833557D01*
X63080527Y-64833557D01*
G37*
G36*
X66680527Y-64833557D02*
X66766627Y-64842037D01*
X66879853Y-64876384D01*
X66936467Y-64893557D01*
X66980740Y-64917222D01*
X67092991Y-64977222D01*
X67128729Y-65006552D01*
X67230186Y-65089814D01*
X67293537Y-65167009D01*
X67342778Y-65227009D01*
X67342779Y-65227011D01*
X67426443Y-65383533D01*
X67426443Y-65383534D01*
X67477963Y-65553373D01*
X67495359Y-65730000D01*
X67477963Y-65906627D01*
X67444644Y-66016466D01*
X67426443Y-66076467D01*
X67374850Y-66172989D01*
X67342778Y-66232991D01*
X67313448Y-66268729D01*
X67230186Y-66370186D01*
X67141731Y-66442778D01*
X67092991Y-66482778D01*
X67092989Y-66482779D01*
X66936467Y-66566443D01*
X66921444Y-66571000D01*
X66766627Y-66617963D01*
X66700443Y-66624481D01*
X66634260Y-66631000D01*
X66545740Y-66631000D01*
X66479557Y-66624481D01*
X66413373Y-66617963D01*
X66258556Y-66571000D01*
X66243533Y-66566443D01*
X66087011Y-66482779D01*
X66087009Y-66482778D01*
X66038269Y-66442778D01*
X65949814Y-66370186D01*
X65866552Y-66268729D01*
X65837222Y-66232991D01*
X65805150Y-66172989D01*
X65753557Y-66076467D01*
X65735356Y-66016466D01*
X65702037Y-65906627D01*
X65684641Y-65730000D01*
X65702037Y-65553373D01*
X65753557Y-65383534D01*
X65753557Y-65383533D01*
X65837221Y-65227011D01*
X65837222Y-65227009D01*
X65886463Y-65167009D01*
X65949814Y-65089814D01*
X66051271Y-65006552D01*
X66087009Y-64977222D01*
X66199260Y-64917222D01*
X66243533Y-64893557D01*
X66300147Y-64876384D01*
X66413373Y-64842037D01*
X66499473Y-64833557D01*
X66545740Y-64829000D01*
X66634260Y-64829000D01*
X66680527Y-64833557D01*
X66680527Y-64833557D01*
G37*
G36*
X77500443Y-64795519D02*
X77566627Y-64802037D01*
X77655512Y-64829000D01*
X77736467Y-64853557D01*
X77855572Y-64917221D01*
X77892991Y-64937222D01*
X77928729Y-64966552D01*
X78030186Y-65049814D01*
X78113448Y-65151271D01*
X78142778Y-65187009D01*
X78142779Y-65187011D01*
X78226443Y-65343533D01*
X78226443Y-65343534D01*
X78277963Y-65513373D01*
X78295359Y-65690000D01*
X78277963Y-65866627D01*
X78265829Y-65906627D01*
X78226443Y-66036467D01*
X78205062Y-66076467D01*
X78142778Y-66192991D01*
X78113448Y-66228729D01*
X78030186Y-66330186D01*
X77928729Y-66413448D01*
X77892991Y-66442778D01*
X77892989Y-66442779D01*
X77736467Y-66526443D01*
X77679853Y-66543616D01*
X77566627Y-66577963D01*
X77500443Y-66584481D01*
X77434260Y-66591000D01*
X77345740Y-66591000D01*
X77279557Y-66584481D01*
X77213373Y-66577963D01*
X77100147Y-66543616D01*
X77043533Y-66526443D01*
X76887011Y-66442779D01*
X76887009Y-66442778D01*
X76851271Y-66413448D01*
X76749814Y-66330186D01*
X76666552Y-66228729D01*
X76637222Y-66192991D01*
X76574938Y-66076467D01*
X76553557Y-66036467D01*
X76514171Y-65906627D01*
X76502037Y-65866627D01*
X76484641Y-65690000D01*
X76502037Y-65513373D01*
X76553557Y-65343534D01*
X76553557Y-65343533D01*
X76637221Y-65187011D01*
X76637222Y-65187009D01*
X76666552Y-65151271D01*
X76749814Y-65049814D01*
X76851271Y-64966552D01*
X76887009Y-64937222D01*
X76924428Y-64917221D01*
X77043533Y-64853557D01*
X77124488Y-64829000D01*
X77213373Y-64802037D01*
X77279557Y-64795519D01*
X77345740Y-64789000D01*
X77434260Y-64789000D01*
X77500443Y-64795519D01*
X77500443Y-64795519D01*
G37*
G36*
X99330443Y-64795519D02*
X99396627Y-64802037D01*
X99485512Y-64829000D01*
X99566467Y-64853557D01*
X99685572Y-64917221D01*
X99722991Y-64937222D01*
X99758729Y-64966552D01*
X99860186Y-65049814D01*
X99943448Y-65151271D01*
X99972778Y-65187009D01*
X99972779Y-65187011D01*
X100056443Y-65343533D01*
X100056443Y-65343534D01*
X100107963Y-65513373D01*
X100125359Y-65690000D01*
X100107963Y-65866627D01*
X100095829Y-65906627D01*
X100056443Y-66036467D01*
X100035062Y-66076467D01*
X99972778Y-66192991D01*
X99943448Y-66228729D01*
X99860186Y-66330186D01*
X99758729Y-66413448D01*
X99722991Y-66442778D01*
X99722989Y-66442779D01*
X99566467Y-66526443D01*
X99509853Y-66543616D01*
X99396627Y-66577963D01*
X99330443Y-66584481D01*
X99264260Y-66591000D01*
X99175740Y-66591000D01*
X99109557Y-66584481D01*
X99043373Y-66577963D01*
X98930147Y-66543616D01*
X98873533Y-66526443D01*
X98717011Y-66442779D01*
X98717009Y-66442778D01*
X98681271Y-66413448D01*
X98579814Y-66330186D01*
X98496552Y-66228729D01*
X98467222Y-66192991D01*
X98404938Y-66076467D01*
X98383557Y-66036467D01*
X98344171Y-65906627D01*
X98332037Y-65866627D01*
X98314641Y-65690000D01*
X98332037Y-65513373D01*
X98383557Y-65343534D01*
X98383557Y-65343533D01*
X98467221Y-65187011D01*
X98467222Y-65187009D01*
X98496552Y-65151271D01*
X98579814Y-65049814D01*
X98681271Y-64966552D01*
X98717009Y-64937222D01*
X98754428Y-64917221D01*
X98873533Y-64853557D01*
X98954488Y-64829000D01*
X99043373Y-64802037D01*
X99109557Y-64795519D01*
X99175740Y-64789000D01*
X99264260Y-64789000D01*
X99330443Y-64795519D01*
X99330443Y-64795519D01*
G37*
G36*
X92040442Y-64775518D02*
X92106627Y-64782037D01*
X92219853Y-64816384D01*
X92276467Y-64833557D01*
X92388717Y-64893557D01*
X92432991Y-64917222D01*
X92457361Y-64937222D01*
X92570186Y-65029814D01*
X92653448Y-65131271D01*
X92682778Y-65167009D01*
X92682779Y-65167011D01*
X92766443Y-65323533D01*
X92766443Y-65323534D01*
X92817963Y-65493373D01*
X92835359Y-65670000D01*
X92817963Y-65846627D01*
X92811896Y-65866627D01*
X92766443Y-66016467D01*
X92734372Y-66076466D01*
X92682778Y-66172991D01*
X92666366Y-66192989D01*
X92570186Y-66310186D01*
X92468729Y-66393448D01*
X92432991Y-66422778D01*
X92432989Y-66422779D01*
X92276467Y-66506443D01*
X92219853Y-66523616D01*
X92106627Y-66557963D01*
X92040442Y-66564482D01*
X91974260Y-66571000D01*
X91885740Y-66571000D01*
X91819558Y-66564482D01*
X91753373Y-66557963D01*
X91640147Y-66523616D01*
X91583533Y-66506443D01*
X91427011Y-66422779D01*
X91427009Y-66422778D01*
X91391271Y-66393448D01*
X91289814Y-66310186D01*
X91193634Y-66192989D01*
X91177222Y-66172991D01*
X91125628Y-66076466D01*
X91093557Y-66016467D01*
X91048104Y-65866627D01*
X91042037Y-65846627D01*
X91024641Y-65670000D01*
X91042037Y-65493373D01*
X91093557Y-65323534D01*
X91093557Y-65323533D01*
X91177221Y-65167011D01*
X91177222Y-65167009D01*
X91206552Y-65131271D01*
X91289814Y-65029814D01*
X91402639Y-64937222D01*
X91427009Y-64917222D01*
X91471283Y-64893557D01*
X91583533Y-64833557D01*
X91640147Y-64816384D01*
X91753373Y-64782037D01*
X91819558Y-64775518D01*
X91885740Y-64769000D01*
X91974260Y-64769000D01*
X92040442Y-64775518D01*
X92040442Y-64775518D01*
G37*
G36*
X88410442Y-64775518D02*
X88476627Y-64782037D01*
X88589853Y-64816384D01*
X88646467Y-64833557D01*
X88758717Y-64893557D01*
X88802991Y-64917222D01*
X88827361Y-64937222D01*
X88940186Y-65029814D01*
X89023448Y-65131271D01*
X89052778Y-65167009D01*
X89052779Y-65167011D01*
X89136443Y-65323533D01*
X89136443Y-65323534D01*
X89187963Y-65493373D01*
X89205359Y-65670000D01*
X89187963Y-65846627D01*
X89181896Y-65866627D01*
X89136443Y-66016467D01*
X89104372Y-66076466D01*
X89052778Y-66172991D01*
X89036366Y-66192989D01*
X88940186Y-66310186D01*
X88838729Y-66393448D01*
X88802991Y-66422778D01*
X88802989Y-66422779D01*
X88646467Y-66506443D01*
X88589853Y-66523616D01*
X88476627Y-66557963D01*
X88410442Y-66564482D01*
X88344260Y-66571000D01*
X88255740Y-66571000D01*
X88189558Y-66564482D01*
X88123373Y-66557963D01*
X88010147Y-66523616D01*
X87953533Y-66506443D01*
X87797011Y-66422779D01*
X87797009Y-66422778D01*
X87761271Y-66393448D01*
X87659814Y-66310186D01*
X87563634Y-66192989D01*
X87547222Y-66172991D01*
X87495628Y-66076466D01*
X87463557Y-66016467D01*
X87418104Y-65866627D01*
X87412037Y-65846627D01*
X87394641Y-65670000D01*
X87412037Y-65493373D01*
X87463557Y-65323534D01*
X87463557Y-65323533D01*
X87547221Y-65167011D01*
X87547222Y-65167009D01*
X87576552Y-65131271D01*
X87659814Y-65029814D01*
X87772639Y-64937222D01*
X87797009Y-64917222D01*
X87841283Y-64893557D01*
X87953533Y-64833557D01*
X88010147Y-64816384D01*
X88123373Y-64782037D01*
X88189558Y-64775518D01*
X88255740Y-64769000D01*
X88344260Y-64769000D01*
X88410442Y-64775518D01*
X88410442Y-64775518D01*
G37*
G36*
X95670442Y-64775518D02*
X95736627Y-64782037D01*
X95849853Y-64816384D01*
X95906467Y-64833557D01*
X96018717Y-64893557D01*
X96062991Y-64917222D01*
X96087361Y-64937222D01*
X96200186Y-65029814D01*
X96283448Y-65131271D01*
X96312778Y-65167009D01*
X96312779Y-65167011D01*
X96396443Y-65323533D01*
X96396443Y-65323534D01*
X96447963Y-65493373D01*
X96465359Y-65670000D01*
X96447963Y-65846627D01*
X96441896Y-65866627D01*
X96396443Y-66016467D01*
X96364372Y-66076466D01*
X96312778Y-66172991D01*
X96296366Y-66192989D01*
X96200186Y-66310186D01*
X96098729Y-66393448D01*
X96062991Y-66422778D01*
X96062989Y-66422779D01*
X95906467Y-66506443D01*
X95849853Y-66523616D01*
X95736627Y-66557963D01*
X95670442Y-66564482D01*
X95604260Y-66571000D01*
X95515740Y-66571000D01*
X95449558Y-66564482D01*
X95383373Y-66557963D01*
X95270147Y-66523616D01*
X95213533Y-66506443D01*
X95057011Y-66422779D01*
X95057009Y-66422778D01*
X95021271Y-66393448D01*
X94919814Y-66310186D01*
X94823634Y-66192989D01*
X94807222Y-66172991D01*
X94755628Y-66076466D01*
X94723557Y-66016467D01*
X94678104Y-65866627D01*
X94672037Y-65846627D01*
X94654641Y-65670000D01*
X94672037Y-65493373D01*
X94723557Y-65323534D01*
X94723557Y-65323533D01*
X94807221Y-65167011D01*
X94807222Y-65167009D01*
X94836552Y-65131271D01*
X94919814Y-65029814D01*
X95032639Y-64937222D01*
X95057009Y-64917222D01*
X95101283Y-64893557D01*
X95213533Y-64833557D01*
X95270147Y-64816384D01*
X95383373Y-64782037D01*
X95449558Y-64775518D01*
X95515740Y-64769000D01*
X95604260Y-64769000D01*
X95670442Y-64775518D01*
X95670442Y-64775518D01*
G37*
G36*
X84790442Y-64775518D02*
X84856627Y-64782037D01*
X84969853Y-64816384D01*
X85026467Y-64833557D01*
X85138717Y-64893557D01*
X85182991Y-64917222D01*
X85207361Y-64937222D01*
X85320186Y-65029814D01*
X85403448Y-65131271D01*
X85432778Y-65167009D01*
X85432779Y-65167011D01*
X85516443Y-65323533D01*
X85516443Y-65323534D01*
X85567963Y-65493373D01*
X85585359Y-65670000D01*
X85567963Y-65846627D01*
X85561896Y-65866627D01*
X85516443Y-66016467D01*
X85484372Y-66076466D01*
X85432778Y-66172991D01*
X85416366Y-66192989D01*
X85320186Y-66310186D01*
X85218729Y-66393448D01*
X85182991Y-66422778D01*
X85182989Y-66422779D01*
X85026467Y-66506443D01*
X84969853Y-66523616D01*
X84856627Y-66557963D01*
X84790442Y-66564482D01*
X84724260Y-66571000D01*
X84635740Y-66571000D01*
X84569558Y-66564482D01*
X84503373Y-66557963D01*
X84390147Y-66523616D01*
X84333533Y-66506443D01*
X84177011Y-66422779D01*
X84177009Y-66422778D01*
X84141271Y-66393448D01*
X84039814Y-66310186D01*
X83943634Y-66192989D01*
X83927222Y-66172991D01*
X83875628Y-66076466D01*
X83843557Y-66016467D01*
X83798104Y-65866627D01*
X83792037Y-65846627D01*
X83774641Y-65670000D01*
X83792037Y-65493373D01*
X83843557Y-65323534D01*
X83843557Y-65323533D01*
X83927221Y-65167011D01*
X83927222Y-65167009D01*
X83956552Y-65131271D01*
X84039814Y-65029814D01*
X84152639Y-64937222D01*
X84177009Y-64917222D01*
X84221283Y-64893557D01*
X84333533Y-64833557D01*
X84390147Y-64816384D01*
X84503373Y-64782037D01*
X84569558Y-64775518D01*
X84635740Y-64769000D01*
X84724260Y-64769000D01*
X84790442Y-64775518D01*
X84790442Y-64775518D01*
G37*
G36*
X67491000Y-64091000D02*
X65689000Y-64091000D01*
X65689000Y-62289000D01*
X67491000Y-62289000D01*
X67491000Y-64091000D01*
X67491000Y-64091000D01*
G37*
G36*
X71091000Y-64091000D02*
X69289000Y-64091000D01*
X69289000Y-62289000D01*
X71091000Y-62289000D01*
X71091000Y-64091000D01*
X71091000Y-64091000D01*
G37*
G36*
X63891000Y-64091000D02*
X62089000Y-64091000D01*
X62089000Y-62289000D01*
X63891000Y-62289000D01*
X63891000Y-64091000D01*
X63891000Y-64091000D01*
G37*
G36*
X74671000Y-64091000D02*
X72869000Y-64091000D01*
X72869000Y-62289000D01*
X74671000Y-62289000D01*
X74671000Y-64091000D01*
X74671000Y-64091000D01*
G37*
G36*
X78291000Y-64051000D02*
X76489000Y-64051000D01*
X76489000Y-62249000D01*
X78291000Y-62249000D01*
X78291000Y-64051000D01*
X78291000Y-64051000D01*
G37*
G36*
X100121000Y-64051000D02*
X98319000Y-64051000D01*
X98319000Y-62249000D01*
X100121000Y-62249000D01*
X100121000Y-64051000D01*
X100121000Y-64051000D01*
G37*
G36*
X89201000Y-64031000D02*
X87399000Y-64031000D01*
X87399000Y-62229000D01*
X89201000Y-62229000D01*
X89201000Y-64031000D01*
X89201000Y-64031000D01*
G37*
G36*
X92831000Y-64031000D02*
X91029000Y-64031000D01*
X91029000Y-62229000D01*
X92831000Y-62229000D01*
X92831000Y-64031000D01*
X92831000Y-64031000D01*
G37*
G36*
X85581000Y-64031000D02*
X83779000Y-64031000D01*
X83779000Y-62229000D01*
X85581000Y-62229000D01*
X85581000Y-64031000D01*
X85581000Y-64031000D01*
G37*
G36*
X96461000Y-64031000D02*
X94659000Y-64031000D01*
X94659000Y-62229000D01*
X96461000Y-62229000D01*
X96461000Y-64031000D01*
X96461000Y-64031000D01*
G37*
G36*
X83832812Y-58123624D02*
X83996784Y-58191544D01*
X84144354Y-58290147D01*
X84269853Y-58415646D01*
X84368456Y-58563216D01*
X84436376Y-58727188D01*
X84471000Y-58901259D01*
X84471000Y-59078741D01*
X84436376Y-59252812D01*
X84368456Y-59416784D01*
X84269853Y-59564354D01*
X84144354Y-59689853D01*
X83996784Y-59788456D01*
X83832812Y-59856376D01*
X83658741Y-59891000D01*
X83481259Y-59891000D01*
X83307188Y-59856376D01*
X83143216Y-59788456D01*
X82995646Y-59689853D01*
X82870147Y-59564354D01*
X82771544Y-59416784D01*
X82703624Y-59252812D01*
X82669000Y-59078741D01*
X82669000Y-58901259D01*
X82703624Y-58727188D01*
X82771544Y-58563216D01*
X82870147Y-58415646D01*
X82995646Y-58290147D01*
X83143216Y-58191544D01*
X83307188Y-58123624D01*
X83481259Y-58089000D01*
X83658741Y-58089000D01*
X83832812Y-58123624D01*
X83832812Y-58123624D01*
G37*
G36*
X78832812Y-58123624D02*
X78996784Y-58191544D01*
X79144354Y-58290147D01*
X79269853Y-58415646D01*
X79368456Y-58563216D01*
X79436376Y-58727188D01*
X79471000Y-58901259D01*
X79471000Y-59078741D01*
X79436376Y-59252812D01*
X79368456Y-59416784D01*
X79269853Y-59564354D01*
X79144354Y-59689853D01*
X78996784Y-59788456D01*
X78832812Y-59856376D01*
X78658741Y-59891000D01*
X78481259Y-59891000D01*
X78307188Y-59856376D01*
X78143216Y-59788456D01*
X77995646Y-59689853D01*
X77870147Y-59564354D01*
X77771544Y-59416784D01*
X77703624Y-59252812D01*
X77669000Y-59078741D01*
X77669000Y-58901259D01*
X77703624Y-58727188D01*
X77771544Y-58563216D01*
X77870147Y-58415646D01*
X77995646Y-58290147D01*
X78143216Y-58191544D01*
X78307188Y-58123624D01*
X78481259Y-58089000D01*
X78658741Y-58089000D01*
X78832812Y-58123624D01*
X78832812Y-58123624D01*
G37*
G36*
X81332812Y-58123624D02*
X81496784Y-58191544D01*
X81644354Y-58290147D01*
X81769853Y-58415646D01*
X81868456Y-58563216D01*
X81936376Y-58727188D01*
X81971000Y-58901259D01*
X81971000Y-59078741D01*
X81936376Y-59252812D01*
X81868456Y-59416784D01*
X81769853Y-59564354D01*
X81644354Y-59689853D01*
X81496784Y-59788456D01*
X81332812Y-59856376D01*
X81158741Y-59891000D01*
X80981259Y-59891000D01*
X80807188Y-59856376D01*
X80643216Y-59788456D01*
X80495646Y-59689853D01*
X80370147Y-59564354D01*
X80271544Y-59416784D01*
X80203624Y-59252812D01*
X80169000Y-59078741D01*
X80169000Y-58901259D01*
X80203624Y-58727188D01*
X80271544Y-58563216D01*
X80370147Y-58415646D01*
X80495646Y-58290147D01*
X80643216Y-58191544D01*
X80807188Y-58123624D01*
X80981259Y-58089000D01*
X81158741Y-58089000D01*
X81332812Y-58123624D01*
X81332812Y-58123624D01*
G37*
G36*
X104787000Y-59829000D02*
X102985000Y-59829000D01*
X102985000Y-58027000D01*
X104787000Y-58027000D01*
X104787000Y-59829000D01*
X104787000Y-59829000D01*
G37*
G36*
X106536442Y-58033518D02*
X106602627Y-58040037D01*
X106715853Y-58074384D01*
X106772467Y-58091557D01*
X106832459Y-58123624D01*
X106928991Y-58175222D01*
X106948879Y-58191544D01*
X107066186Y-58287814D01*
X107149448Y-58389271D01*
X107178778Y-58425009D01*
X107178779Y-58425011D01*
X107262443Y-58581533D01*
X107262443Y-58581534D01*
X107313963Y-58751373D01*
X107331359Y-58928000D01*
X107313963Y-59104627D01*
X107279616Y-59217853D01*
X107262443Y-59274467D01*
X107203391Y-59384943D01*
X107178778Y-59430991D01*
X107149448Y-59466729D01*
X107066186Y-59568186D01*
X106985098Y-59634732D01*
X106928991Y-59680778D01*
X106928989Y-59680779D01*
X106772467Y-59764443D01*
X106754421Y-59769917D01*
X106602627Y-59815963D01*
X106536442Y-59822482D01*
X106470260Y-59829000D01*
X106381740Y-59829000D01*
X106315558Y-59822482D01*
X106249373Y-59815963D01*
X106097579Y-59769917D01*
X106079533Y-59764443D01*
X105923011Y-59680779D01*
X105923009Y-59680778D01*
X105866902Y-59634732D01*
X105785814Y-59568186D01*
X105702552Y-59466729D01*
X105673222Y-59430991D01*
X105648609Y-59384943D01*
X105589557Y-59274467D01*
X105572384Y-59217853D01*
X105538037Y-59104627D01*
X105520641Y-58928000D01*
X105538037Y-58751373D01*
X105589557Y-58581534D01*
X105589557Y-58581533D01*
X105673221Y-58425011D01*
X105673222Y-58425009D01*
X105702552Y-58389271D01*
X105785814Y-58287814D01*
X105903121Y-58191544D01*
X105923009Y-58175222D01*
X106019541Y-58123624D01*
X106079533Y-58091557D01*
X106136147Y-58074384D01*
X106249373Y-58040037D01*
X106315558Y-58033518D01*
X106381740Y-58027000D01*
X106470260Y-58027000D01*
X106536442Y-58033518D01*
X106536442Y-58033518D01*
G37*
G36*
X109076442Y-58033518D02*
X109142627Y-58040037D01*
X109255853Y-58074384D01*
X109312467Y-58091557D01*
X109372459Y-58123624D01*
X109468991Y-58175222D01*
X109488879Y-58191544D01*
X109606186Y-58287814D01*
X109689448Y-58389271D01*
X109718778Y-58425009D01*
X109718779Y-58425011D01*
X109802443Y-58581533D01*
X109802443Y-58581534D01*
X109853963Y-58751373D01*
X109871359Y-58928000D01*
X109853963Y-59104627D01*
X109819616Y-59217853D01*
X109802443Y-59274467D01*
X109743391Y-59384943D01*
X109718778Y-59430991D01*
X109689448Y-59466729D01*
X109606186Y-59568186D01*
X109525098Y-59634732D01*
X109468991Y-59680778D01*
X109468989Y-59680779D01*
X109312467Y-59764443D01*
X109294421Y-59769917D01*
X109142627Y-59815963D01*
X109076442Y-59822482D01*
X109010260Y-59829000D01*
X108921740Y-59829000D01*
X108855558Y-59822482D01*
X108789373Y-59815963D01*
X108637579Y-59769917D01*
X108619533Y-59764443D01*
X108463011Y-59680779D01*
X108463009Y-59680778D01*
X108406902Y-59634732D01*
X108325814Y-59568186D01*
X108242552Y-59466729D01*
X108213222Y-59430991D01*
X108188609Y-59384943D01*
X108129557Y-59274467D01*
X108112384Y-59217853D01*
X108078037Y-59104627D01*
X108060641Y-58928000D01*
X108078037Y-58751373D01*
X108129557Y-58581534D01*
X108129557Y-58581533D01*
X108213221Y-58425011D01*
X108213222Y-58425009D01*
X108242552Y-58389271D01*
X108325814Y-58287814D01*
X108443121Y-58191544D01*
X108463009Y-58175222D01*
X108559541Y-58123624D01*
X108619533Y-58091557D01*
X108676147Y-58074384D01*
X108789373Y-58040037D01*
X108855558Y-58033518D01*
X108921740Y-58027000D01*
X109010260Y-58027000D01*
X109076442Y-58033518D01*
X109076442Y-58033518D01*
G37*
G36*
X55898185Y-57987473D02*
X55964369Y-57993991D01*
X56073185Y-58027000D01*
X56134209Y-58045511D01*
X56272829Y-58119606D01*
X56290733Y-58129176D01*
X56326471Y-58158506D01*
X56427928Y-58241768D01*
X56467633Y-58290150D01*
X56540520Y-58378963D01*
X56540521Y-58378965D01*
X56624185Y-58535487D01*
X56624185Y-58535488D01*
X56675705Y-58705327D01*
X56693101Y-58881954D01*
X56675705Y-59058581D01*
X56661737Y-59104627D01*
X56624185Y-59228421D01*
X56550090Y-59367041D01*
X56540520Y-59384945D01*
X56514392Y-59416782D01*
X56427928Y-59522140D01*
X56326471Y-59605402D01*
X56290733Y-59634732D01*
X56290731Y-59634733D01*
X56134209Y-59718397D01*
X56077595Y-59735570D01*
X55964369Y-59769917D01*
X55898185Y-59776435D01*
X55832002Y-59782954D01*
X55743482Y-59782954D01*
X55677299Y-59776435D01*
X55611115Y-59769917D01*
X55497889Y-59735570D01*
X55441275Y-59718397D01*
X55284753Y-59634733D01*
X55284751Y-59634732D01*
X55249013Y-59605402D01*
X55147556Y-59522140D01*
X55061092Y-59416782D01*
X55034964Y-59384945D01*
X55025394Y-59367041D01*
X54951299Y-59228421D01*
X54913747Y-59104627D01*
X54899779Y-59058581D01*
X54882383Y-58881954D01*
X54899779Y-58705327D01*
X54951299Y-58535488D01*
X54951299Y-58535487D01*
X55034963Y-58378965D01*
X55034964Y-58378963D01*
X55107851Y-58290150D01*
X55147556Y-58241768D01*
X55249013Y-58158506D01*
X55284751Y-58129176D01*
X55302655Y-58119606D01*
X55441275Y-58045511D01*
X55502299Y-58027000D01*
X55611115Y-57993991D01*
X55677299Y-57987473D01*
X55743482Y-57980954D01*
X55832002Y-57980954D01*
X55898185Y-57987473D01*
X55898185Y-57987473D01*
G37*
G36*
X53358185Y-57987473D02*
X53424369Y-57993991D01*
X53533185Y-58027000D01*
X53594209Y-58045511D01*
X53732829Y-58119606D01*
X53750733Y-58129176D01*
X53786471Y-58158506D01*
X53887928Y-58241768D01*
X53927633Y-58290150D01*
X54000520Y-58378963D01*
X54000521Y-58378965D01*
X54084185Y-58535487D01*
X54084185Y-58535488D01*
X54135705Y-58705327D01*
X54153101Y-58881954D01*
X54135705Y-59058581D01*
X54121737Y-59104627D01*
X54084185Y-59228421D01*
X54010090Y-59367041D01*
X54000520Y-59384945D01*
X53974392Y-59416782D01*
X53887928Y-59522140D01*
X53786471Y-59605402D01*
X53750733Y-59634732D01*
X53750731Y-59634733D01*
X53594209Y-59718397D01*
X53537595Y-59735570D01*
X53424369Y-59769917D01*
X53358185Y-59776435D01*
X53292002Y-59782954D01*
X53203482Y-59782954D01*
X53137299Y-59776435D01*
X53071115Y-59769917D01*
X52957889Y-59735570D01*
X52901275Y-59718397D01*
X52744753Y-59634733D01*
X52744751Y-59634732D01*
X52709013Y-59605402D01*
X52607556Y-59522140D01*
X52521092Y-59416782D01*
X52494964Y-59384945D01*
X52485394Y-59367041D01*
X52411299Y-59228421D01*
X52373747Y-59104627D01*
X52359779Y-59058581D01*
X52342383Y-58881954D01*
X52359779Y-58705327D01*
X52411299Y-58535488D01*
X52411299Y-58535487D01*
X52494963Y-58378965D01*
X52494964Y-58378963D01*
X52567851Y-58290150D01*
X52607556Y-58241768D01*
X52709013Y-58158506D01*
X52744751Y-58129176D01*
X52762655Y-58119606D01*
X52901275Y-58045511D01*
X52962299Y-58027000D01*
X53071115Y-57993991D01*
X53137299Y-57987473D01*
X53203482Y-57980954D01*
X53292002Y-57980954D01*
X53358185Y-57987473D01*
X53358185Y-57987473D01*
G37*
G36*
X59228742Y-59782954D02*
X57426742Y-59782954D01*
X57426742Y-57980954D01*
X59228742Y-57980954D01*
X59228742Y-59782954D01*
X59228742Y-59782954D01*
G37*
G36*
X53358184Y-54387472D02*
X53424369Y-54393991D01*
X53537595Y-54428338D01*
X53594209Y-54445511D01*
X53732829Y-54519606D01*
X53750733Y-54529176D01*
X53786471Y-54558506D01*
X53887928Y-54641768D01*
X53971190Y-54743225D01*
X54000520Y-54778963D01*
X54000521Y-54778965D01*
X54084185Y-54935487D01*
X54093690Y-54966821D01*
X54135705Y-55105327D01*
X54153101Y-55281954D01*
X54135705Y-55458581D01*
X54119802Y-55511005D01*
X54084185Y-55628421D01*
X54072116Y-55651000D01*
X54000520Y-55784945D01*
X53971190Y-55820683D01*
X53887928Y-55922140D01*
X53786471Y-56005402D01*
X53750733Y-56034732D01*
X53750731Y-56034733D01*
X53594209Y-56118397D01*
X53537595Y-56135570D01*
X53424369Y-56169917D01*
X53358184Y-56176436D01*
X53292002Y-56182954D01*
X53203482Y-56182954D01*
X53137300Y-56176436D01*
X53071115Y-56169917D01*
X52957889Y-56135570D01*
X52901275Y-56118397D01*
X52744753Y-56034733D01*
X52744751Y-56034732D01*
X52709013Y-56005402D01*
X52607556Y-55922140D01*
X52524294Y-55820683D01*
X52494964Y-55784945D01*
X52423368Y-55651000D01*
X52411299Y-55628421D01*
X52375682Y-55511005D01*
X52359779Y-55458581D01*
X52342383Y-55281954D01*
X52359779Y-55105327D01*
X52401794Y-54966821D01*
X52411299Y-54935487D01*
X52494963Y-54778965D01*
X52494964Y-54778963D01*
X52524294Y-54743225D01*
X52607556Y-54641768D01*
X52709013Y-54558506D01*
X52744751Y-54529176D01*
X52762655Y-54519606D01*
X52901275Y-54445511D01*
X52957889Y-54428338D01*
X53071115Y-54393991D01*
X53137300Y-54387472D01*
X53203482Y-54380954D01*
X53292002Y-54380954D01*
X53358184Y-54387472D01*
X53358184Y-54387472D01*
G37*
G36*
X55898184Y-54387472D02*
X55964369Y-54393991D01*
X56077595Y-54428338D01*
X56134209Y-54445511D01*
X56272829Y-54519606D01*
X56290733Y-54529176D01*
X56326471Y-54558506D01*
X56427928Y-54641768D01*
X56511190Y-54743225D01*
X56540520Y-54778963D01*
X56540521Y-54778965D01*
X56624185Y-54935487D01*
X56633690Y-54966821D01*
X56675705Y-55105327D01*
X56693101Y-55281954D01*
X56675705Y-55458581D01*
X56659802Y-55511005D01*
X56624185Y-55628421D01*
X56612116Y-55651000D01*
X56540520Y-55784945D01*
X56511190Y-55820683D01*
X56427928Y-55922140D01*
X56326471Y-56005402D01*
X56290733Y-56034732D01*
X56290731Y-56034733D01*
X56134209Y-56118397D01*
X56077595Y-56135570D01*
X55964369Y-56169917D01*
X55898184Y-56176436D01*
X55832002Y-56182954D01*
X55743482Y-56182954D01*
X55677300Y-56176436D01*
X55611115Y-56169917D01*
X55497889Y-56135570D01*
X55441275Y-56118397D01*
X55284753Y-56034733D01*
X55284751Y-56034732D01*
X55249013Y-56005402D01*
X55147556Y-55922140D01*
X55064294Y-55820683D01*
X55034964Y-55784945D01*
X54963368Y-55651000D01*
X54951299Y-55628421D01*
X54915682Y-55511005D01*
X54899779Y-55458581D01*
X54882383Y-55281954D01*
X54899779Y-55105327D01*
X54941794Y-54966821D01*
X54951299Y-54935487D01*
X55034963Y-54778965D01*
X55034964Y-54778963D01*
X55064294Y-54743225D01*
X55147556Y-54641768D01*
X55249013Y-54558506D01*
X55284751Y-54529176D01*
X55302655Y-54519606D01*
X55441275Y-54445511D01*
X55497889Y-54428338D01*
X55611115Y-54393991D01*
X55677300Y-54387472D01*
X55743482Y-54380954D01*
X55832002Y-54380954D01*
X55898184Y-54387472D01*
X55898184Y-54387472D01*
G37*
G36*
X59228742Y-56182954D02*
X57426742Y-56182954D01*
X57426742Y-54380954D01*
X59228742Y-54380954D01*
X59228742Y-56182954D01*
X59228742Y-56182954D01*
G37*
G36*
X104787000Y-56181000D02*
X102985000Y-56181000D01*
X102985000Y-54379000D01*
X104787000Y-54379000D01*
X104787000Y-56181000D01*
X104787000Y-56181000D01*
G37*
G36*
X106536442Y-54385518D02*
X106602627Y-54392037D01*
X106715853Y-54426384D01*
X106772467Y-54443557D01*
X106911087Y-54517652D01*
X106928991Y-54527222D01*
X106964729Y-54556552D01*
X107066186Y-54639814D01*
X107149448Y-54741271D01*
X107178778Y-54777009D01*
X107188348Y-54794913D01*
X107262443Y-54933533D01*
X107272542Y-54966825D01*
X107313963Y-55103373D01*
X107331359Y-55280000D01*
X107313963Y-55456627D01*
X107279616Y-55569853D01*
X107262443Y-55626467D01*
X107247129Y-55655117D01*
X107178778Y-55782991D01*
X107177174Y-55784945D01*
X107066186Y-55920186D01*
X106964729Y-56003448D01*
X106928991Y-56032778D01*
X106928989Y-56032779D01*
X106772467Y-56116443D01*
X106766025Y-56118397D01*
X106602627Y-56167963D01*
X106536443Y-56174481D01*
X106470260Y-56181000D01*
X106381740Y-56181000D01*
X106315557Y-56174481D01*
X106249373Y-56167963D01*
X106085975Y-56118397D01*
X106079533Y-56116443D01*
X105923011Y-56032779D01*
X105923009Y-56032778D01*
X105887271Y-56003448D01*
X105785814Y-55920186D01*
X105674826Y-55784945D01*
X105673222Y-55782991D01*
X105604871Y-55655117D01*
X105589557Y-55626467D01*
X105572384Y-55569853D01*
X105538037Y-55456627D01*
X105520641Y-55280000D01*
X105538037Y-55103373D01*
X105579458Y-54966825D01*
X105589557Y-54933533D01*
X105663652Y-54794913D01*
X105673222Y-54777009D01*
X105702552Y-54741271D01*
X105785814Y-54639814D01*
X105887271Y-54556552D01*
X105923009Y-54527222D01*
X105940913Y-54517652D01*
X106079533Y-54443557D01*
X106136147Y-54426384D01*
X106249373Y-54392037D01*
X106315558Y-54385518D01*
X106381740Y-54379000D01*
X106470260Y-54379000D01*
X106536442Y-54385518D01*
X106536442Y-54385518D01*
G37*
G36*
X109076442Y-54385518D02*
X109142627Y-54392037D01*
X109255853Y-54426384D01*
X109312467Y-54443557D01*
X109451087Y-54517652D01*
X109468991Y-54527222D01*
X109504729Y-54556552D01*
X109606186Y-54639814D01*
X109689448Y-54741271D01*
X109718778Y-54777009D01*
X109728348Y-54794913D01*
X109802443Y-54933533D01*
X109812542Y-54966825D01*
X109853963Y-55103373D01*
X109871359Y-55280000D01*
X109853963Y-55456627D01*
X109819616Y-55569853D01*
X109802443Y-55626467D01*
X109787129Y-55655117D01*
X109718778Y-55782991D01*
X109717174Y-55784945D01*
X109606186Y-55920186D01*
X109504729Y-56003448D01*
X109468991Y-56032778D01*
X109468989Y-56032779D01*
X109312467Y-56116443D01*
X109306025Y-56118397D01*
X109142627Y-56167963D01*
X109076443Y-56174481D01*
X109010260Y-56181000D01*
X108921740Y-56181000D01*
X108855557Y-56174481D01*
X108789373Y-56167963D01*
X108625975Y-56118397D01*
X108619533Y-56116443D01*
X108463011Y-56032779D01*
X108463009Y-56032778D01*
X108427271Y-56003448D01*
X108325814Y-55920186D01*
X108214826Y-55784945D01*
X108213222Y-55782991D01*
X108144871Y-55655117D01*
X108129557Y-55626467D01*
X108112384Y-55569853D01*
X108078037Y-55456627D01*
X108060641Y-55280000D01*
X108078037Y-55103373D01*
X108119458Y-54966825D01*
X108129557Y-54933533D01*
X108203652Y-54794913D01*
X108213222Y-54777009D01*
X108242552Y-54741271D01*
X108325814Y-54639814D01*
X108427271Y-54556552D01*
X108463009Y-54527222D01*
X108480913Y-54517652D01*
X108619533Y-54443557D01*
X108676147Y-54426384D01*
X108789373Y-54392037D01*
X108855558Y-54385518D01*
X108921740Y-54379000D01*
X109010260Y-54379000D01*
X109076442Y-54385518D01*
X109076442Y-54385518D01*
G37*
G36*
X87656820Y-53161313D02*
X87656823Y-53161314D01*
X87656824Y-53161314D01*
X87817238Y-53209975D01*
X87817240Y-53209976D01*
X87817243Y-53209977D01*
X87965078Y-53288995D01*
X88094659Y-53395341D01*
X88201005Y-53524922D01*
X88280023Y-53672756D01*
X88328687Y-53833179D01*
X88341000Y-53958196D01*
X88341000Y-54841803D01*
X88328687Y-54966820D01*
X88328686Y-54966822D01*
X88328686Y-54966825D01*
X88286671Y-55105329D01*
X88280023Y-55127244D01*
X88201005Y-55275078D01*
X88094659Y-55404659D01*
X87965078Y-55511005D01*
X87817244Y-55590023D01*
X87817241Y-55590024D01*
X87817239Y-55590025D01*
X87656825Y-55638686D01*
X87656824Y-55638686D01*
X87656821Y-55638687D01*
X87490000Y-55655117D01*
X87323180Y-55638687D01*
X87323177Y-55638686D01*
X87323176Y-55638686D01*
X87162762Y-55590025D01*
X87162760Y-55590024D01*
X87162757Y-55590023D01*
X87014923Y-55511005D01*
X86885342Y-55404659D01*
X86778996Y-55275078D01*
X86699978Y-55127244D01*
X86693330Y-55105327D01*
X86651315Y-54966825D01*
X86651315Y-54966824D01*
X86651314Y-54966821D01*
X86639000Y-54841803D01*
X86639000Y-53958197D01*
X86651313Y-53833180D01*
X86651314Y-53833176D01*
X86699975Y-53672762D01*
X86699976Y-53672760D01*
X86699977Y-53672757D01*
X86778995Y-53524922D01*
X86885341Y-53395341D01*
X87014922Y-53288995D01*
X87162756Y-53209977D01*
X87162759Y-53209976D01*
X87162761Y-53209975D01*
X87323175Y-53161314D01*
X87323176Y-53161314D01*
X87323179Y-53161313D01*
X87490000Y-53144883D01*
X87656820Y-53161313D01*
X87656820Y-53161313D01*
G37*
G36*
X72416820Y-53161313D02*
X72416823Y-53161314D01*
X72416824Y-53161314D01*
X72577238Y-53209975D01*
X72577240Y-53209976D01*
X72577243Y-53209977D01*
X72725078Y-53288995D01*
X72854659Y-53395341D01*
X72961005Y-53524922D01*
X73040023Y-53672756D01*
X73088687Y-53833179D01*
X73101000Y-53958196D01*
X73101000Y-54841803D01*
X73088687Y-54966820D01*
X73088686Y-54966822D01*
X73088686Y-54966825D01*
X73046671Y-55105329D01*
X73040023Y-55127244D01*
X72961005Y-55275078D01*
X72854659Y-55404659D01*
X72725078Y-55511005D01*
X72577244Y-55590023D01*
X72577241Y-55590024D01*
X72577239Y-55590025D01*
X72416825Y-55638686D01*
X72416824Y-55638686D01*
X72416821Y-55638687D01*
X72250000Y-55655117D01*
X72083180Y-55638687D01*
X72083177Y-55638686D01*
X72083176Y-55638686D01*
X71922762Y-55590025D01*
X71922760Y-55590024D01*
X71922757Y-55590023D01*
X71774923Y-55511005D01*
X71645342Y-55404659D01*
X71538996Y-55275078D01*
X71459978Y-55127244D01*
X71453330Y-55105327D01*
X71411315Y-54966825D01*
X71411315Y-54966824D01*
X71411314Y-54966821D01*
X71399000Y-54841803D01*
X71399000Y-53958197D01*
X71411313Y-53833180D01*
X71411314Y-53833176D01*
X71459975Y-53672762D01*
X71459976Y-53672760D01*
X71459977Y-53672757D01*
X71538995Y-53524922D01*
X71645341Y-53395341D01*
X71774922Y-53288995D01*
X71922756Y-53209977D01*
X71922759Y-53209976D01*
X71922761Y-53209975D01*
X72083175Y-53161314D01*
X72083176Y-53161314D01*
X72083179Y-53161313D01*
X72250000Y-53144883D01*
X72416820Y-53161313D01*
X72416820Y-53161313D01*
G37*
G36*
X80036820Y-53161313D02*
X80036823Y-53161314D01*
X80036824Y-53161314D01*
X80197238Y-53209975D01*
X80197240Y-53209976D01*
X80197243Y-53209977D01*
X80345078Y-53288995D01*
X80474659Y-53395341D01*
X80581005Y-53524922D01*
X80660023Y-53672756D01*
X80708687Y-53833179D01*
X80721000Y-53958196D01*
X80721000Y-54841803D01*
X80708687Y-54966820D01*
X80708686Y-54966822D01*
X80708686Y-54966825D01*
X80666671Y-55105329D01*
X80660023Y-55127244D01*
X80581005Y-55275078D01*
X80474659Y-55404659D01*
X80345078Y-55511005D01*
X80197244Y-55590023D01*
X80197241Y-55590024D01*
X80197239Y-55590025D01*
X80036825Y-55638686D01*
X80036824Y-55638686D01*
X80036821Y-55638687D01*
X79870000Y-55655117D01*
X79703180Y-55638687D01*
X79703177Y-55638686D01*
X79703176Y-55638686D01*
X79542762Y-55590025D01*
X79542760Y-55590024D01*
X79542757Y-55590023D01*
X79394923Y-55511005D01*
X79265342Y-55404659D01*
X79158996Y-55275078D01*
X79079978Y-55127244D01*
X79073330Y-55105327D01*
X79031315Y-54966825D01*
X79031315Y-54966824D01*
X79031314Y-54966821D01*
X79019000Y-54841803D01*
X79019000Y-53958197D01*
X79031313Y-53833180D01*
X79031314Y-53833176D01*
X79079975Y-53672762D01*
X79079976Y-53672760D01*
X79079977Y-53672757D01*
X79158995Y-53524922D01*
X79265341Y-53395341D01*
X79394922Y-53288995D01*
X79542756Y-53209977D01*
X79542759Y-53209976D01*
X79542761Y-53209975D01*
X79703175Y-53161314D01*
X79703176Y-53161314D01*
X79703179Y-53161313D01*
X79870000Y-53144883D01*
X80036820Y-53161313D01*
X80036820Y-53161313D01*
G37*
G36*
X69876820Y-53161313D02*
X69876823Y-53161314D01*
X69876824Y-53161314D01*
X70037238Y-53209975D01*
X70037240Y-53209976D01*
X70037243Y-53209977D01*
X70185078Y-53288995D01*
X70314659Y-53395341D01*
X70421005Y-53524922D01*
X70500023Y-53672756D01*
X70548687Y-53833179D01*
X70561000Y-53958196D01*
X70561000Y-54841803D01*
X70548687Y-54966820D01*
X70548686Y-54966822D01*
X70548686Y-54966825D01*
X70506671Y-55105329D01*
X70500023Y-55127244D01*
X70421005Y-55275078D01*
X70314659Y-55404659D01*
X70185078Y-55511005D01*
X70037244Y-55590023D01*
X70037241Y-55590024D01*
X70037239Y-55590025D01*
X69876825Y-55638686D01*
X69876824Y-55638686D01*
X69876821Y-55638687D01*
X69710000Y-55655117D01*
X69543180Y-55638687D01*
X69543177Y-55638686D01*
X69543176Y-55638686D01*
X69382762Y-55590025D01*
X69382760Y-55590024D01*
X69382757Y-55590023D01*
X69234923Y-55511005D01*
X69105342Y-55404659D01*
X68998996Y-55275078D01*
X68919978Y-55127244D01*
X68913330Y-55105327D01*
X68871315Y-54966825D01*
X68871315Y-54966824D01*
X68871314Y-54966821D01*
X68859000Y-54841803D01*
X68859000Y-53958197D01*
X68871313Y-53833180D01*
X68871314Y-53833176D01*
X68919975Y-53672762D01*
X68919976Y-53672760D01*
X68919977Y-53672757D01*
X68998995Y-53524922D01*
X69105341Y-53395341D01*
X69234922Y-53288995D01*
X69382756Y-53209977D01*
X69382759Y-53209976D01*
X69382761Y-53209975D01*
X69543175Y-53161314D01*
X69543176Y-53161314D01*
X69543179Y-53161313D01*
X69710000Y-53144883D01*
X69876820Y-53161313D01*
X69876820Y-53161313D01*
G37*
G36*
X82576820Y-53161313D02*
X82576823Y-53161314D01*
X82576824Y-53161314D01*
X82737238Y-53209975D01*
X82737240Y-53209976D01*
X82737243Y-53209977D01*
X82885078Y-53288995D01*
X83014659Y-53395341D01*
X83121005Y-53524922D01*
X83200023Y-53672756D01*
X83248687Y-53833179D01*
X83261000Y-53958196D01*
X83261000Y-54841803D01*
X83248687Y-54966820D01*
X83248686Y-54966822D01*
X83248686Y-54966825D01*
X83206671Y-55105329D01*
X83200023Y-55127244D01*
X83121005Y-55275078D01*
X83014659Y-55404659D01*
X82885078Y-55511005D01*
X82737244Y-55590023D01*
X82737241Y-55590024D01*
X82737239Y-55590025D01*
X82576825Y-55638686D01*
X82576824Y-55638686D01*
X82576821Y-55638687D01*
X82410000Y-55655117D01*
X82243180Y-55638687D01*
X82243177Y-55638686D01*
X82243176Y-55638686D01*
X82082762Y-55590025D01*
X82082760Y-55590024D01*
X82082757Y-55590023D01*
X81934923Y-55511005D01*
X81805342Y-55404659D01*
X81698996Y-55275078D01*
X81619978Y-55127244D01*
X81613330Y-55105327D01*
X81571315Y-54966825D01*
X81571315Y-54966824D01*
X81571314Y-54966821D01*
X81559000Y-54841803D01*
X81559000Y-53958197D01*
X81571313Y-53833180D01*
X81571314Y-53833176D01*
X81619975Y-53672762D01*
X81619976Y-53672760D01*
X81619977Y-53672757D01*
X81698995Y-53524922D01*
X81805341Y-53395341D01*
X81934922Y-53288995D01*
X82082756Y-53209977D01*
X82082759Y-53209976D01*
X82082761Y-53209975D01*
X82243175Y-53161314D01*
X82243176Y-53161314D01*
X82243179Y-53161313D01*
X82410000Y-53144883D01*
X82576820Y-53161313D01*
X82576820Y-53161313D01*
G37*
G36*
X67336820Y-53161313D02*
X67336823Y-53161314D01*
X67336824Y-53161314D01*
X67497238Y-53209975D01*
X67497240Y-53209976D01*
X67497243Y-53209977D01*
X67645078Y-53288995D01*
X67774659Y-53395341D01*
X67881005Y-53524922D01*
X67960023Y-53672756D01*
X68008687Y-53833179D01*
X68021000Y-53958196D01*
X68021000Y-54841803D01*
X68008687Y-54966820D01*
X68008686Y-54966822D01*
X68008686Y-54966825D01*
X67966671Y-55105329D01*
X67960023Y-55127244D01*
X67881005Y-55275078D01*
X67774659Y-55404659D01*
X67645078Y-55511005D01*
X67497244Y-55590023D01*
X67497241Y-55590024D01*
X67497239Y-55590025D01*
X67336825Y-55638686D01*
X67336824Y-55638686D01*
X67336821Y-55638687D01*
X67170000Y-55655117D01*
X67003180Y-55638687D01*
X67003177Y-55638686D01*
X67003176Y-55638686D01*
X66842762Y-55590025D01*
X66842760Y-55590024D01*
X66842757Y-55590023D01*
X66694923Y-55511005D01*
X66565342Y-55404659D01*
X66458996Y-55275078D01*
X66379978Y-55127244D01*
X66373330Y-55105327D01*
X66331315Y-54966825D01*
X66331315Y-54966824D01*
X66331314Y-54966821D01*
X66319000Y-54841803D01*
X66319000Y-53958197D01*
X66331313Y-53833180D01*
X66331314Y-53833176D01*
X66379975Y-53672762D01*
X66379976Y-53672760D01*
X66379977Y-53672757D01*
X66458995Y-53524922D01*
X66565341Y-53395341D01*
X66694922Y-53288995D01*
X66842756Y-53209977D01*
X66842759Y-53209976D01*
X66842761Y-53209975D01*
X67003175Y-53161314D01*
X67003176Y-53161314D01*
X67003179Y-53161313D01*
X67170000Y-53144883D01*
X67336820Y-53161313D01*
X67336820Y-53161313D01*
G37*
G36*
X85116820Y-53161313D02*
X85116823Y-53161314D01*
X85116824Y-53161314D01*
X85277238Y-53209975D01*
X85277240Y-53209976D01*
X85277243Y-53209977D01*
X85425078Y-53288995D01*
X85554659Y-53395341D01*
X85661005Y-53524922D01*
X85740023Y-53672756D01*
X85788687Y-53833179D01*
X85801000Y-53958196D01*
X85801000Y-54841803D01*
X85788687Y-54966820D01*
X85788686Y-54966822D01*
X85788686Y-54966825D01*
X85746671Y-55105329D01*
X85740023Y-55127244D01*
X85661005Y-55275078D01*
X85554659Y-55404659D01*
X85425078Y-55511005D01*
X85277244Y-55590023D01*
X85277241Y-55590024D01*
X85277239Y-55590025D01*
X85116825Y-55638686D01*
X85116824Y-55638686D01*
X85116821Y-55638687D01*
X84950000Y-55655117D01*
X84783180Y-55638687D01*
X84783177Y-55638686D01*
X84783176Y-55638686D01*
X84622762Y-55590025D01*
X84622760Y-55590024D01*
X84622757Y-55590023D01*
X84474923Y-55511005D01*
X84345342Y-55404659D01*
X84238996Y-55275078D01*
X84159978Y-55127244D01*
X84153330Y-55105327D01*
X84111315Y-54966825D01*
X84111315Y-54966824D01*
X84111314Y-54966821D01*
X84099000Y-54841803D01*
X84099000Y-53958197D01*
X84111313Y-53833180D01*
X84111314Y-53833176D01*
X84159975Y-53672762D01*
X84159976Y-53672760D01*
X84159977Y-53672757D01*
X84238995Y-53524922D01*
X84345341Y-53395341D01*
X84474922Y-53288995D01*
X84622756Y-53209977D01*
X84622759Y-53209976D01*
X84622761Y-53209975D01*
X84783175Y-53161314D01*
X84783176Y-53161314D01*
X84783179Y-53161313D01*
X84950000Y-53144883D01*
X85116820Y-53161313D01*
X85116820Y-53161313D01*
G37*
G36*
X74956820Y-53161313D02*
X74956823Y-53161314D01*
X74956824Y-53161314D01*
X75117238Y-53209975D01*
X75117240Y-53209976D01*
X75117243Y-53209977D01*
X75265078Y-53288995D01*
X75394659Y-53395341D01*
X75501005Y-53524922D01*
X75580023Y-53672756D01*
X75628687Y-53833179D01*
X75641000Y-53958196D01*
X75641000Y-54841803D01*
X75628687Y-54966820D01*
X75628686Y-54966822D01*
X75628686Y-54966825D01*
X75586671Y-55105329D01*
X75580023Y-55127244D01*
X75501005Y-55275078D01*
X75394659Y-55404659D01*
X75265078Y-55511005D01*
X75117244Y-55590023D01*
X75117241Y-55590024D01*
X75117239Y-55590025D01*
X74956825Y-55638686D01*
X74956824Y-55638686D01*
X74956821Y-55638687D01*
X74790000Y-55655117D01*
X74623180Y-55638687D01*
X74623177Y-55638686D01*
X74623176Y-55638686D01*
X74462762Y-55590025D01*
X74462760Y-55590024D01*
X74462757Y-55590023D01*
X74314923Y-55511005D01*
X74185342Y-55404659D01*
X74078996Y-55275078D01*
X73999978Y-55127244D01*
X73993330Y-55105327D01*
X73951315Y-54966825D01*
X73951315Y-54966824D01*
X73951314Y-54966821D01*
X73939000Y-54841803D01*
X73939000Y-53958197D01*
X73951313Y-53833180D01*
X73951314Y-53833176D01*
X73999975Y-53672762D01*
X73999976Y-53672760D01*
X73999977Y-53672757D01*
X74078995Y-53524922D01*
X74185341Y-53395341D01*
X74314922Y-53288995D01*
X74462756Y-53209977D01*
X74462759Y-53209976D01*
X74462761Y-53209975D01*
X74623175Y-53161314D01*
X74623176Y-53161314D01*
X74623179Y-53161313D01*
X74790000Y-53144883D01*
X74956820Y-53161313D01*
X74956820Y-53161313D01*
G37*
G36*
X90196820Y-53161313D02*
X90196823Y-53161314D01*
X90196824Y-53161314D01*
X90357238Y-53209975D01*
X90357240Y-53209976D01*
X90357243Y-53209977D01*
X90505078Y-53288995D01*
X90634659Y-53395341D01*
X90741005Y-53524922D01*
X90820023Y-53672756D01*
X90868687Y-53833179D01*
X90881000Y-53958196D01*
X90881000Y-54841803D01*
X90868687Y-54966820D01*
X90868686Y-54966822D01*
X90868686Y-54966825D01*
X90826671Y-55105329D01*
X90820023Y-55127244D01*
X90741005Y-55275078D01*
X90634659Y-55404659D01*
X90505078Y-55511005D01*
X90357244Y-55590023D01*
X90357241Y-55590024D01*
X90357239Y-55590025D01*
X90196825Y-55638686D01*
X90196824Y-55638686D01*
X90196821Y-55638687D01*
X90030000Y-55655117D01*
X89863180Y-55638687D01*
X89863177Y-55638686D01*
X89863176Y-55638686D01*
X89702762Y-55590025D01*
X89702760Y-55590024D01*
X89702757Y-55590023D01*
X89554923Y-55511005D01*
X89425342Y-55404659D01*
X89318996Y-55275078D01*
X89239978Y-55127244D01*
X89233330Y-55105327D01*
X89191315Y-54966825D01*
X89191315Y-54966824D01*
X89191314Y-54966821D01*
X89179000Y-54841803D01*
X89179000Y-53958197D01*
X89191313Y-53833180D01*
X89191314Y-53833176D01*
X89239975Y-53672762D01*
X89239976Y-53672760D01*
X89239977Y-53672757D01*
X89318995Y-53524922D01*
X89425341Y-53395341D01*
X89554922Y-53288995D01*
X89702756Y-53209977D01*
X89702759Y-53209976D01*
X89702761Y-53209975D01*
X89863175Y-53161314D01*
X89863176Y-53161314D01*
X89863179Y-53161313D01*
X90030000Y-53144883D01*
X90196820Y-53161313D01*
X90196820Y-53161313D01*
G37*
G36*
X92736820Y-53161313D02*
X92736823Y-53161314D01*
X92736824Y-53161314D01*
X92897238Y-53209975D01*
X92897240Y-53209976D01*
X92897243Y-53209977D01*
X93045078Y-53288995D01*
X93174659Y-53395341D01*
X93281005Y-53524922D01*
X93360023Y-53672756D01*
X93408687Y-53833179D01*
X93421000Y-53958196D01*
X93421000Y-54841803D01*
X93408687Y-54966820D01*
X93408686Y-54966822D01*
X93408686Y-54966825D01*
X93366671Y-55105329D01*
X93360023Y-55127244D01*
X93281005Y-55275078D01*
X93174659Y-55404659D01*
X93045078Y-55511005D01*
X92897244Y-55590023D01*
X92897241Y-55590024D01*
X92897239Y-55590025D01*
X92736825Y-55638686D01*
X92736824Y-55638686D01*
X92736821Y-55638687D01*
X92570000Y-55655117D01*
X92403180Y-55638687D01*
X92403177Y-55638686D01*
X92403176Y-55638686D01*
X92242762Y-55590025D01*
X92242760Y-55590024D01*
X92242757Y-55590023D01*
X92094923Y-55511005D01*
X91965342Y-55404659D01*
X91858996Y-55275078D01*
X91779978Y-55127244D01*
X91773330Y-55105327D01*
X91731315Y-54966825D01*
X91731315Y-54966824D01*
X91731314Y-54966821D01*
X91719000Y-54841803D01*
X91719000Y-53958197D01*
X91731313Y-53833180D01*
X91731314Y-53833176D01*
X91779975Y-53672762D01*
X91779976Y-53672760D01*
X91779977Y-53672757D01*
X91858995Y-53524922D01*
X91965341Y-53395341D01*
X92094922Y-53288995D01*
X92242756Y-53209977D01*
X92242759Y-53209976D01*
X92242761Y-53209975D01*
X92403175Y-53161314D01*
X92403176Y-53161314D01*
X92403179Y-53161313D01*
X92570000Y-53144883D01*
X92736820Y-53161313D01*
X92736820Y-53161313D01*
G37*
G36*
X97816820Y-53161313D02*
X97816823Y-53161314D01*
X97816824Y-53161314D01*
X97977238Y-53209975D01*
X97977240Y-53209976D01*
X97977243Y-53209977D01*
X98125078Y-53288995D01*
X98254659Y-53395341D01*
X98361005Y-53524922D01*
X98440023Y-53672756D01*
X98488687Y-53833179D01*
X98501000Y-53958196D01*
X98501000Y-54841803D01*
X98488687Y-54966820D01*
X98488686Y-54966822D01*
X98488686Y-54966825D01*
X98446671Y-55105329D01*
X98440023Y-55127244D01*
X98361005Y-55275078D01*
X98254659Y-55404659D01*
X98125078Y-55511005D01*
X97977244Y-55590023D01*
X97977241Y-55590024D01*
X97977239Y-55590025D01*
X97816825Y-55638686D01*
X97816824Y-55638686D01*
X97816821Y-55638687D01*
X97650000Y-55655117D01*
X97483180Y-55638687D01*
X97483177Y-55638686D01*
X97483176Y-55638686D01*
X97322762Y-55590025D01*
X97322760Y-55590024D01*
X97322757Y-55590023D01*
X97174923Y-55511005D01*
X97045342Y-55404659D01*
X96938996Y-55275078D01*
X96859978Y-55127244D01*
X96853330Y-55105327D01*
X96811315Y-54966825D01*
X96811315Y-54966824D01*
X96811314Y-54966821D01*
X96799000Y-54841803D01*
X96799000Y-53958197D01*
X96811313Y-53833180D01*
X96811314Y-53833176D01*
X96859975Y-53672762D01*
X96859976Y-53672760D01*
X96859977Y-53672757D01*
X96938995Y-53524922D01*
X97045341Y-53395341D01*
X97174922Y-53288995D01*
X97322756Y-53209977D01*
X97322759Y-53209976D01*
X97322761Y-53209975D01*
X97483175Y-53161314D01*
X97483176Y-53161314D01*
X97483179Y-53161313D01*
X97650000Y-53144883D01*
X97816820Y-53161313D01*
X97816820Y-53161313D01*
G37*
G36*
X77496820Y-53161313D02*
X77496823Y-53161314D01*
X77496824Y-53161314D01*
X77657238Y-53209975D01*
X77657240Y-53209976D01*
X77657243Y-53209977D01*
X77805078Y-53288995D01*
X77934659Y-53395341D01*
X78041005Y-53524922D01*
X78120023Y-53672756D01*
X78168687Y-53833179D01*
X78181000Y-53958196D01*
X78181000Y-54841803D01*
X78168687Y-54966820D01*
X78168686Y-54966822D01*
X78168686Y-54966825D01*
X78126671Y-55105329D01*
X78120023Y-55127244D01*
X78041005Y-55275078D01*
X77934659Y-55404659D01*
X77805078Y-55511005D01*
X77657244Y-55590023D01*
X77657241Y-55590024D01*
X77657239Y-55590025D01*
X77496825Y-55638686D01*
X77496824Y-55638686D01*
X77496821Y-55638687D01*
X77330000Y-55655117D01*
X77163180Y-55638687D01*
X77163177Y-55638686D01*
X77163176Y-55638686D01*
X77002762Y-55590025D01*
X77002760Y-55590024D01*
X77002757Y-55590023D01*
X76854923Y-55511005D01*
X76725342Y-55404659D01*
X76618996Y-55275078D01*
X76539978Y-55127244D01*
X76533330Y-55105327D01*
X76491315Y-54966825D01*
X76491315Y-54966824D01*
X76491314Y-54966821D01*
X76479000Y-54841803D01*
X76479000Y-53958197D01*
X76491313Y-53833180D01*
X76491314Y-53833176D01*
X76539975Y-53672762D01*
X76539976Y-53672760D01*
X76539977Y-53672757D01*
X76618995Y-53524922D01*
X76725341Y-53395341D01*
X76854922Y-53288995D01*
X77002756Y-53209977D01*
X77002759Y-53209976D01*
X77002761Y-53209975D01*
X77163175Y-53161314D01*
X77163176Y-53161314D01*
X77163179Y-53161313D01*
X77330000Y-53144883D01*
X77496820Y-53161313D01*
X77496820Y-53161313D01*
G37*
G36*
X95276820Y-53161313D02*
X95276823Y-53161314D01*
X95276824Y-53161314D01*
X95437238Y-53209975D01*
X95437240Y-53209976D01*
X95437243Y-53209977D01*
X95585078Y-53288995D01*
X95714659Y-53395341D01*
X95821005Y-53524922D01*
X95900023Y-53672756D01*
X95948687Y-53833179D01*
X95961000Y-53958196D01*
X95961000Y-54841803D01*
X95948687Y-54966820D01*
X95948686Y-54966822D01*
X95948686Y-54966825D01*
X95906671Y-55105329D01*
X95900023Y-55127244D01*
X95821005Y-55275078D01*
X95714659Y-55404659D01*
X95585078Y-55511005D01*
X95437244Y-55590023D01*
X95437241Y-55590024D01*
X95437239Y-55590025D01*
X95276825Y-55638686D01*
X95276824Y-55638686D01*
X95276821Y-55638687D01*
X95110000Y-55655117D01*
X94943180Y-55638687D01*
X94943177Y-55638686D01*
X94943176Y-55638686D01*
X94782762Y-55590025D01*
X94782760Y-55590024D01*
X94782757Y-55590023D01*
X94634923Y-55511005D01*
X94505342Y-55404659D01*
X94398996Y-55275078D01*
X94319978Y-55127244D01*
X94313330Y-55105327D01*
X94271315Y-54966825D01*
X94271315Y-54966824D01*
X94271314Y-54966821D01*
X94259000Y-54841803D01*
X94259000Y-53958197D01*
X94271313Y-53833180D01*
X94271314Y-53833176D01*
X94319975Y-53672762D01*
X94319976Y-53672760D01*
X94319977Y-53672757D01*
X94398995Y-53524922D01*
X94505341Y-53395341D01*
X94634922Y-53288995D01*
X94782756Y-53209977D01*
X94782759Y-53209976D01*
X94782761Y-53209975D01*
X94943175Y-53161314D01*
X94943176Y-53161314D01*
X94943179Y-53161313D01*
X95110000Y-53144883D01*
X95276820Y-53161313D01*
X95276820Y-53161313D01*
G37*
G36*
X65481000Y-55651000D02*
X63779000Y-55651000D01*
X63779000Y-53149000D01*
X65481000Y-53149000D01*
X65481000Y-55651000D01*
X65481000Y-55651000D01*
G37*
G36*
X53358184Y-50787472D02*
X53424369Y-50793991D01*
X53537595Y-50828338D01*
X53594209Y-50845511D01*
X53690950Y-50897221D01*
X53750733Y-50929176D01*
X53786471Y-50958506D01*
X53887928Y-51041768D01*
X53971190Y-51143225D01*
X54000520Y-51178963D01*
X54000521Y-51178965D01*
X54084185Y-51335487D01*
X54084185Y-51335488D01*
X54135705Y-51505327D01*
X54153101Y-51681954D01*
X54135705Y-51858581D01*
X54101358Y-51971807D01*
X54084185Y-52028421D01*
X54017601Y-52152989D01*
X54000520Y-52184945D01*
X53971190Y-52220683D01*
X53887928Y-52322140D01*
X53789669Y-52402778D01*
X53750733Y-52434732D01*
X53750731Y-52434733D01*
X53594209Y-52518397D01*
X53537595Y-52535570D01*
X53424369Y-52569917D01*
X53358185Y-52576435D01*
X53292002Y-52582954D01*
X53203482Y-52582954D01*
X53137299Y-52576435D01*
X53071115Y-52569917D01*
X52957889Y-52535570D01*
X52901275Y-52518397D01*
X52744753Y-52434733D01*
X52744751Y-52434732D01*
X52705815Y-52402778D01*
X52607556Y-52322140D01*
X52524294Y-52220683D01*
X52494964Y-52184945D01*
X52477883Y-52152989D01*
X52411299Y-52028421D01*
X52394126Y-51971807D01*
X52359779Y-51858581D01*
X52342383Y-51681954D01*
X52359779Y-51505327D01*
X52411299Y-51335488D01*
X52411299Y-51335487D01*
X52494963Y-51178965D01*
X52494964Y-51178963D01*
X52524294Y-51143225D01*
X52607556Y-51041768D01*
X52709013Y-50958506D01*
X52744751Y-50929176D01*
X52804534Y-50897221D01*
X52901275Y-50845511D01*
X52957889Y-50828338D01*
X53071115Y-50793991D01*
X53137300Y-50787472D01*
X53203482Y-50780954D01*
X53292002Y-50780954D01*
X53358184Y-50787472D01*
X53358184Y-50787472D01*
G37*
G36*
X55898184Y-50787472D02*
X55964369Y-50793991D01*
X56077595Y-50828338D01*
X56134209Y-50845511D01*
X56230950Y-50897221D01*
X56290733Y-50929176D01*
X56326471Y-50958506D01*
X56427928Y-51041768D01*
X56511190Y-51143225D01*
X56540520Y-51178963D01*
X56540521Y-51178965D01*
X56624185Y-51335487D01*
X56624185Y-51335488D01*
X56675705Y-51505327D01*
X56693101Y-51681954D01*
X56675705Y-51858581D01*
X56641358Y-51971807D01*
X56624185Y-52028421D01*
X56557601Y-52152989D01*
X56540520Y-52184945D01*
X56511190Y-52220683D01*
X56427928Y-52322140D01*
X56329669Y-52402778D01*
X56290733Y-52434732D01*
X56290731Y-52434733D01*
X56134209Y-52518397D01*
X56077595Y-52535570D01*
X55964369Y-52569917D01*
X55898185Y-52576435D01*
X55832002Y-52582954D01*
X55743482Y-52582954D01*
X55677299Y-52576435D01*
X55611115Y-52569917D01*
X55497889Y-52535570D01*
X55441275Y-52518397D01*
X55284753Y-52434733D01*
X55284751Y-52434732D01*
X55245815Y-52402778D01*
X55147556Y-52322140D01*
X55064294Y-52220683D01*
X55034964Y-52184945D01*
X55017883Y-52152989D01*
X54951299Y-52028421D01*
X54934126Y-51971807D01*
X54899779Y-51858581D01*
X54882383Y-51681954D01*
X54899779Y-51505327D01*
X54951299Y-51335488D01*
X54951299Y-51335487D01*
X55034963Y-51178965D01*
X55034964Y-51178963D01*
X55064294Y-51143225D01*
X55147556Y-51041768D01*
X55249013Y-50958506D01*
X55284751Y-50929176D01*
X55344534Y-50897221D01*
X55441275Y-50845511D01*
X55497889Y-50828338D01*
X55611115Y-50793991D01*
X55677300Y-50787472D01*
X55743482Y-50780954D01*
X55832002Y-50780954D01*
X55898184Y-50787472D01*
X55898184Y-50787472D01*
G37*
G36*
X59228742Y-52582954D02*
X57426742Y-52582954D01*
X57426742Y-50780954D01*
X59228742Y-50780954D01*
X59228742Y-52582954D01*
X59228742Y-52582954D01*
G37*
G36*
X104791000Y-52551000D02*
X102989000Y-52551000D01*
X102989000Y-50749000D01*
X104791000Y-50749000D01*
X104791000Y-52551000D01*
X104791000Y-52551000D01*
G37*
G36*
X106540442Y-50755518D02*
X106606627Y-50762037D01*
X106711965Y-50793991D01*
X106776467Y-50813557D01*
X106915087Y-50887652D01*
X106932991Y-50897222D01*
X106968729Y-50926552D01*
X107070186Y-51009814D01*
X107153448Y-51111271D01*
X107182778Y-51147009D01*
X107182779Y-51147011D01*
X107266443Y-51303533D01*
X107266443Y-51303534D01*
X107317963Y-51473373D01*
X107335359Y-51650000D01*
X107317963Y-51826627D01*
X107283616Y-51939853D01*
X107266443Y-51996467D01*
X107249363Y-52028421D01*
X107182778Y-52152991D01*
X107156555Y-52184943D01*
X107070186Y-52290186D01*
X106968729Y-52373448D01*
X106932991Y-52402778D01*
X106932989Y-52402779D01*
X106776467Y-52486443D01*
X106719853Y-52503616D01*
X106606627Y-52537963D01*
X106540442Y-52544482D01*
X106474260Y-52551000D01*
X106385740Y-52551000D01*
X106319558Y-52544482D01*
X106253373Y-52537963D01*
X106140147Y-52503616D01*
X106083533Y-52486443D01*
X105927011Y-52402779D01*
X105927009Y-52402778D01*
X105891271Y-52373448D01*
X105789814Y-52290186D01*
X105703445Y-52184943D01*
X105677222Y-52152991D01*
X105610637Y-52028421D01*
X105593557Y-51996467D01*
X105576384Y-51939853D01*
X105542037Y-51826627D01*
X105524641Y-51650000D01*
X105542037Y-51473373D01*
X105593557Y-51303534D01*
X105593557Y-51303533D01*
X105677221Y-51147011D01*
X105677222Y-51147009D01*
X105706552Y-51111271D01*
X105789814Y-51009814D01*
X105891271Y-50926552D01*
X105927009Y-50897222D01*
X105944913Y-50887652D01*
X106083533Y-50813557D01*
X106148035Y-50793991D01*
X106253373Y-50762037D01*
X106319558Y-50755518D01*
X106385740Y-50749000D01*
X106474260Y-50749000D01*
X106540442Y-50755518D01*
X106540442Y-50755518D01*
G37*
G36*
X109080442Y-50755518D02*
X109146627Y-50762037D01*
X109251965Y-50793991D01*
X109316467Y-50813557D01*
X109455087Y-50887652D01*
X109472991Y-50897222D01*
X109508729Y-50926552D01*
X109610186Y-51009814D01*
X109693448Y-51111271D01*
X109722778Y-51147009D01*
X109722779Y-51147011D01*
X109806443Y-51303533D01*
X109806443Y-51303534D01*
X109857963Y-51473373D01*
X109875359Y-51650000D01*
X109857963Y-51826627D01*
X109823616Y-51939853D01*
X109806443Y-51996467D01*
X109789363Y-52028421D01*
X109722778Y-52152991D01*
X109696555Y-52184943D01*
X109610186Y-52290186D01*
X109508729Y-52373448D01*
X109472991Y-52402778D01*
X109472989Y-52402779D01*
X109316467Y-52486443D01*
X109259853Y-52503616D01*
X109146627Y-52537963D01*
X109080442Y-52544482D01*
X109014260Y-52551000D01*
X108925740Y-52551000D01*
X108859558Y-52544482D01*
X108793373Y-52537963D01*
X108680147Y-52503616D01*
X108623533Y-52486443D01*
X108467011Y-52402779D01*
X108467009Y-52402778D01*
X108431271Y-52373448D01*
X108329814Y-52290186D01*
X108243445Y-52184943D01*
X108217222Y-52152991D01*
X108150637Y-52028421D01*
X108133557Y-51996467D01*
X108116384Y-51939853D01*
X108082037Y-51826627D01*
X108064641Y-51650000D01*
X108082037Y-51473373D01*
X108133557Y-51303534D01*
X108133557Y-51303533D01*
X108217221Y-51147011D01*
X108217222Y-51147009D01*
X108246552Y-51111271D01*
X108329814Y-51009814D01*
X108431271Y-50926552D01*
X108467009Y-50897222D01*
X108484913Y-50887652D01*
X108623533Y-50813557D01*
X108688035Y-50793991D01*
X108793373Y-50762037D01*
X108859558Y-50755518D01*
X108925740Y-50749000D01*
X109014260Y-50749000D01*
X109080442Y-50755518D01*
X109080442Y-50755518D01*
G37*
G36*
X55898185Y-47187473D02*
X55964369Y-47193991D01*
X56056043Y-47221800D01*
X56134209Y-47245511D01*
X56156118Y-47257222D01*
X56290733Y-47329176D01*
X56312232Y-47346820D01*
X56427928Y-47441768D01*
X56511190Y-47543225D01*
X56540520Y-47578963D01*
X56540521Y-47578965D01*
X56624185Y-47735487D01*
X56624185Y-47735488D01*
X56675705Y-47905327D01*
X56693101Y-48081954D01*
X56675705Y-48258581D01*
X56646012Y-48356466D01*
X56624185Y-48428421D01*
X56578982Y-48512989D01*
X56540520Y-48584945D01*
X56511190Y-48620683D01*
X56427928Y-48722140D01*
X56326471Y-48805402D01*
X56290733Y-48834732D01*
X56290731Y-48834733D01*
X56134209Y-48918397D01*
X56077595Y-48935570D01*
X55964369Y-48969917D01*
X55898185Y-48976435D01*
X55832002Y-48982954D01*
X55743482Y-48982954D01*
X55677299Y-48976435D01*
X55611115Y-48969917D01*
X55497889Y-48935570D01*
X55441275Y-48918397D01*
X55284753Y-48834733D01*
X55284751Y-48834732D01*
X55249013Y-48805402D01*
X55147556Y-48722140D01*
X55064294Y-48620683D01*
X55034964Y-48584945D01*
X54996502Y-48512989D01*
X54951299Y-48428421D01*
X54929472Y-48356466D01*
X54899779Y-48258581D01*
X54882383Y-48081954D01*
X54899779Y-47905327D01*
X54951299Y-47735488D01*
X54951299Y-47735487D01*
X55034963Y-47578965D01*
X55034964Y-47578963D01*
X55064294Y-47543225D01*
X55147556Y-47441768D01*
X55263252Y-47346820D01*
X55284751Y-47329176D01*
X55419366Y-47257222D01*
X55441275Y-47245511D01*
X55519441Y-47221800D01*
X55611115Y-47193991D01*
X55677299Y-47187473D01*
X55743482Y-47180954D01*
X55832002Y-47180954D01*
X55898185Y-47187473D01*
X55898185Y-47187473D01*
G37*
G36*
X59228742Y-48982954D02*
X57426742Y-48982954D01*
X57426742Y-47180954D01*
X59228742Y-47180954D01*
X59228742Y-48982954D01*
X59228742Y-48982954D01*
G37*
G36*
X53358185Y-47187473D02*
X53424369Y-47193991D01*
X53516043Y-47221800D01*
X53594209Y-47245511D01*
X53616118Y-47257222D01*
X53750733Y-47329176D01*
X53772232Y-47346820D01*
X53887928Y-47441768D01*
X53971190Y-47543225D01*
X54000520Y-47578963D01*
X54000521Y-47578965D01*
X54084185Y-47735487D01*
X54084185Y-47735488D01*
X54135705Y-47905327D01*
X54153101Y-48081954D01*
X54135705Y-48258581D01*
X54106012Y-48356466D01*
X54084185Y-48428421D01*
X54038982Y-48512989D01*
X54000520Y-48584945D01*
X53971190Y-48620683D01*
X53887928Y-48722140D01*
X53786471Y-48805402D01*
X53750733Y-48834732D01*
X53750731Y-48834733D01*
X53594209Y-48918397D01*
X53537595Y-48935570D01*
X53424369Y-48969917D01*
X53358185Y-48976435D01*
X53292002Y-48982954D01*
X53203482Y-48982954D01*
X53137299Y-48976435D01*
X53071115Y-48969917D01*
X52957889Y-48935570D01*
X52901275Y-48918397D01*
X52744753Y-48834733D01*
X52744751Y-48834732D01*
X52709013Y-48805402D01*
X52607556Y-48722140D01*
X52524294Y-48620683D01*
X52494964Y-48584945D01*
X52456502Y-48512989D01*
X52411299Y-48428421D01*
X52389472Y-48356466D01*
X52359779Y-48258581D01*
X52342383Y-48081954D01*
X52359779Y-47905327D01*
X52411299Y-47735488D01*
X52411299Y-47735487D01*
X52494963Y-47578965D01*
X52494964Y-47578963D01*
X52524294Y-47543225D01*
X52607556Y-47441768D01*
X52723252Y-47346820D01*
X52744751Y-47329176D01*
X52879366Y-47257222D01*
X52901275Y-47245511D01*
X52979441Y-47221800D01*
X53071115Y-47193991D01*
X53137299Y-47187473D01*
X53203482Y-47180954D01*
X53292002Y-47180954D01*
X53358185Y-47187473D01*
X53358185Y-47187473D01*
G37*
G36*
X109080443Y-47115519D02*
X109146627Y-47122037D01*
X109259853Y-47156384D01*
X109316467Y-47173557D01*
X109451081Y-47245511D01*
X109472991Y-47257222D01*
X109508729Y-47286552D01*
X109610186Y-47369814D01*
X109669236Y-47441768D01*
X109722778Y-47507009D01*
X109722779Y-47507011D01*
X109806443Y-47663533D01*
X109806443Y-47663534D01*
X109857963Y-47833373D01*
X109875359Y-48010000D01*
X109857963Y-48186627D01*
X109836136Y-48258581D01*
X109806443Y-48356467D01*
X109767982Y-48428421D01*
X109722778Y-48512991D01*
X109693448Y-48548729D01*
X109610186Y-48650186D01*
X109522508Y-48722140D01*
X109472991Y-48762778D01*
X109472989Y-48762779D01*
X109316467Y-48846443D01*
X109259853Y-48863616D01*
X109146627Y-48897963D01*
X109080443Y-48904481D01*
X109014260Y-48911000D01*
X108925740Y-48911000D01*
X108859558Y-48904482D01*
X108793373Y-48897963D01*
X108680147Y-48863616D01*
X108623533Y-48846443D01*
X108467011Y-48762779D01*
X108467009Y-48762778D01*
X108417492Y-48722140D01*
X108329814Y-48650186D01*
X108246552Y-48548729D01*
X108217222Y-48512991D01*
X108172018Y-48428421D01*
X108133557Y-48356467D01*
X108103864Y-48258581D01*
X108082037Y-48186627D01*
X108064641Y-48010000D01*
X108082037Y-47833373D01*
X108133557Y-47663534D01*
X108133557Y-47663533D01*
X108217221Y-47507011D01*
X108217222Y-47507009D01*
X108270764Y-47441768D01*
X108329814Y-47369814D01*
X108431271Y-47286552D01*
X108467009Y-47257222D01*
X108488919Y-47245511D01*
X108623533Y-47173557D01*
X108680147Y-47156384D01*
X108793373Y-47122037D01*
X108859558Y-47115518D01*
X108925740Y-47109000D01*
X109014260Y-47109000D01*
X109080443Y-47115519D01*
X109080443Y-47115519D01*
G37*
G36*
X104791000Y-48911000D02*
X102989000Y-48911000D01*
X102989000Y-47109000D01*
X104791000Y-47109000D01*
X104791000Y-48911000D01*
X104791000Y-48911000D01*
G37*
G36*
X106540443Y-47115519D02*
X106606627Y-47122037D01*
X106719853Y-47156384D01*
X106776467Y-47173557D01*
X106911081Y-47245511D01*
X106932991Y-47257222D01*
X106968729Y-47286552D01*
X107070186Y-47369814D01*
X107129236Y-47441768D01*
X107182778Y-47507009D01*
X107182779Y-47507011D01*
X107266443Y-47663533D01*
X107266443Y-47663534D01*
X107317963Y-47833373D01*
X107335359Y-48010000D01*
X107317963Y-48186627D01*
X107296136Y-48258581D01*
X107266443Y-48356467D01*
X107227982Y-48428421D01*
X107182778Y-48512991D01*
X107153448Y-48548729D01*
X107070186Y-48650186D01*
X106982508Y-48722140D01*
X106932991Y-48762778D01*
X106932989Y-48762779D01*
X106776467Y-48846443D01*
X106719853Y-48863616D01*
X106606627Y-48897963D01*
X106540443Y-48904481D01*
X106474260Y-48911000D01*
X106385740Y-48911000D01*
X106319558Y-48904482D01*
X106253373Y-48897963D01*
X106140147Y-48863616D01*
X106083533Y-48846443D01*
X105927011Y-48762779D01*
X105927009Y-48762778D01*
X105877492Y-48722140D01*
X105789814Y-48650186D01*
X105706552Y-48548729D01*
X105677222Y-48512991D01*
X105632018Y-48428421D01*
X105593557Y-48356467D01*
X105563864Y-48258581D01*
X105542037Y-48186627D01*
X105524641Y-48010000D01*
X105542037Y-47833373D01*
X105593557Y-47663534D01*
X105593557Y-47663533D01*
X105677221Y-47507011D01*
X105677222Y-47507009D01*
X105730764Y-47441768D01*
X105789814Y-47369814D01*
X105891271Y-47286552D01*
X105927009Y-47257222D01*
X105948919Y-47245511D01*
X106083533Y-47173557D01*
X106140147Y-47156384D01*
X106253373Y-47122037D01*
X106319558Y-47115518D01*
X106385740Y-47109000D01*
X106474260Y-47109000D01*
X106540443Y-47115519D01*
X106540443Y-47115519D01*
G37*
G36*
X72416820Y-45541313D02*
X72416823Y-45541314D01*
X72416824Y-45541314D01*
X72577238Y-45589975D01*
X72577240Y-45589976D01*
X72577243Y-45589977D01*
X72725078Y-45668995D01*
X72854659Y-45775341D01*
X72961005Y-45904922D01*
X73040023Y-46052756D01*
X73088687Y-46213179D01*
X73101000Y-46338196D01*
X73101000Y-47221803D01*
X73088687Y-47346820D01*
X73088686Y-47346822D01*
X73088686Y-47346825D01*
X73040094Y-47507011D01*
X73040023Y-47507244D01*
X72961005Y-47655078D01*
X72854659Y-47784659D01*
X72725078Y-47891005D01*
X72577244Y-47970023D01*
X72577241Y-47970024D01*
X72577239Y-47970025D01*
X72416825Y-48018686D01*
X72416824Y-48018686D01*
X72416821Y-48018687D01*
X72250000Y-48035117D01*
X72083180Y-48018687D01*
X72083177Y-48018686D01*
X72083176Y-48018686D01*
X71922762Y-47970025D01*
X71922760Y-47970024D01*
X71922757Y-47970023D01*
X71774923Y-47891005D01*
X71645342Y-47784659D01*
X71538996Y-47655078D01*
X71459978Y-47507244D01*
X71459907Y-47507009D01*
X71411315Y-47346825D01*
X71411315Y-47346824D01*
X71411314Y-47346821D01*
X71399000Y-47221803D01*
X71399000Y-46338197D01*
X71411313Y-46213180D01*
X71411314Y-46213176D01*
X71459975Y-46052762D01*
X71459976Y-46052760D01*
X71459977Y-46052757D01*
X71538995Y-45904922D01*
X71645341Y-45775341D01*
X71774922Y-45668995D01*
X71922756Y-45589977D01*
X71922759Y-45589976D01*
X71922761Y-45589975D01*
X72083175Y-45541314D01*
X72083176Y-45541314D01*
X72083179Y-45541313D01*
X72250000Y-45524883D01*
X72416820Y-45541313D01*
X72416820Y-45541313D01*
G37*
G36*
X69876820Y-45541313D02*
X69876823Y-45541314D01*
X69876824Y-45541314D01*
X70037238Y-45589975D01*
X70037240Y-45589976D01*
X70037243Y-45589977D01*
X70185078Y-45668995D01*
X70314659Y-45775341D01*
X70421005Y-45904922D01*
X70500023Y-46052756D01*
X70548687Y-46213179D01*
X70561000Y-46338196D01*
X70561000Y-47221803D01*
X70548687Y-47346820D01*
X70548686Y-47346822D01*
X70548686Y-47346825D01*
X70500094Y-47507011D01*
X70500023Y-47507244D01*
X70421005Y-47655078D01*
X70314659Y-47784659D01*
X70185078Y-47891005D01*
X70037244Y-47970023D01*
X70037241Y-47970024D01*
X70037239Y-47970025D01*
X69876825Y-48018686D01*
X69876824Y-48018686D01*
X69876821Y-48018687D01*
X69710000Y-48035117D01*
X69543180Y-48018687D01*
X69543177Y-48018686D01*
X69543176Y-48018686D01*
X69382762Y-47970025D01*
X69382760Y-47970024D01*
X69382757Y-47970023D01*
X69234923Y-47891005D01*
X69105342Y-47784659D01*
X68998996Y-47655078D01*
X68919978Y-47507244D01*
X68919907Y-47507009D01*
X68871315Y-47346825D01*
X68871315Y-47346824D01*
X68871314Y-47346821D01*
X68859000Y-47221803D01*
X68859000Y-46338197D01*
X68871313Y-46213180D01*
X68871314Y-46213176D01*
X68919975Y-46052762D01*
X68919976Y-46052760D01*
X68919977Y-46052757D01*
X68998995Y-45904922D01*
X69105341Y-45775341D01*
X69234922Y-45668995D01*
X69382756Y-45589977D01*
X69382759Y-45589976D01*
X69382761Y-45589975D01*
X69543175Y-45541314D01*
X69543176Y-45541314D01*
X69543179Y-45541313D01*
X69710000Y-45524883D01*
X69876820Y-45541313D01*
X69876820Y-45541313D01*
G37*
G36*
X77496820Y-45541313D02*
X77496823Y-45541314D01*
X77496824Y-45541314D01*
X77657238Y-45589975D01*
X77657240Y-45589976D01*
X77657243Y-45589977D01*
X77805078Y-45668995D01*
X77934659Y-45775341D01*
X78041005Y-45904922D01*
X78120023Y-46052756D01*
X78168687Y-46213179D01*
X78181000Y-46338196D01*
X78181000Y-47221803D01*
X78168687Y-47346820D01*
X78168686Y-47346822D01*
X78168686Y-47346825D01*
X78120094Y-47507011D01*
X78120023Y-47507244D01*
X78041005Y-47655078D01*
X77934659Y-47784659D01*
X77805078Y-47891005D01*
X77657244Y-47970023D01*
X77657241Y-47970024D01*
X77657239Y-47970025D01*
X77496825Y-48018686D01*
X77496824Y-48018686D01*
X77496821Y-48018687D01*
X77330000Y-48035117D01*
X77163180Y-48018687D01*
X77163177Y-48018686D01*
X77163176Y-48018686D01*
X77002762Y-47970025D01*
X77002760Y-47970024D01*
X77002757Y-47970023D01*
X76854923Y-47891005D01*
X76725342Y-47784659D01*
X76618996Y-47655078D01*
X76539978Y-47507244D01*
X76539907Y-47507009D01*
X76491315Y-47346825D01*
X76491315Y-47346824D01*
X76491314Y-47346821D01*
X76479000Y-47221803D01*
X76479000Y-46338197D01*
X76491313Y-46213180D01*
X76491314Y-46213176D01*
X76539975Y-46052762D01*
X76539976Y-46052760D01*
X76539977Y-46052757D01*
X76618995Y-45904922D01*
X76725341Y-45775341D01*
X76854922Y-45668995D01*
X77002756Y-45589977D01*
X77002759Y-45589976D01*
X77002761Y-45589975D01*
X77163175Y-45541314D01*
X77163176Y-45541314D01*
X77163179Y-45541313D01*
X77330000Y-45524883D01*
X77496820Y-45541313D01*
X77496820Y-45541313D01*
G37*
G36*
X80036820Y-45541313D02*
X80036823Y-45541314D01*
X80036824Y-45541314D01*
X80197238Y-45589975D01*
X80197240Y-45589976D01*
X80197243Y-45589977D01*
X80345078Y-45668995D01*
X80474659Y-45775341D01*
X80581005Y-45904922D01*
X80660023Y-46052756D01*
X80708687Y-46213179D01*
X80721000Y-46338196D01*
X80721000Y-47221803D01*
X80708687Y-47346820D01*
X80708686Y-47346822D01*
X80708686Y-47346825D01*
X80660094Y-47507011D01*
X80660023Y-47507244D01*
X80581005Y-47655078D01*
X80474659Y-47784659D01*
X80345078Y-47891005D01*
X80197244Y-47970023D01*
X80197241Y-47970024D01*
X80197239Y-47970025D01*
X80036825Y-48018686D01*
X80036824Y-48018686D01*
X80036821Y-48018687D01*
X79870000Y-48035117D01*
X79703180Y-48018687D01*
X79703177Y-48018686D01*
X79703176Y-48018686D01*
X79542762Y-47970025D01*
X79542760Y-47970024D01*
X79542757Y-47970023D01*
X79394923Y-47891005D01*
X79265342Y-47784659D01*
X79158996Y-47655078D01*
X79079978Y-47507244D01*
X79079907Y-47507009D01*
X79031315Y-47346825D01*
X79031315Y-47346824D01*
X79031314Y-47346821D01*
X79019000Y-47221803D01*
X79019000Y-46338197D01*
X79031313Y-46213180D01*
X79031314Y-46213176D01*
X79079975Y-46052762D01*
X79079976Y-46052760D01*
X79079977Y-46052757D01*
X79158995Y-45904922D01*
X79265341Y-45775341D01*
X79394922Y-45668995D01*
X79542756Y-45589977D01*
X79542759Y-45589976D01*
X79542761Y-45589975D01*
X79703175Y-45541314D01*
X79703176Y-45541314D01*
X79703179Y-45541313D01*
X79870000Y-45524883D01*
X80036820Y-45541313D01*
X80036820Y-45541313D01*
G37*
G36*
X82576820Y-45541313D02*
X82576823Y-45541314D01*
X82576824Y-45541314D01*
X82737238Y-45589975D01*
X82737240Y-45589976D01*
X82737243Y-45589977D01*
X82885078Y-45668995D01*
X83014659Y-45775341D01*
X83121005Y-45904922D01*
X83200023Y-46052756D01*
X83248687Y-46213179D01*
X83261000Y-46338196D01*
X83261000Y-47221803D01*
X83248687Y-47346820D01*
X83248686Y-47346822D01*
X83248686Y-47346825D01*
X83200094Y-47507011D01*
X83200023Y-47507244D01*
X83121005Y-47655078D01*
X83014659Y-47784659D01*
X82885078Y-47891005D01*
X82737244Y-47970023D01*
X82737241Y-47970024D01*
X82737239Y-47970025D01*
X82576825Y-48018686D01*
X82576824Y-48018686D01*
X82576821Y-48018687D01*
X82410000Y-48035117D01*
X82243180Y-48018687D01*
X82243177Y-48018686D01*
X82243176Y-48018686D01*
X82082762Y-47970025D01*
X82082760Y-47970024D01*
X82082757Y-47970023D01*
X81934923Y-47891005D01*
X81805342Y-47784659D01*
X81698996Y-47655078D01*
X81619978Y-47507244D01*
X81619907Y-47507009D01*
X81571315Y-47346825D01*
X81571315Y-47346824D01*
X81571314Y-47346821D01*
X81559000Y-47221803D01*
X81559000Y-46338197D01*
X81571313Y-46213180D01*
X81571314Y-46213176D01*
X81619975Y-46052762D01*
X81619976Y-46052760D01*
X81619977Y-46052757D01*
X81698995Y-45904922D01*
X81805341Y-45775341D01*
X81934922Y-45668995D01*
X82082756Y-45589977D01*
X82082759Y-45589976D01*
X82082761Y-45589975D01*
X82243175Y-45541314D01*
X82243176Y-45541314D01*
X82243179Y-45541313D01*
X82410000Y-45524883D01*
X82576820Y-45541313D01*
X82576820Y-45541313D01*
G37*
G36*
X85116820Y-45541313D02*
X85116823Y-45541314D01*
X85116824Y-45541314D01*
X85277238Y-45589975D01*
X85277240Y-45589976D01*
X85277243Y-45589977D01*
X85425078Y-45668995D01*
X85554659Y-45775341D01*
X85661005Y-45904922D01*
X85740023Y-46052756D01*
X85788687Y-46213179D01*
X85801000Y-46338196D01*
X85801000Y-47221803D01*
X85788687Y-47346820D01*
X85788686Y-47346822D01*
X85788686Y-47346825D01*
X85740094Y-47507011D01*
X85740023Y-47507244D01*
X85661005Y-47655078D01*
X85554659Y-47784659D01*
X85425078Y-47891005D01*
X85277244Y-47970023D01*
X85277241Y-47970024D01*
X85277239Y-47970025D01*
X85116825Y-48018686D01*
X85116824Y-48018686D01*
X85116821Y-48018687D01*
X84950000Y-48035117D01*
X84783180Y-48018687D01*
X84783177Y-48018686D01*
X84783176Y-48018686D01*
X84622762Y-47970025D01*
X84622760Y-47970024D01*
X84622757Y-47970023D01*
X84474923Y-47891005D01*
X84345342Y-47784659D01*
X84238996Y-47655078D01*
X84159978Y-47507244D01*
X84159907Y-47507009D01*
X84111315Y-47346825D01*
X84111315Y-47346824D01*
X84111314Y-47346821D01*
X84099000Y-47221803D01*
X84099000Y-46338197D01*
X84111313Y-46213180D01*
X84111314Y-46213176D01*
X84159975Y-46052762D01*
X84159976Y-46052760D01*
X84159977Y-46052757D01*
X84238995Y-45904922D01*
X84345341Y-45775341D01*
X84474922Y-45668995D01*
X84622756Y-45589977D01*
X84622759Y-45589976D01*
X84622761Y-45589975D01*
X84783175Y-45541314D01*
X84783176Y-45541314D01*
X84783179Y-45541313D01*
X84950000Y-45524883D01*
X85116820Y-45541313D01*
X85116820Y-45541313D01*
G37*
G36*
X74956820Y-45541313D02*
X74956823Y-45541314D01*
X74956824Y-45541314D01*
X75117238Y-45589975D01*
X75117240Y-45589976D01*
X75117243Y-45589977D01*
X75265078Y-45668995D01*
X75394659Y-45775341D01*
X75501005Y-45904922D01*
X75580023Y-46052756D01*
X75628687Y-46213179D01*
X75641000Y-46338196D01*
X75641000Y-47221803D01*
X75628687Y-47346820D01*
X75628686Y-47346822D01*
X75628686Y-47346825D01*
X75580094Y-47507011D01*
X75580023Y-47507244D01*
X75501005Y-47655078D01*
X75394659Y-47784659D01*
X75265078Y-47891005D01*
X75117244Y-47970023D01*
X75117241Y-47970024D01*
X75117239Y-47970025D01*
X74956825Y-48018686D01*
X74956824Y-48018686D01*
X74956821Y-48018687D01*
X74790000Y-48035117D01*
X74623180Y-48018687D01*
X74623177Y-48018686D01*
X74623176Y-48018686D01*
X74462762Y-47970025D01*
X74462760Y-47970024D01*
X74462757Y-47970023D01*
X74314923Y-47891005D01*
X74185342Y-47784659D01*
X74078996Y-47655078D01*
X73999978Y-47507244D01*
X73999907Y-47507009D01*
X73951315Y-47346825D01*
X73951315Y-47346824D01*
X73951314Y-47346821D01*
X73939000Y-47221803D01*
X73939000Y-46338197D01*
X73951313Y-46213180D01*
X73951314Y-46213176D01*
X73999975Y-46052762D01*
X73999976Y-46052760D01*
X73999977Y-46052757D01*
X74078995Y-45904922D01*
X74185341Y-45775341D01*
X74314922Y-45668995D01*
X74462756Y-45589977D01*
X74462759Y-45589976D01*
X74462761Y-45589975D01*
X74623175Y-45541314D01*
X74623176Y-45541314D01*
X74623179Y-45541313D01*
X74790000Y-45524883D01*
X74956820Y-45541313D01*
X74956820Y-45541313D01*
G37*
G36*
X92736820Y-45541313D02*
X92736823Y-45541314D01*
X92736824Y-45541314D01*
X92897238Y-45589975D01*
X92897240Y-45589976D01*
X92897243Y-45589977D01*
X93045078Y-45668995D01*
X93174659Y-45775341D01*
X93281005Y-45904922D01*
X93360023Y-46052756D01*
X93408687Y-46213179D01*
X93421000Y-46338196D01*
X93421000Y-47221803D01*
X93408687Y-47346820D01*
X93408686Y-47346822D01*
X93408686Y-47346825D01*
X93360094Y-47507011D01*
X93360023Y-47507244D01*
X93281005Y-47655078D01*
X93174659Y-47784659D01*
X93045078Y-47891005D01*
X92897244Y-47970023D01*
X92897241Y-47970024D01*
X92897239Y-47970025D01*
X92736825Y-48018686D01*
X92736824Y-48018686D01*
X92736821Y-48018687D01*
X92570000Y-48035117D01*
X92403180Y-48018687D01*
X92403177Y-48018686D01*
X92403176Y-48018686D01*
X92242762Y-47970025D01*
X92242760Y-47970024D01*
X92242757Y-47970023D01*
X92094923Y-47891005D01*
X91965342Y-47784659D01*
X91858996Y-47655078D01*
X91779978Y-47507244D01*
X91779907Y-47507009D01*
X91731315Y-47346825D01*
X91731315Y-47346824D01*
X91731314Y-47346821D01*
X91719000Y-47221803D01*
X91719000Y-46338197D01*
X91731313Y-46213180D01*
X91731314Y-46213176D01*
X91779975Y-46052762D01*
X91779976Y-46052760D01*
X91779977Y-46052757D01*
X91858995Y-45904922D01*
X91965341Y-45775341D01*
X92094922Y-45668995D01*
X92242756Y-45589977D01*
X92242759Y-45589976D01*
X92242761Y-45589975D01*
X92403175Y-45541314D01*
X92403176Y-45541314D01*
X92403179Y-45541313D01*
X92570000Y-45524883D01*
X92736820Y-45541313D01*
X92736820Y-45541313D01*
G37*
G36*
X90196820Y-45541313D02*
X90196823Y-45541314D01*
X90196824Y-45541314D01*
X90357238Y-45589975D01*
X90357240Y-45589976D01*
X90357243Y-45589977D01*
X90505078Y-45668995D01*
X90634659Y-45775341D01*
X90741005Y-45904922D01*
X90820023Y-46052756D01*
X90868687Y-46213179D01*
X90881000Y-46338196D01*
X90881000Y-47221803D01*
X90868687Y-47346820D01*
X90868686Y-47346822D01*
X90868686Y-47346825D01*
X90820094Y-47507011D01*
X90820023Y-47507244D01*
X90741005Y-47655078D01*
X90634659Y-47784659D01*
X90505078Y-47891005D01*
X90357244Y-47970023D01*
X90357241Y-47970024D01*
X90357239Y-47970025D01*
X90196825Y-48018686D01*
X90196824Y-48018686D01*
X90196821Y-48018687D01*
X90030000Y-48035117D01*
X89863180Y-48018687D01*
X89863177Y-48018686D01*
X89863176Y-48018686D01*
X89702762Y-47970025D01*
X89702760Y-47970024D01*
X89702757Y-47970023D01*
X89554923Y-47891005D01*
X89425342Y-47784659D01*
X89318996Y-47655078D01*
X89239978Y-47507244D01*
X89239907Y-47507009D01*
X89191315Y-47346825D01*
X89191315Y-47346824D01*
X89191314Y-47346821D01*
X89179000Y-47221803D01*
X89179000Y-46338197D01*
X89191313Y-46213180D01*
X89191314Y-46213176D01*
X89239975Y-46052762D01*
X89239976Y-46052760D01*
X89239977Y-46052757D01*
X89318995Y-45904922D01*
X89425341Y-45775341D01*
X89554922Y-45668995D01*
X89702756Y-45589977D01*
X89702759Y-45589976D01*
X89702761Y-45589975D01*
X89863175Y-45541314D01*
X89863176Y-45541314D01*
X89863179Y-45541313D01*
X90030000Y-45524883D01*
X90196820Y-45541313D01*
X90196820Y-45541313D01*
G37*
G36*
X87656820Y-45541313D02*
X87656823Y-45541314D01*
X87656824Y-45541314D01*
X87817238Y-45589975D01*
X87817240Y-45589976D01*
X87817243Y-45589977D01*
X87965078Y-45668995D01*
X88094659Y-45775341D01*
X88201005Y-45904922D01*
X88280023Y-46052756D01*
X88328687Y-46213179D01*
X88341000Y-46338196D01*
X88341000Y-47221803D01*
X88328687Y-47346820D01*
X88328686Y-47346822D01*
X88328686Y-47346825D01*
X88280094Y-47507011D01*
X88280023Y-47507244D01*
X88201005Y-47655078D01*
X88094659Y-47784659D01*
X87965078Y-47891005D01*
X87817244Y-47970023D01*
X87817241Y-47970024D01*
X87817239Y-47970025D01*
X87656825Y-48018686D01*
X87656824Y-48018686D01*
X87656821Y-48018687D01*
X87490000Y-48035117D01*
X87323180Y-48018687D01*
X87323177Y-48018686D01*
X87323176Y-48018686D01*
X87162762Y-47970025D01*
X87162760Y-47970024D01*
X87162757Y-47970023D01*
X87014923Y-47891005D01*
X86885342Y-47784659D01*
X86778996Y-47655078D01*
X86699978Y-47507244D01*
X86699907Y-47507009D01*
X86651315Y-47346825D01*
X86651315Y-47346824D01*
X86651314Y-47346821D01*
X86639000Y-47221803D01*
X86639000Y-46338197D01*
X86651313Y-46213180D01*
X86651314Y-46213176D01*
X86699975Y-46052762D01*
X86699976Y-46052760D01*
X86699977Y-46052757D01*
X86778995Y-45904922D01*
X86885341Y-45775341D01*
X87014922Y-45668995D01*
X87162756Y-45589977D01*
X87162759Y-45589976D01*
X87162761Y-45589975D01*
X87323175Y-45541314D01*
X87323176Y-45541314D01*
X87323179Y-45541313D01*
X87490000Y-45524883D01*
X87656820Y-45541313D01*
X87656820Y-45541313D01*
G37*
G36*
X64796820Y-45541313D02*
X64796823Y-45541314D01*
X64796824Y-45541314D01*
X64957238Y-45589975D01*
X64957240Y-45589976D01*
X64957243Y-45589977D01*
X65105078Y-45668995D01*
X65234659Y-45775341D01*
X65341005Y-45904922D01*
X65420023Y-46052756D01*
X65468687Y-46213179D01*
X65481000Y-46338196D01*
X65481000Y-47221803D01*
X65468687Y-47346820D01*
X65468686Y-47346822D01*
X65468686Y-47346825D01*
X65420094Y-47507011D01*
X65420023Y-47507244D01*
X65341005Y-47655078D01*
X65234659Y-47784659D01*
X65105078Y-47891005D01*
X64957244Y-47970023D01*
X64957241Y-47970024D01*
X64957239Y-47970025D01*
X64796825Y-48018686D01*
X64796824Y-48018686D01*
X64796821Y-48018687D01*
X64630000Y-48035117D01*
X64463180Y-48018687D01*
X64463177Y-48018686D01*
X64463176Y-48018686D01*
X64302762Y-47970025D01*
X64302760Y-47970024D01*
X64302757Y-47970023D01*
X64154923Y-47891005D01*
X64025342Y-47784659D01*
X63918996Y-47655078D01*
X63839978Y-47507244D01*
X63839907Y-47507009D01*
X63791315Y-47346825D01*
X63791315Y-47346824D01*
X63791314Y-47346821D01*
X63779000Y-47221803D01*
X63779000Y-46338197D01*
X63791313Y-46213180D01*
X63791314Y-46213176D01*
X63839975Y-46052762D01*
X63839976Y-46052760D01*
X63839977Y-46052757D01*
X63918995Y-45904922D01*
X64025341Y-45775341D01*
X64154922Y-45668995D01*
X64302756Y-45589977D01*
X64302759Y-45589976D01*
X64302761Y-45589975D01*
X64463175Y-45541314D01*
X64463176Y-45541314D01*
X64463179Y-45541313D01*
X64630000Y-45524883D01*
X64796820Y-45541313D01*
X64796820Y-45541313D01*
G37*
G36*
X97816820Y-45541313D02*
X97816823Y-45541314D01*
X97816824Y-45541314D01*
X97977238Y-45589975D01*
X97977240Y-45589976D01*
X97977243Y-45589977D01*
X98125078Y-45668995D01*
X98254659Y-45775341D01*
X98361005Y-45904922D01*
X98440023Y-46052756D01*
X98488687Y-46213179D01*
X98501000Y-46338196D01*
X98501000Y-47221803D01*
X98488687Y-47346820D01*
X98488686Y-47346822D01*
X98488686Y-47346825D01*
X98440094Y-47507011D01*
X98440023Y-47507244D01*
X98361005Y-47655078D01*
X98254659Y-47784659D01*
X98125078Y-47891005D01*
X97977244Y-47970023D01*
X97977241Y-47970024D01*
X97977239Y-47970025D01*
X97816825Y-48018686D01*
X97816824Y-48018686D01*
X97816821Y-48018687D01*
X97650000Y-48035117D01*
X97483180Y-48018687D01*
X97483177Y-48018686D01*
X97483176Y-48018686D01*
X97322762Y-47970025D01*
X97322760Y-47970024D01*
X97322757Y-47970023D01*
X97174923Y-47891005D01*
X97045342Y-47784659D01*
X96938996Y-47655078D01*
X96859978Y-47507244D01*
X96859907Y-47507009D01*
X96811315Y-47346825D01*
X96811315Y-47346824D01*
X96811314Y-47346821D01*
X96799000Y-47221803D01*
X96799000Y-46338197D01*
X96811313Y-46213180D01*
X96811314Y-46213176D01*
X96859975Y-46052762D01*
X96859976Y-46052760D01*
X96859977Y-46052757D01*
X96938995Y-45904922D01*
X97045341Y-45775341D01*
X97174922Y-45668995D01*
X97322756Y-45589977D01*
X97322759Y-45589976D01*
X97322761Y-45589975D01*
X97483175Y-45541314D01*
X97483176Y-45541314D01*
X97483179Y-45541313D01*
X97650000Y-45524883D01*
X97816820Y-45541313D01*
X97816820Y-45541313D01*
G37*
G36*
X67336820Y-45541313D02*
X67336823Y-45541314D01*
X67336824Y-45541314D01*
X67497238Y-45589975D01*
X67497240Y-45589976D01*
X67497243Y-45589977D01*
X67645078Y-45668995D01*
X67774659Y-45775341D01*
X67881005Y-45904922D01*
X67960023Y-46052756D01*
X68008687Y-46213179D01*
X68021000Y-46338196D01*
X68021000Y-47221803D01*
X68008687Y-47346820D01*
X68008686Y-47346822D01*
X68008686Y-47346825D01*
X67960094Y-47507011D01*
X67960023Y-47507244D01*
X67881005Y-47655078D01*
X67774659Y-47784659D01*
X67645078Y-47891005D01*
X67497244Y-47970023D01*
X67497241Y-47970024D01*
X67497239Y-47970025D01*
X67336825Y-48018686D01*
X67336824Y-48018686D01*
X67336821Y-48018687D01*
X67170000Y-48035117D01*
X67003180Y-48018687D01*
X67003177Y-48018686D01*
X67003176Y-48018686D01*
X66842762Y-47970025D01*
X66842760Y-47970024D01*
X66842757Y-47970023D01*
X66694923Y-47891005D01*
X66565342Y-47784659D01*
X66458996Y-47655078D01*
X66379978Y-47507244D01*
X66379907Y-47507009D01*
X66331315Y-47346825D01*
X66331315Y-47346824D01*
X66331314Y-47346821D01*
X66319000Y-47221803D01*
X66319000Y-46338197D01*
X66331313Y-46213180D01*
X66331314Y-46213176D01*
X66379975Y-46052762D01*
X66379976Y-46052760D01*
X66379977Y-46052757D01*
X66458995Y-45904922D01*
X66565341Y-45775341D01*
X66694922Y-45668995D01*
X66842756Y-45589977D01*
X66842759Y-45589976D01*
X66842761Y-45589975D01*
X67003175Y-45541314D01*
X67003176Y-45541314D01*
X67003179Y-45541313D01*
X67170000Y-45524883D01*
X67336820Y-45541313D01*
X67336820Y-45541313D01*
G37*
G36*
X95276820Y-45541313D02*
X95276823Y-45541314D01*
X95276824Y-45541314D01*
X95437238Y-45589975D01*
X95437240Y-45589976D01*
X95437243Y-45589977D01*
X95585078Y-45668995D01*
X95714659Y-45775341D01*
X95821005Y-45904922D01*
X95900023Y-46052756D01*
X95948687Y-46213179D01*
X95961000Y-46338196D01*
X95961000Y-47221803D01*
X95948687Y-47346820D01*
X95948686Y-47346822D01*
X95948686Y-47346825D01*
X95900094Y-47507011D01*
X95900023Y-47507244D01*
X95821005Y-47655078D01*
X95714659Y-47784659D01*
X95585078Y-47891005D01*
X95437244Y-47970023D01*
X95437241Y-47970024D01*
X95437239Y-47970025D01*
X95276825Y-48018686D01*
X95276824Y-48018686D01*
X95276821Y-48018687D01*
X95110000Y-48035117D01*
X94943180Y-48018687D01*
X94943177Y-48018686D01*
X94943176Y-48018686D01*
X94782762Y-47970025D01*
X94782760Y-47970024D01*
X94782757Y-47970023D01*
X94634923Y-47891005D01*
X94505342Y-47784659D01*
X94398996Y-47655078D01*
X94319978Y-47507244D01*
X94319907Y-47507009D01*
X94271315Y-47346825D01*
X94271315Y-47346824D01*
X94271314Y-47346821D01*
X94259000Y-47221803D01*
X94259000Y-46338197D01*
X94271313Y-46213180D01*
X94271314Y-46213176D01*
X94319975Y-46052762D01*
X94319976Y-46052760D01*
X94319977Y-46052757D01*
X94398995Y-45904922D01*
X94505341Y-45775341D01*
X94634922Y-45668995D01*
X94782756Y-45589977D01*
X94782759Y-45589976D01*
X94782761Y-45589975D01*
X94943175Y-45541314D01*
X94943176Y-45541314D01*
X94943179Y-45541313D01*
X95110000Y-45524883D01*
X95276820Y-45541313D01*
X95276820Y-45541313D01*
G37*
G36*
X59228742Y-45382954D02*
X57426742Y-45382954D01*
X57426742Y-43580954D01*
X59228742Y-43580954D01*
X59228742Y-45382954D01*
X59228742Y-45382954D01*
G37*
G36*
X55888889Y-43586557D02*
X55964369Y-43593991D01*
X56077595Y-43628338D01*
X56134209Y-43645511D01*
X56255196Y-43710181D01*
X56290733Y-43729176D01*
X56326471Y-43758506D01*
X56427928Y-43841768D01*
X56511190Y-43943225D01*
X56540520Y-43978963D01*
X56540521Y-43978965D01*
X56624185Y-44135487D01*
X56624185Y-44135488D01*
X56675705Y-44305327D01*
X56693101Y-44481954D01*
X56675705Y-44658581D01*
X56641358Y-44771807D01*
X56624185Y-44828421D01*
X56589672Y-44892989D01*
X56540520Y-44984945D01*
X56511190Y-45020683D01*
X56427928Y-45122140D01*
X56326471Y-45205402D01*
X56290733Y-45234732D01*
X56290731Y-45234733D01*
X56134209Y-45318397D01*
X56077595Y-45335570D01*
X55964369Y-45369917D01*
X55898184Y-45376436D01*
X55832002Y-45382954D01*
X55743482Y-45382954D01*
X55677300Y-45376436D01*
X55611115Y-45369917D01*
X55497889Y-45335570D01*
X55441275Y-45318397D01*
X55284753Y-45234733D01*
X55284751Y-45234732D01*
X55249013Y-45205402D01*
X55147556Y-45122140D01*
X55064294Y-45020683D01*
X55034964Y-44984945D01*
X54985812Y-44892989D01*
X54951299Y-44828421D01*
X54934126Y-44771807D01*
X54899779Y-44658581D01*
X54882383Y-44481954D01*
X54899779Y-44305327D01*
X54951299Y-44135488D01*
X54951299Y-44135487D01*
X55034963Y-43978965D01*
X55034964Y-43978963D01*
X55064294Y-43943225D01*
X55147556Y-43841768D01*
X55249013Y-43758506D01*
X55284751Y-43729176D01*
X55320288Y-43710181D01*
X55441275Y-43645511D01*
X55497889Y-43628338D01*
X55611115Y-43593991D01*
X55686595Y-43586557D01*
X55743482Y-43580954D01*
X55832002Y-43580954D01*
X55888889Y-43586557D01*
X55888889Y-43586557D01*
G37*
G36*
X53348889Y-43586557D02*
X53424369Y-43593991D01*
X53537595Y-43628338D01*
X53594209Y-43645511D01*
X53715196Y-43710181D01*
X53750733Y-43729176D01*
X53786471Y-43758506D01*
X53887928Y-43841768D01*
X53971190Y-43943225D01*
X54000520Y-43978963D01*
X54000521Y-43978965D01*
X54084185Y-44135487D01*
X54084185Y-44135488D01*
X54135705Y-44305327D01*
X54153101Y-44481954D01*
X54135705Y-44658581D01*
X54101358Y-44771807D01*
X54084185Y-44828421D01*
X54049672Y-44892989D01*
X54000520Y-44984945D01*
X53971190Y-45020683D01*
X53887928Y-45122140D01*
X53786471Y-45205402D01*
X53750733Y-45234732D01*
X53750731Y-45234733D01*
X53594209Y-45318397D01*
X53537595Y-45335570D01*
X53424369Y-45369917D01*
X53358184Y-45376436D01*
X53292002Y-45382954D01*
X53203482Y-45382954D01*
X53137300Y-45376436D01*
X53071115Y-45369917D01*
X52957889Y-45335570D01*
X52901275Y-45318397D01*
X52744753Y-45234733D01*
X52744751Y-45234732D01*
X52709013Y-45205402D01*
X52607556Y-45122140D01*
X52524294Y-45020683D01*
X52494964Y-44984945D01*
X52445812Y-44892989D01*
X52411299Y-44828421D01*
X52394126Y-44771807D01*
X52359779Y-44658581D01*
X52342383Y-44481954D01*
X52359779Y-44305327D01*
X52411299Y-44135488D01*
X52411299Y-44135487D01*
X52494963Y-43978965D01*
X52494964Y-43978963D01*
X52524294Y-43943225D01*
X52607556Y-43841768D01*
X52709013Y-43758506D01*
X52744751Y-43729176D01*
X52780288Y-43710181D01*
X52901275Y-43645511D01*
X52957889Y-43628338D01*
X53071115Y-43593991D01*
X53146595Y-43586557D01*
X53203482Y-43580954D01*
X53292002Y-43580954D01*
X53348889Y-43586557D01*
X53348889Y-43586557D01*
G37*
G36*
X109090443Y-43495519D02*
X109156627Y-43502037D01*
X109269853Y-43536384D01*
X109326467Y-43553557D01*
X109430407Y-43609115D01*
X109482991Y-43637222D01*
X109507082Y-43656993D01*
X109620186Y-43749814D01*
X109695650Y-43841769D01*
X109732778Y-43887009D01*
X109732779Y-43887011D01*
X109816443Y-44043533D01*
X109816443Y-44043534D01*
X109867963Y-44213373D01*
X109885359Y-44390000D01*
X109867963Y-44566627D01*
X109840070Y-44658579D01*
X109816443Y-44736467D01*
X109767292Y-44828420D01*
X109732778Y-44892991D01*
X109703448Y-44928729D01*
X109620186Y-45030186D01*
X109518729Y-45113448D01*
X109482991Y-45142778D01*
X109482989Y-45142779D01*
X109326467Y-45226443D01*
X109269853Y-45243616D01*
X109156627Y-45277963D01*
X109090442Y-45284482D01*
X109024260Y-45291000D01*
X108935740Y-45291000D01*
X108869558Y-45284482D01*
X108803373Y-45277963D01*
X108690147Y-45243616D01*
X108633533Y-45226443D01*
X108477011Y-45142779D01*
X108477009Y-45142778D01*
X108441271Y-45113448D01*
X108339814Y-45030186D01*
X108256552Y-44928729D01*
X108227222Y-44892991D01*
X108192708Y-44828420D01*
X108143557Y-44736467D01*
X108119930Y-44658579D01*
X108092037Y-44566627D01*
X108074641Y-44390000D01*
X108092037Y-44213373D01*
X108143557Y-44043534D01*
X108143557Y-44043533D01*
X108227221Y-43887011D01*
X108227222Y-43887009D01*
X108264350Y-43841769D01*
X108339814Y-43749814D01*
X108452918Y-43656993D01*
X108477009Y-43637222D01*
X108529593Y-43609115D01*
X108633533Y-43553557D01*
X108690147Y-43536384D01*
X108803373Y-43502037D01*
X108869557Y-43495519D01*
X108935740Y-43489000D01*
X109024260Y-43489000D01*
X109090443Y-43495519D01*
X109090443Y-43495519D01*
G37*
G36*
X106550443Y-43495519D02*
X106616627Y-43502037D01*
X106729853Y-43536384D01*
X106786467Y-43553557D01*
X106890407Y-43609115D01*
X106942991Y-43637222D01*
X106967082Y-43656993D01*
X107080186Y-43749814D01*
X107155650Y-43841769D01*
X107192778Y-43887009D01*
X107192779Y-43887011D01*
X107276443Y-44043533D01*
X107276443Y-44043534D01*
X107327963Y-44213373D01*
X107345359Y-44390000D01*
X107327963Y-44566627D01*
X107300070Y-44658579D01*
X107276443Y-44736467D01*
X107227292Y-44828420D01*
X107192778Y-44892991D01*
X107163448Y-44928729D01*
X107080186Y-45030186D01*
X106978729Y-45113448D01*
X106942991Y-45142778D01*
X106942989Y-45142779D01*
X106786467Y-45226443D01*
X106729853Y-45243616D01*
X106616627Y-45277963D01*
X106550442Y-45284482D01*
X106484260Y-45291000D01*
X106395740Y-45291000D01*
X106329558Y-45284482D01*
X106263373Y-45277963D01*
X106150147Y-45243616D01*
X106093533Y-45226443D01*
X105937011Y-45142779D01*
X105937009Y-45142778D01*
X105901271Y-45113448D01*
X105799814Y-45030186D01*
X105716552Y-44928729D01*
X105687222Y-44892991D01*
X105652708Y-44828420D01*
X105603557Y-44736467D01*
X105579930Y-44658579D01*
X105552037Y-44566627D01*
X105534641Y-44390000D01*
X105552037Y-44213373D01*
X105603557Y-44043534D01*
X105603557Y-44043533D01*
X105687221Y-43887011D01*
X105687222Y-43887009D01*
X105724350Y-43841769D01*
X105799814Y-43749814D01*
X105912918Y-43656993D01*
X105937009Y-43637222D01*
X105989593Y-43609115D01*
X106093533Y-43553557D01*
X106150147Y-43536384D01*
X106263373Y-43502037D01*
X106329557Y-43495519D01*
X106395740Y-43489000D01*
X106484260Y-43489000D01*
X106550443Y-43495519D01*
X106550443Y-43495519D01*
G37*
G36*
X104801000Y-45291000D02*
X102999000Y-45291000D01*
X102999000Y-43489000D01*
X104801000Y-43489000D01*
X104801000Y-45291000D01*
X104801000Y-45291000D01*
G37*
G36*
X82234499Y-42633445D02*
X82271993Y-42644819D01*
X82306557Y-42663294D01*
X82336847Y-42688153D01*
X82361706Y-42718443D01*
X82380181Y-42753007D01*
X82391555Y-42790501D01*
X82396000Y-42835638D01*
X82396000Y-43574362D01*
X82391555Y-43619499D01*
X82380181Y-43656993D01*
X82361706Y-43691557D01*
X82336847Y-43721847D01*
X82306557Y-43746706D01*
X82271993Y-43765181D01*
X82234499Y-43776555D01*
X82189362Y-43781000D01*
X81550638Y-43781000D01*
X81505501Y-43776555D01*
X81468007Y-43765181D01*
X81433443Y-43746706D01*
X81403153Y-43721847D01*
X81378294Y-43691557D01*
X81359819Y-43656993D01*
X81348445Y-43619499D01*
X81344000Y-43574362D01*
X81344000Y-42835638D01*
X81348445Y-42790501D01*
X81359819Y-42753007D01*
X81378294Y-42718443D01*
X81403153Y-42688153D01*
X81433443Y-42663294D01*
X81468007Y-42644819D01*
X81505501Y-42633445D01*
X81550638Y-42629000D01*
X82189362Y-42629000D01*
X82234499Y-42633445D01*
X82234499Y-42633445D01*
G37*
G36*
X78596499Y-42580445D02*
X78633993Y-42591819D01*
X78668557Y-42610294D01*
X78698847Y-42635153D01*
X78723706Y-42665443D01*
X78742181Y-42700007D01*
X78753555Y-42737501D01*
X78758000Y-42782638D01*
X78758000Y-43521362D01*
X78753555Y-43566499D01*
X78742181Y-43603993D01*
X78723706Y-43638557D01*
X78698847Y-43668847D01*
X78668557Y-43693706D01*
X78633993Y-43712181D01*
X78596499Y-43723555D01*
X78551362Y-43728000D01*
X77912638Y-43728000D01*
X77867501Y-43723555D01*
X77830007Y-43712181D01*
X77795443Y-43693706D01*
X77765153Y-43668847D01*
X77740294Y-43638557D01*
X77721819Y-43603993D01*
X77710445Y-43566499D01*
X77706000Y-43521362D01*
X77706000Y-42782638D01*
X77710445Y-42737501D01*
X77721819Y-42700007D01*
X77740294Y-42665443D01*
X77765153Y-42635153D01*
X77795443Y-42610294D01*
X77830007Y-42591819D01*
X77867501Y-42580445D01*
X77912638Y-42576000D01*
X78551362Y-42576000D01*
X78596499Y-42580445D01*
X78596499Y-42580445D01*
G37*
G36*
X80494499Y-42578445D02*
X80531993Y-42589819D01*
X80566557Y-42608294D01*
X80596847Y-42633153D01*
X80621706Y-42663443D01*
X80640181Y-42698007D01*
X80651555Y-42735501D01*
X80656000Y-42780638D01*
X80656000Y-43519362D01*
X80651555Y-43564499D01*
X80640181Y-43601993D01*
X80621706Y-43636557D01*
X80596847Y-43666847D01*
X80566557Y-43691706D01*
X80531993Y-43710181D01*
X80494499Y-43721555D01*
X80449362Y-43726000D01*
X79810638Y-43726000D01*
X79765501Y-43721555D01*
X79728007Y-43710181D01*
X79693443Y-43691706D01*
X79663153Y-43666847D01*
X79638294Y-43636557D01*
X79619819Y-43601993D01*
X79608445Y-43564499D01*
X79604000Y-43519362D01*
X79604000Y-42780638D01*
X79608445Y-42735501D01*
X79619819Y-42698007D01*
X79638294Y-42663443D01*
X79663153Y-42633153D01*
X79693443Y-42608294D01*
X79728007Y-42589819D01*
X79765501Y-42578445D01*
X79810638Y-42574000D01*
X80449362Y-42574000D01*
X80494499Y-42578445D01*
X80494499Y-42578445D01*
G37*
G36*
X95806000Y-43721000D02*
X89554000Y-43721000D01*
X89554000Y-42019000D01*
X95806000Y-42019000D01*
X95806000Y-43721000D01*
X95806000Y-43721000D01*
G37*
G36*
X76818499Y-42528445D02*
X76855993Y-42539819D01*
X76890557Y-42558294D01*
X76920847Y-42583153D01*
X76945706Y-42613443D01*
X76964181Y-42648007D01*
X76975555Y-42685501D01*
X76980000Y-42730638D01*
X76980000Y-43469362D01*
X76975555Y-43514499D01*
X76964181Y-43551993D01*
X76945706Y-43586557D01*
X76920847Y-43616847D01*
X76890557Y-43641706D01*
X76855993Y-43660181D01*
X76818499Y-43671555D01*
X76773362Y-43676000D01*
X76134638Y-43676000D01*
X76089501Y-43671555D01*
X76052007Y-43660181D01*
X76017443Y-43641706D01*
X75987153Y-43616847D01*
X75962294Y-43586557D01*
X75943819Y-43551993D01*
X75932445Y-43514499D01*
X75928000Y-43469362D01*
X75928000Y-42730638D01*
X75932445Y-42685501D01*
X75943819Y-42648007D01*
X75962294Y-42613443D01*
X75987153Y-42583153D01*
X76017443Y-42558294D01*
X76052007Y-42539819D01*
X76089501Y-42528445D01*
X76134638Y-42524000D01*
X76773362Y-42524000D01*
X76818499Y-42528445D01*
X76818499Y-42528445D01*
G37*
G36*
X107189499Y-41038445D02*
X107226993Y-41049819D01*
X107261557Y-41068294D01*
X107291847Y-41093153D01*
X107316706Y-41123443D01*
X107335181Y-41158007D01*
X107346555Y-41195501D01*
X107351000Y-41240638D01*
X107351000Y-41879362D01*
X107346555Y-41924499D01*
X107335181Y-41961993D01*
X107316706Y-41996557D01*
X107291847Y-42026847D01*
X107261557Y-42051706D01*
X107226993Y-42070181D01*
X107189499Y-42081555D01*
X107144362Y-42086000D01*
X106405638Y-42086000D01*
X106360501Y-42081555D01*
X106323007Y-42070181D01*
X106288443Y-42051706D01*
X106258153Y-42026847D01*
X106233294Y-41996557D01*
X106214819Y-41961993D01*
X106203445Y-41924499D01*
X106199000Y-41879362D01*
X106199000Y-41240638D01*
X106203445Y-41195501D01*
X106214819Y-41158007D01*
X106233294Y-41123443D01*
X106258153Y-41093153D01*
X106288443Y-41068294D01*
X106323007Y-41049819D01*
X106360501Y-41038445D01*
X106405638Y-41034000D01*
X107144362Y-41034000D01*
X107189499Y-41038445D01*
X107189499Y-41038445D01*
G37*
G36*
X108939499Y-41038445D02*
X108976993Y-41049819D01*
X109011557Y-41068294D01*
X109041847Y-41093153D01*
X109066706Y-41123443D01*
X109085181Y-41158007D01*
X109096555Y-41195501D01*
X109101000Y-41240638D01*
X109101000Y-41879362D01*
X109096555Y-41924499D01*
X109085181Y-41961993D01*
X109066706Y-41996557D01*
X109041847Y-42026847D01*
X109011557Y-42051706D01*
X108976993Y-42070181D01*
X108939499Y-42081555D01*
X108894362Y-42086000D01*
X108155638Y-42086000D01*
X108110501Y-42081555D01*
X108073007Y-42070181D01*
X108038443Y-42051706D01*
X108008153Y-42026847D01*
X107983294Y-41996557D01*
X107964819Y-41961993D01*
X107953445Y-41924499D01*
X107949000Y-41879362D01*
X107949000Y-41240638D01*
X107953445Y-41195501D01*
X107964819Y-41158007D01*
X107983294Y-41123443D01*
X108008153Y-41093153D01*
X108038443Y-41068294D01*
X108073007Y-41049819D01*
X108110501Y-41038445D01*
X108155638Y-41034000D01*
X108894362Y-41034000D01*
X108939499Y-41038445D01*
X108939499Y-41038445D01*
G37*
G36*
X82234499Y-40883445D02*
X82271993Y-40894819D01*
X82306557Y-40913294D01*
X82336847Y-40938153D01*
X82361706Y-40968443D01*
X82380181Y-41003007D01*
X82391555Y-41040501D01*
X82396000Y-41085638D01*
X82396000Y-41824362D01*
X82391555Y-41869499D01*
X82380181Y-41906993D01*
X82361706Y-41941557D01*
X82336847Y-41971847D01*
X82306557Y-41996706D01*
X82271993Y-42015181D01*
X82234499Y-42026555D01*
X82189362Y-42031000D01*
X81550638Y-42031000D01*
X81505501Y-42026555D01*
X81468007Y-42015181D01*
X81433443Y-41996706D01*
X81403153Y-41971847D01*
X81378294Y-41941557D01*
X81359819Y-41906993D01*
X81348445Y-41869499D01*
X81344000Y-41824362D01*
X81344000Y-41085638D01*
X81348445Y-41040501D01*
X81359819Y-41003007D01*
X81378294Y-40968443D01*
X81403153Y-40938153D01*
X81433443Y-40913294D01*
X81468007Y-40894819D01*
X81505501Y-40883445D01*
X81550638Y-40879000D01*
X82189362Y-40879000D01*
X82234499Y-40883445D01*
X82234499Y-40883445D01*
G37*
G36*
X78596499Y-40830445D02*
X78633993Y-40841819D01*
X78668557Y-40860294D01*
X78698847Y-40885153D01*
X78723706Y-40915443D01*
X78742181Y-40950007D01*
X78753555Y-40987501D01*
X78758000Y-41032638D01*
X78758000Y-41771362D01*
X78753555Y-41816499D01*
X78742181Y-41853993D01*
X78723706Y-41888557D01*
X78698847Y-41918847D01*
X78668557Y-41943706D01*
X78633993Y-41962181D01*
X78596499Y-41973555D01*
X78551362Y-41978000D01*
X77912638Y-41978000D01*
X77867501Y-41973555D01*
X77830007Y-41962181D01*
X77795443Y-41943706D01*
X77765153Y-41918847D01*
X77740294Y-41888557D01*
X77721819Y-41853993D01*
X77710445Y-41816499D01*
X77706000Y-41771362D01*
X77706000Y-41032638D01*
X77710445Y-40987501D01*
X77721819Y-40950007D01*
X77740294Y-40915443D01*
X77765153Y-40885153D01*
X77795443Y-40860294D01*
X77830007Y-40841819D01*
X77867501Y-40830445D01*
X77912638Y-40826000D01*
X78551362Y-40826000D01*
X78596499Y-40830445D01*
X78596499Y-40830445D01*
G37*
G36*
X80494499Y-40828445D02*
X80531993Y-40839819D01*
X80566557Y-40858294D01*
X80596847Y-40883153D01*
X80621706Y-40913443D01*
X80640181Y-40948007D01*
X80651555Y-40985501D01*
X80656000Y-41030638D01*
X80656000Y-41769362D01*
X80651555Y-41814499D01*
X80640181Y-41851993D01*
X80621706Y-41886557D01*
X80596847Y-41916847D01*
X80566557Y-41941706D01*
X80531993Y-41960181D01*
X80494499Y-41971555D01*
X80449362Y-41976000D01*
X79810638Y-41976000D01*
X79765501Y-41971555D01*
X79728007Y-41960181D01*
X79693443Y-41941706D01*
X79663153Y-41916847D01*
X79638294Y-41886557D01*
X79619819Y-41851993D01*
X79608445Y-41814499D01*
X79604000Y-41769362D01*
X79604000Y-41030638D01*
X79608445Y-40985501D01*
X79619819Y-40948007D01*
X79638294Y-40913443D01*
X79663153Y-40883153D01*
X79693443Y-40858294D01*
X79728007Y-40839819D01*
X79765501Y-40828445D01*
X79810638Y-40824000D01*
X80449362Y-40824000D01*
X80494499Y-40828445D01*
X80494499Y-40828445D01*
G37*
G36*
X76818499Y-40778445D02*
X76855993Y-40789819D01*
X76890557Y-40808294D01*
X76920847Y-40833153D01*
X76945706Y-40863443D01*
X76964181Y-40898007D01*
X76975555Y-40935501D01*
X76980000Y-40980638D01*
X76980000Y-41719362D01*
X76975555Y-41764499D01*
X76964181Y-41801993D01*
X76945706Y-41836557D01*
X76920847Y-41866847D01*
X76890557Y-41891706D01*
X76855993Y-41910181D01*
X76818499Y-41921555D01*
X76773362Y-41926000D01*
X76134638Y-41926000D01*
X76089501Y-41921555D01*
X76052007Y-41910181D01*
X76017443Y-41891706D01*
X75987153Y-41866847D01*
X75962294Y-41836557D01*
X75943819Y-41801993D01*
X75932445Y-41764499D01*
X75928000Y-41719362D01*
X75928000Y-40980638D01*
X75932445Y-40935501D01*
X75943819Y-40898007D01*
X75962294Y-40863443D01*
X75987153Y-40833153D01*
X76017443Y-40808294D01*
X76052007Y-40789819D01*
X76089501Y-40778445D01*
X76134638Y-40774000D01*
X76773362Y-40774000D01*
X76818499Y-40778445D01*
X76818499Y-40778445D01*
G37*
G36*
X89281000Y-41746000D02*
X87579000Y-41746000D01*
X87579000Y-35494000D01*
X89281000Y-35494000D01*
X89281000Y-41746000D01*
X89281000Y-41746000D01*
G37*
G36*
X97781000Y-41746000D02*
X96079000Y-41746000D01*
X96079000Y-35494000D01*
X97781000Y-35494000D01*
X97781000Y-41746000D01*
X97781000Y-41746000D01*
G37*
G36*
X56761000Y-41181000D02*
X54959000Y-41181000D01*
X54959000Y-39379000D01*
X56761000Y-39379000D01*
X56761000Y-41181000D01*
X56761000Y-41181000D01*
G37*
G36*
X58510443Y-39385519D02*
X58576627Y-39392037D01*
X58689853Y-39426384D01*
X58746467Y-39443557D01*
X58885087Y-39517652D01*
X58902991Y-39527222D01*
X58938729Y-39556552D01*
X59040186Y-39639814D01*
X59116653Y-39732991D01*
X59152778Y-39777009D01*
X59152779Y-39777011D01*
X59236443Y-39933533D01*
X59251381Y-39982778D01*
X59287963Y-40103373D01*
X59305359Y-40280000D01*
X59287963Y-40456627D01*
X59259482Y-40550515D01*
X59236443Y-40626467D01*
X59210011Y-40675917D01*
X59152778Y-40782991D01*
X59132012Y-40808294D01*
X59040186Y-40920186D01*
X58947945Y-40995885D01*
X58902991Y-41032778D01*
X58902989Y-41032779D01*
X58746467Y-41116443D01*
X58689853Y-41133616D01*
X58576627Y-41167963D01*
X58510442Y-41174482D01*
X58444260Y-41181000D01*
X58355740Y-41181000D01*
X58289558Y-41174482D01*
X58223373Y-41167963D01*
X58110147Y-41133616D01*
X58053533Y-41116443D01*
X57897011Y-41032779D01*
X57897009Y-41032778D01*
X57852055Y-40995885D01*
X57759814Y-40920186D01*
X57667988Y-40808294D01*
X57647222Y-40782991D01*
X57589989Y-40675917D01*
X57563557Y-40626467D01*
X57540518Y-40550515D01*
X57512037Y-40456627D01*
X57494641Y-40280000D01*
X57512037Y-40103373D01*
X57548619Y-39982778D01*
X57563557Y-39933533D01*
X57647221Y-39777011D01*
X57647222Y-39777009D01*
X57683347Y-39732991D01*
X57759814Y-39639814D01*
X57861271Y-39556552D01*
X57897009Y-39527222D01*
X57914913Y-39517652D01*
X58053533Y-39443557D01*
X58110147Y-39426384D01*
X58223373Y-39392037D01*
X58289557Y-39385519D01*
X58355740Y-39379000D01*
X58444260Y-39379000D01*
X58510443Y-39385519D01*
X58510443Y-39385519D01*
G37*
G36*
X63436720Y-38753520D02*
X63625881Y-38810901D01*
X63800212Y-38904083D01*
X63953015Y-39029485D01*
X64078417Y-39182288D01*
X64171599Y-39356620D01*
X64228980Y-39545781D01*
X64243500Y-39693207D01*
X64243500Y-39886794D01*
X64228980Y-40034220D01*
X64171599Y-40223381D01*
X64078417Y-40397712D01*
X63953015Y-40550515D01*
X63800212Y-40675917D01*
X63625880Y-40769099D01*
X63436719Y-40826480D01*
X63240000Y-40845855D01*
X63043280Y-40826480D01*
X62854119Y-40769099D01*
X62679788Y-40675917D01*
X62526985Y-40550515D01*
X62401583Y-40397712D01*
X62308401Y-40223380D01*
X62251020Y-40034219D01*
X62242308Y-39945763D01*
X62236500Y-39886795D01*
X62236500Y-39693204D01*
X62242366Y-39633643D01*
X62251020Y-39545780D01*
X62308401Y-39356619D01*
X62401583Y-39182288D01*
X62526985Y-39029485D01*
X62679788Y-38904083D01*
X62854120Y-38810901D01*
X63043281Y-38753520D01*
X63240000Y-38734145D01*
X63436720Y-38753520D01*
X63436720Y-38753520D01*
G37*
G36*
X65976720Y-38753520D02*
X66165881Y-38810901D01*
X66340212Y-38904083D01*
X66493015Y-39029485D01*
X66618417Y-39182288D01*
X66711599Y-39356620D01*
X66768980Y-39545781D01*
X66783500Y-39693207D01*
X66783500Y-39886794D01*
X66768980Y-40034220D01*
X66711599Y-40223381D01*
X66618417Y-40397712D01*
X66493015Y-40550515D01*
X66340212Y-40675917D01*
X66165880Y-40769099D01*
X65976719Y-40826480D01*
X65780000Y-40845855D01*
X65583280Y-40826480D01*
X65394119Y-40769099D01*
X65219788Y-40675917D01*
X65066985Y-40550515D01*
X64941583Y-40397712D01*
X64848401Y-40223380D01*
X64791020Y-40034219D01*
X64782308Y-39945763D01*
X64776500Y-39886795D01*
X64776500Y-39693204D01*
X64782366Y-39633643D01*
X64791020Y-39545780D01*
X64848401Y-39356619D01*
X64941583Y-39182288D01*
X65066985Y-39029485D01*
X65219788Y-38904083D01*
X65394120Y-38810901D01*
X65583281Y-38753520D01*
X65780000Y-38734145D01*
X65976720Y-38753520D01*
X65976720Y-38753520D01*
G37*
G36*
X69323500Y-40841000D02*
X67316500Y-40841000D01*
X67316500Y-38739000D01*
X69323500Y-38739000D01*
X69323500Y-40841000D01*
X69323500Y-40841000D01*
G37*
G36*
X80493643Y-38629781D02*
X80639415Y-38690162D01*
X80770611Y-38777824D01*
X80882176Y-38889389D01*
X80969838Y-39020585D01*
X81030219Y-39166357D01*
X81061000Y-39321107D01*
X81061000Y-39478893D01*
X81030219Y-39633643D01*
X80969838Y-39779415D01*
X80882176Y-39910611D01*
X80770611Y-40022176D01*
X80639415Y-40109838D01*
X80493643Y-40170219D01*
X80338893Y-40201000D01*
X80181107Y-40201000D01*
X80026357Y-40170219D01*
X79880585Y-40109838D01*
X79749389Y-40022176D01*
X79637824Y-39910611D01*
X79550162Y-39779415D01*
X79489781Y-39633643D01*
X79459000Y-39478893D01*
X79459000Y-39321107D01*
X79489781Y-39166357D01*
X79550162Y-39020585D01*
X79637824Y-38889389D01*
X79749389Y-38777824D01*
X79880585Y-38690162D01*
X80026357Y-38629781D01*
X80181107Y-38599000D01*
X80338893Y-38599000D01*
X80493643Y-38629781D01*
X80493643Y-38629781D01*
G37*
G36*
X85373643Y-38629781D02*
X85519415Y-38690162D01*
X85650611Y-38777824D01*
X85762176Y-38889389D01*
X85849838Y-39020585D01*
X85910219Y-39166357D01*
X85941000Y-39321107D01*
X85941000Y-39478893D01*
X85910219Y-39633643D01*
X85849838Y-39779415D01*
X85762176Y-39910611D01*
X85650611Y-40022176D01*
X85519415Y-40109838D01*
X85373643Y-40170219D01*
X85218893Y-40201000D01*
X85061107Y-40201000D01*
X84906357Y-40170219D01*
X84760585Y-40109838D01*
X84629389Y-40022176D01*
X84517824Y-39910611D01*
X84430162Y-39779415D01*
X84369781Y-39633643D01*
X84339000Y-39478893D01*
X84339000Y-39321107D01*
X84369781Y-39166357D01*
X84430162Y-39020585D01*
X84517824Y-38889389D01*
X84629389Y-38777824D01*
X84760585Y-38690162D01*
X84906357Y-38629781D01*
X85061107Y-38599000D01*
X85218893Y-38599000D01*
X85373643Y-38629781D01*
X85373643Y-38629781D01*
G37*
G36*
X73180442Y-38335518D02*
X73246627Y-38342037D01*
X73359853Y-38376384D01*
X73416467Y-38393557D01*
X73555087Y-38467652D01*
X73572991Y-38477222D01*
X73608729Y-38506552D01*
X73710186Y-38589814D01*
X73792538Y-38690162D01*
X73822778Y-38727009D01*
X73822779Y-38727011D01*
X73906443Y-38883533D01*
X73923616Y-38940147D01*
X73957963Y-39053373D01*
X73975359Y-39230000D01*
X73957963Y-39406627D01*
X73936041Y-39478893D01*
X73906443Y-39576467D01*
X73881576Y-39622989D01*
X73822778Y-39732991D01*
X73800460Y-39760185D01*
X73710186Y-39870186D01*
X73632996Y-39933533D01*
X73572991Y-39982778D01*
X73572989Y-39982779D01*
X73416467Y-40066443D01*
X73359853Y-40083616D01*
X73246627Y-40117963D01*
X73180443Y-40124481D01*
X73114260Y-40131000D01*
X73025740Y-40131000D01*
X72959557Y-40124481D01*
X72893373Y-40117963D01*
X72780147Y-40083616D01*
X72723533Y-40066443D01*
X72567011Y-39982779D01*
X72567009Y-39982778D01*
X72507004Y-39933533D01*
X72429814Y-39870186D01*
X72339540Y-39760185D01*
X72317222Y-39732991D01*
X72258424Y-39622989D01*
X72233557Y-39576467D01*
X72203959Y-39478893D01*
X72182037Y-39406627D01*
X72164641Y-39230000D01*
X72182037Y-39053373D01*
X72216384Y-38940147D01*
X72233557Y-38883533D01*
X72317221Y-38727011D01*
X72317222Y-38727009D01*
X72347462Y-38690162D01*
X72429814Y-38589814D01*
X72531271Y-38506552D01*
X72567009Y-38477222D01*
X72584913Y-38467652D01*
X72723533Y-38393557D01*
X72780147Y-38376384D01*
X72893373Y-38342037D01*
X72959558Y-38335518D01*
X73025740Y-38329000D01*
X73114260Y-38329000D01*
X73180442Y-38335518D01*
X73180442Y-38335518D01*
G37*
G36*
X109981000Y-40021000D02*
X108179000Y-40021000D01*
X108179000Y-38219000D01*
X109981000Y-38219000D01*
X109981000Y-40021000D01*
X109981000Y-40021000D01*
G37*
G36*
X106650442Y-38225518D02*
X106716627Y-38232037D01*
X106819529Y-38263252D01*
X106886467Y-38283557D01*
X106995874Y-38342037D01*
X107042991Y-38367222D01*
X107075080Y-38393557D01*
X107180186Y-38479814D01*
X107263448Y-38581271D01*
X107292778Y-38617009D01*
X107292779Y-38617011D01*
X107376443Y-38773533D01*
X107387778Y-38810901D01*
X107427963Y-38943373D01*
X107445359Y-39120000D01*
X107427963Y-39296627D01*
X107409764Y-39356620D01*
X107376443Y-39466467D01*
X107317646Y-39576466D01*
X107292778Y-39622991D01*
X107263448Y-39658729D01*
X107180186Y-39760186D01*
X107078729Y-39843448D01*
X107042991Y-39872778D01*
X107042989Y-39872779D01*
X106886467Y-39956443D01*
X106829853Y-39973616D01*
X106716627Y-40007963D01*
X106650442Y-40014482D01*
X106584260Y-40021000D01*
X106495740Y-40021000D01*
X106429558Y-40014482D01*
X106363373Y-40007963D01*
X106250147Y-39973616D01*
X106193533Y-39956443D01*
X106037011Y-39872779D01*
X106037009Y-39872778D01*
X106001271Y-39843448D01*
X105899814Y-39760186D01*
X105816552Y-39658729D01*
X105787222Y-39622991D01*
X105762354Y-39576466D01*
X105703557Y-39466467D01*
X105670236Y-39356620D01*
X105652037Y-39296627D01*
X105634641Y-39120000D01*
X105652037Y-38943373D01*
X105692222Y-38810901D01*
X105703557Y-38773533D01*
X105787221Y-38617011D01*
X105787222Y-38617009D01*
X105816552Y-38581271D01*
X105899814Y-38479814D01*
X106004920Y-38393557D01*
X106037009Y-38367222D01*
X106084126Y-38342037D01*
X106193533Y-38283557D01*
X106260471Y-38263252D01*
X106363373Y-38232037D01*
X106429558Y-38225518D01*
X106495740Y-38219000D01*
X106584260Y-38219000D01*
X106650442Y-38225518D01*
X106650442Y-38225518D01*
G37*
G36*
X101069499Y-37078445D02*
X101106993Y-37089819D01*
X101141557Y-37108294D01*
X101171847Y-37133153D01*
X101196706Y-37163443D01*
X101215181Y-37198007D01*
X101226555Y-37235501D01*
X101231000Y-37280638D01*
X101231000Y-37919362D01*
X101226555Y-37964499D01*
X101215181Y-38001991D01*
X101191837Y-38045664D01*
X101182460Y-38068303D01*
X101177679Y-38092337D01*
X101177679Y-38116841D01*
X101182459Y-38140874D01*
X101191836Y-38163513D01*
X101205450Y-38183888D01*
X101222777Y-38201216D01*
X101243151Y-38214830D01*
X101265790Y-38224207D01*
X101289824Y-38228988D01*
X101314329Y-38228988D01*
X101415740Y-38219000D01*
X101504260Y-38219000D01*
X101570442Y-38225518D01*
X101636627Y-38232037D01*
X101739529Y-38263252D01*
X101806467Y-38283557D01*
X101915874Y-38342037D01*
X101962991Y-38367222D01*
X101995080Y-38393557D01*
X102100186Y-38479814D01*
X102183448Y-38581271D01*
X102212778Y-38617009D01*
X102212779Y-38617011D01*
X102296443Y-38773533D01*
X102307778Y-38810901D01*
X102347963Y-38943373D01*
X102365359Y-39120000D01*
X102347963Y-39296627D01*
X102329764Y-39356620D01*
X102296443Y-39466467D01*
X102237646Y-39576466D01*
X102212778Y-39622991D01*
X102183448Y-39658729D01*
X102100186Y-39760186D01*
X101998729Y-39843448D01*
X101962991Y-39872778D01*
X101962989Y-39872779D01*
X101806467Y-39956443D01*
X101749853Y-39973616D01*
X101636627Y-40007963D01*
X101570442Y-40014482D01*
X101504260Y-40021000D01*
X101415740Y-40021000D01*
X101349558Y-40014482D01*
X101283373Y-40007963D01*
X101170147Y-39973616D01*
X101113533Y-39956443D01*
X100957011Y-39872779D01*
X100957009Y-39872778D01*
X100921271Y-39843448D01*
X100819814Y-39760186D01*
X100736552Y-39658729D01*
X100707222Y-39622991D01*
X100682354Y-39576466D01*
X100623557Y-39466467D01*
X100590236Y-39356620D01*
X100572037Y-39296627D01*
X100554641Y-39120000D01*
X100572037Y-38943373D01*
X100612222Y-38810901D01*
X100623557Y-38773533D01*
X100707221Y-38617011D01*
X100707222Y-38617009D01*
X100736552Y-38581271D01*
X100819814Y-38479814D01*
X100924920Y-38393557D01*
X100957009Y-38367222D01*
X100968200Y-38361240D01*
X100988574Y-38347626D01*
X101005902Y-38330299D01*
X101019515Y-38309924D01*
X101028893Y-38287285D01*
X101033673Y-38263252D01*
X101033673Y-38238747D01*
X101028892Y-38214714D01*
X101019515Y-38192075D01*
X101005901Y-38171701D01*
X100988574Y-38154373D01*
X100968199Y-38140760D01*
X100945560Y-38131382D01*
X100909275Y-38126000D01*
X100285638Y-38126000D01*
X100240501Y-38121555D01*
X100203007Y-38110181D01*
X100168443Y-38091706D01*
X100138153Y-38066847D01*
X100113294Y-38036557D01*
X100094819Y-38001993D01*
X100083445Y-37964499D01*
X100079000Y-37919362D01*
X100079000Y-37280638D01*
X100083445Y-37235501D01*
X100094819Y-37198007D01*
X100113294Y-37163443D01*
X100138153Y-37133153D01*
X100168443Y-37108294D01*
X100203007Y-37089819D01*
X100240501Y-37078445D01*
X100285638Y-37074000D01*
X101024362Y-37074000D01*
X101069499Y-37078445D01*
X101069499Y-37078445D01*
G37*
G36*
X104110442Y-38225518D02*
X104176627Y-38232037D01*
X104279529Y-38263252D01*
X104346467Y-38283557D01*
X104455874Y-38342037D01*
X104502991Y-38367222D01*
X104535080Y-38393557D01*
X104640186Y-38479814D01*
X104723448Y-38581271D01*
X104752778Y-38617009D01*
X104752779Y-38617011D01*
X104836443Y-38773533D01*
X104847778Y-38810901D01*
X104887963Y-38943373D01*
X104905359Y-39120000D01*
X104887963Y-39296627D01*
X104869764Y-39356620D01*
X104836443Y-39466467D01*
X104777646Y-39576466D01*
X104752778Y-39622991D01*
X104723448Y-39658729D01*
X104640186Y-39760186D01*
X104538729Y-39843448D01*
X104502991Y-39872778D01*
X104502989Y-39872779D01*
X104346467Y-39956443D01*
X104289853Y-39973616D01*
X104176627Y-40007963D01*
X104110442Y-40014482D01*
X104044260Y-40021000D01*
X103955740Y-40021000D01*
X103889558Y-40014482D01*
X103823373Y-40007963D01*
X103710147Y-39973616D01*
X103653533Y-39956443D01*
X103497011Y-39872779D01*
X103497009Y-39872778D01*
X103461271Y-39843448D01*
X103359814Y-39760186D01*
X103276552Y-39658729D01*
X103247222Y-39622991D01*
X103222354Y-39576466D01*
X103163557Y-39466467D01*
X103130236Y-39356620D01*
X103112037Y-39296627D01*
X103094641Y-39120000D01*
X103112037Y-38943373D01*
X103152222Y-38810901D01*
X103163557Y-38773533D01*
X103247221Y-38617011D01*
X103247222Y-38617009D01*
X103276552Y-38581271D01*
X103359814Y-38479814D01*
X103464920Y-38393557D01*
X103497009Y-38367222D01*
X103544126Y-38342037D01*
X103653533Y-38283557D01*
X103720471Y-38263252D01*
X103823373Y-38232037D01*
X103889558Y-38225518D01*
X103955740Y-38219000D01*
X104044260Y-38219000D01*
X104110442Y-38225518D01*
X104110442Y-38225518D01*
G37*
G36*
X65514499Y-37108445D02*
X65551993Y-37119819D01*
X65586557Y-37138294D01*
X65616847Y-37163153D01*
X65641706Y-37193443D01*
X65660181Y-37228007D01*
X65671555Y-37265501D01*
X65676000Y-37310638D01*
X65676000Y-37949362D01*
X65671555Y-37994499D01*
X65660181Y-38031993D01*
X65641706Y-38066557D01*
X65616847Y-38096847D01*
X65586557Y-38121706D01*
X65551993Y-38140181D01*
X65514499Y-38151555D01*
X65469362Y-38156000D01*
X64730638Y-38156000D01*
X64685501Y-38151555D01*
X64648007Y-38140181D01*
X64613443Y-38121706D01*
X64583153Y-38096847D01*
X64558294Y-38066557D01*
X64539819Y-38031993D01*
X64528445Y-37994499D01*
X64524000Y-37949362D01*
X64524000Y-37310638D01*
X64528445Y-37265501D01*
X64539819Y-37228007D01*
X64558294Y-37193443D01*
X64583153Y-37163153D01*
X64613443Y-37138294D01*
X64648007Y-37119819D01*
X64685501Y-37108445D01*
X64730638Y-37104000D01*
X65469362Y-37104000D01*
X65514499Y-37108445D01*
X65514499Y-37108445D01*
G37*
G36*
X63764499Y-37108445D02*
X63801993Y-37119819D01*
X63836557Y-37138294D01*
X63866847Y-37163153D01*
X63891706Y-37193443D01*
X63910181Y-37228007D01*
X63921555Y-37265501D01*
X63926000Y-37310638D01*
X63926000Y-37949362D01*
X63921555Y-37994499D01*
X63910181Y-38031993D01*
X63891706Y-38066557D01*
X63866847Y-38096847D01*
X63836557Y-38121706D01*
X63801993Y-38140181D01*
X63764499Y-38151555D01*
X63719362Y-38156000D01*
X62980638Y-38156000D01*
X62935501Y-38151555D01*
X62898007Y-38140181D01*
X62863443Y-38121706D01*
X62833153Y-38096847D01*
X62808294Y-38066557D01*
X62789819Y-38031993D01*
X62778445Y-37994499D01*
X62774000Y-37949362D01*
X62774000Y-37310638D01*
X62778445Y-37265501D01*
X62789819Y-37228007D01*
X62808294Y-37193443D01*
X62833153Y-37163153D01*
X62863443Y-37138294D01*
X62898007Y-37119819D01*
X62935501Y-37108445D01*
X62980638Y-37104000D01*
X63719362Y-37104000D01*
X63764499Y-37108445D01*
X63764499Y-37108445D01*
G37*
G36*
X99319499Y-37078445D02*
X99356993Y-37089819D01*
X99391557Y-37108294D01*
X99421847Y-37133153D01*
X99446706Y-37163443D01*
X99465181Y-37198007D01*
X99476555Y-37235501D01*
X99481000Y-37280638D01*
X99481000Y-37919362D01*
X99476555Y-37964499D01*
X99465181Y-38001993D01*
X99446706Y-38036557D01*
X99421847Y-38066847D01*
X99391557Y-38091706D01*
X99356993Y-38110181D01*
X99319499Y-38121555D01*
X99274362Y-38126000D01*
X98535638Y-38126000D01*
X98490501Y-38121555D01*
X98453007Y-38110181D01*
X98418443Y-38091706D01*
X98388153Y-38066847D01*
X98363294Y-38036557D01*
X98344819Y-38001993D01*
X98333445Y-37964499D01*
X98329000Y-37919362D01*
X98329000Y-37280638D01*
X98333445Y-37235501D01*
X98344819Y-37198007D01*
X98363294Y-37163443D01*
X98388153Y-37133153D01*
X98418443Y-37108294D01*
X98453007Y-37089819D01*
X98490501Y-37078445D01*
X98535638Y-37074000D01*
X99274362Y-37074000D01*
X99319499Y-37078445D01*
X99319499Y-37078445D01*
G37*
G36*
X73180443Y-35795519D02*
X73246627Y-35802037D01*
X73359853Y-35836384D01*
X73416467Y-35853557D01*
X73515451Y-35906466D01*
X73572991Y-35937222D01*
X73608729Y-35966552D01*
X73710186Y-36049814D01*
X73789123Y-36146000D01*
X73822778Y-36187009D01*
X73822779Y-36187011D01*
X73906443Y-36343533D01*
X73920807Y-36390885D01*
X73957963Y-36513373D01*
X73975359Y-36690000D01*
X73957963Y-36866627D01*
X73923616Y-36979853D01*
X73906443Y-37036467D01*
X73846654Y-37148323D01*
X73822778Y-37192991D01*
X73818661Y-37198007D01*
X73710186Y-37330186D01*
X73608729Y-37413448D01*
X73572991Y-37442778D01*
X73572989Y-37442779D01*
X73416467Y-37526443D01*
X73359853Y-37543616D01*
X73246627Y-37577963D01*
X73180443Y-37584481D01*
X73114260Y-37591000D01*
X73025740Y-37591000D01*
X72959557Y-37584481D01*
X72893373Y-37577963D01*
X72780147Y-37543616D01*
X72723533Y-37526443D01*
X72567011Y-37442779D01*
X72567009Y-37442778D01*
X72531271Y-37413448D01*
X72429814Y-37330186D01*
X72321339Y-37198007D01*
X72317222Y-37192991D01*
X72293346Y-37148323D01*
X72233557Y-37036467D01*
X72216384Y-36979853D01*
X72182037Y-36866627D01*
X72164641Y-36690000D01*
X72182037Y-36513373D01*
X72219193Y-36390885D01*
X72233557Y-36343533D01*
X72317221Y-36187011D01*
X72317222Y-36187009D01*
X72350877Y-36146000D01*
X72429814Y-36049814D01*
X72531271Y-35966552D01*
X72567009Y-35937222D01*
X72624549Y-35906466D01*
X72723533Y-35853557D01*
X72780147Y-35836384D01*
X72893373Y-35802037D01*
X72959557Y-35795519D01*
X73025740Y-35789000D01*
X73114260Y-35789000D01*
X73180443Y-35795519D01*
X73180443Y-35795519D01*
G37*
G36*
X109079499Y-36278445D02*
X109116993Y-36289819D01*
X109151557Y-36308294D01*
X109181847Y-36333153D01*
X109206706Y-36363443D01*
X109225181Y-36398007D01*
X109236555Y-36435501D01*
X109241000Y-36480638D01*
X109241000Y-37119362D01*
X109236555Y-37164499D01*
X109225181Y-37201993D01*
X109206706Y-37236557D01*
X109181847Y-37266847D01*
X109151557Y-37291706D01*
X109116993Y-37310181D01*
X109079499Y-37321555D01*
X109034362Y-37326000D01*
X108295638Y-37326000D01*
X108250501Y-37321555D01*
X108213007Y-37310181D01*
X108178443Y-37291706D01*
X108148153Y-37266847D01*
X108123294Y-37236557D01*
X108104819Y-37201993D01*
X108093445Y-37164499D01*
X108089000Y-37119362D01*
X108089000Y-36480638D01*
X108093445Y-36435501D01*
X108104819Y-36398007D01*
X108123294Y-36363443D01*
X108148153Y-36333153D01*
X108178443Y-36308294D01*
X108213007Y-36289819D01*
X108250501Y-36278445D01*
X108295638Y-36274000D01*
X109034362Y-36274000D01*
X109079499Y-36278445D01*
X109079499Y-36278445D01*
G37*
G36*
X107329499Y-36278445D02*
X107366993Y-36289819D01*
X107401557Y-36308294D01*
X107431847Y-36333153D01*
X107456706Y-36363443D01*
X107475181Y-36398007D01*
X107486555Y-36435501D01*
X107491000Y-36480638D01*
X107491000Y-37119362D01*
X107486555Y-37164499D01*
X107475181Y-37201993D01*
X107456706Y-37236557D01*
X107431847Y-37266847D01*
X107401557Y-37291706D01*
X107366993Y-37310181D01*
X107329499Y-37321555D01*
X107284362Y-37326000D01*
X106545638Y-37326000D01*
X106500501Y-37321555D01*
X106463007Y-37310181D01*
X106428443Y-37291706D01*
X106398153Y-37266847D01*
X106373294Y-37236557D01*
X106354819Y-37201993D01*
X106343445Y-37164499D01*
X106339000Y-37119362D01*
X106339000Y-36480638D01*
X106343445Y-36435501D01*
X106354819Y-36398007D01*
X106373294Y-36363443D01*
X106398153Y-36333153D01*
X106428443Y-36308294D01*
X106463007Y-36289819D01*
X106500501Y-36278445D01*
X106545638Y-36274000D01*
X107284362Y-36274000D01*
X107329499Y-36278445D01*
X107329499Y-36278445D01*
G37*
G36*
X53120443Y-35025519D02*
X53186627Y-35032037D01*
X53268955Y-35057011D01*
X53356467Y-35083557D01*
X53462409Y-35140185D01*
X53512991Y-35167222D01*
X53548729Y-35196552D01*
X53650186Y-35279814D01*
X53733448Y-35381271D01*
X53762778Y-35417009D01*
X53762779Y-35417011D01*
X53846443Y-35573533D01*
X53863616Y-35630147D01*
X53897963Y-35743373D01*
X53915359Y-35920000D01*
X53897963Y-36096627D01*
X53882986Y-36146000D01*
X53846443Y-36266467D01*
X53794607Y-36363443D01*
X53762778Y-36422991D01*
X53752511Y-36435501D01*
X53650186Y-36560186D01*
X53548729Y-36643448D01*
X53512991Y-36672778D01*
X53512989Y-36672779D01*
X53356467Y-36756443D01*
X53299853Y-36773616D01*
X53186627Y-36807963D01*
X53120443Y-36814481D01*
X53054260Y-36821000D01*
X52965740Y-36821000D01*
X52899557Y-36814481D01*
X52833373Y-36807963D01*
X52720147Y-36773616D01*
X52663533Y-36756443D01*
X52507011Y-36672779D01*
X52507009Y-36672778D01*
X52471271Y-36643448D01*
X52369814Y-36560186D01*
X52267489Y-36435501D01*
X52257222Y-36422991D01*
X52225393Y-36363443D01*
X52173557Y-36266467D01*
X52137014Y-36146000D01*
X52122037Y-36096627D01*
X52104641Y-35920000D01*
X52122037Y-35743373D01*
X52156384Y-35630147D01*
X52173557Y-35573533D01*
X52257221Y-35417011D01*
X52257222Y-35417009D01*
X52286552Y-35381271D01*
X52369814Y-35279814D01*
X52471271Y-35196552D01*
X52507009Y-35167222D01*
X52557591Y-35140185D01*
X52663533Y-35083557D01*
X52751045Y-35057011D01*
X52833373Y-35032037D01*
X52899557Y-35025519D01*
X52965740Y-35019000D01*
X53054260Y-35019000D01*
X53120443Y-35025519D01*
X53120443Y-35025519D01*
G37*
G36*
X68870443Y-34705519D02*
X68936627Y-34712037D01*
X69049853Y-34746384D01*
X69106467Y-34763557D01*
X69188155Y-34807221D01*
X69262991Y-34847222D01*
X69298729Y-34876552D01*
X69400186Y-34959814D01*
X69476653Y-35052991D01*
X69512778Y-35097009D01*
X69512779Y-35097011D01*
X69596443Y-35253533D01*
X69596443Y-35253534D01*
X69647963Y-35423373D01*
X69665359Y-35600000D01*
X69647963Y-35776627D01*
X69613616Y-35889853D01*
X69596443Y-35946467D01*
X69534160Y-36062989D01*
X69512778Y-36102991D01*
X69483448Y-36138729D01*
X69400186Y-36240186D01*
X69317195Y-36308294D01*
X69262991Y-36352778D01*
X69262989Y-36352779D01*
X69106467Y-36436443D01*
X69068490Y-36447963D01*
X68936627Y-36487963D01*
X68870443Y-36494481D01*
X68804260Y-36501000D01*
X68715740Y-36501000D01*
X68649557Y-36494481D01*
X68583373Y-36487963D01*
X68451510Y-36447963D01*
X68413533Y-36436443D01*
X68257011Y-36352779D01*
X68257009Y-36352778D01*
X68202805Y-36308294D01*
X68119814Y-36240186D01*
X68036552Y-36138729D01*
X68007222Y-36102991D01*
X67985840Y-36062989D01*
X67923557Y-35946467D01*
X67906384Y-35889853D01*
X67872037Y-35776627D01*
X67854641Y-35600000D01*
X67872037Y-35423373D01*
X67923557Y-35253534D01*
X67923557Y-35253533D01*
X68007221Y-35097011D01*
X68007222Y-35097009D01*
X68043347Y-35052991D01*
X68119814Y-34959814D01*
X68221271Y-34876552D01*
X68257009Y-34847222D01*
X68331845Y-34807221D01*
X68413533Y-34763557D01*
X68470147Y-34746384D01*
X68583373Y-34712037D01*
X68649557Y-34705519D01*
X68715740Y-34699000D01*
X68804260Y-34699000D01*
X68870443Y-34705519D01*
X68870443Y-34705519D01*
G37*
G36*
X59230443Y-34665519D02*
X59296627Y-34672037D01*
X59385512Y-34699000D01*
X59466467Y-34723557D01*
X59591117Y-34790185D01*
X59622991Y-34807222D01*
X59658729Y-34836552D01*
X59760186Y-34919814D01*
X59841585Y-35019000D01*
X59872778Y-35057009D01*
X59872779Y-35057011D01*
X59956443Y-35213533D01*
X59956443Y-35213534D01*
X60007963Y-35383373D01*
X60025359Y-35560000D01*
X60007963Y-35736627D01*
X59995829Y-35776627D01*
X59956443Y-35906467D01*
X59935062Y-35946467D01*
X59872778Y-36062991D01*
X59845175Y-36096625D01*
X59760186Y-36200186D01*
X59679422Y-36266466D01*
X59622991Y-36312778D01*
X59622989Y-36312779D01*
X59466467Y-36396443D01*
X59409853Y-36413616D01*
X59296627Y-36447963D01*
X59230442Y-36454482D01*
X59164260Y-36461000D01*
X59075740Y-36461000D01*
X59009558Y-36454482D01*
X58943373Y-36447963D01*
X58830147Y-36413616D01*
X58773533Y-36396443D01*
X58617011Y-36312779D01*
X58617009Y-36312778D01*
X58560578Y-36266466D01*
X58479814Y-36200186D01*
X58394825Y-36096625D01*
X58367222Y-36062991D01*
X58304938Y-35946467D01*
X58283557Y-35906467D01*
X58244171Y-35776627D01*
X58232037Y-35736627D01*
X58214641Y-35560000D01*
X58232037Y-35383373D01*
X58283557Y-35213534D01*
X58283557Y-35213533D01*
X58367221Y-35057011D01*
X58367222Y-35057009D01*
X58398415Y-35019000D01*
X58479814Y-34919814D01*
X58581271Y-34836552D01*
X58617009Y-34807222D01*
X58648883Y-34790185D01*
X58773533Y-34723557D01*
X58854488Y-34699000D01*
X58943373Y-34672037D01*
X59009557Y-34665519D01*
X59075740Y-34659000D01*
X59164260Y-34659000D01*
X59230443Y-34665519D01*
X59230443Y-34665519D01*
G37*
G36*
X64100443Y-34665519D02*
X64166627Y-34672037D01*
X64255512Y-34699000D01*
X64336467Y-34723557D01*
X64461117Y-34790185D01*
X64492991Y-34807222D01*
X64528729Y-34836552D01*
X64630186Y-34919814D01*
X64711585Y-35019000D01*
X64742778Y-35057009D01*
X64742779Y-35057011D01*
X64826443Y-35213533D01*
X64826443Y-35213534D01*
X64877963Y-35383373D01*
X64895359Y-35560000D01*
X64877963Y-35736627D01*
X64865829Y-35776627D01*
X64826443Y-35906467D01*
X64805062Y-35946467D01*
X64742778Y-36062991D01*
X64715175Y-36096625D01*
X64630186Y-36200186D01*
X64549422Y-36266466D01*
X64492991Y-36312778D01*
X64492989Y-36312779D01*
X64336467Y-36396443D01*
X64279853Y-36413616D01*
X64166627Y-36447963D01*
X64100442Y-36454482D01*
X64034260Y-36461000D01*
X63945740Y-36461000D01*
X63879558Y-36454482D01*
X63813373Y-36447963D01*
X63700147Y-36413616D01*
X63643533Y-36396443D01*
X63487011Y-36312779D01*
X63487009Y-36312778D01*
X63430578Y-36266466D01*
X63349814Y-36200186D01*
X63264825Y-36096625D01*
X63237222Y-36062991D01*
X63174938Y-35946467D01*
X63153557Y-35906467D01*
X63114171Y-35776627D01*
X63102037Y-35736627D01*
X63084641Y-35560000D01*
X63102037Y-35383373D01*
X63153557Y-35213534D01*
X63153557Y-35213533D01*
X63237221Y-35057011D01*
X63237222Y-35057009D01*
X63268415Y-35019000D01*
X63349814Y-34919814D01*
X63451271Y-34836552D01*
X63487009Y-34807222D01*
X63518883Y-34790185D01*
X63643533Y-34723557D01*
X63724488Y-34699000D01*
X63813373Y-34672037D01*
X63879557Y-34665519D01*
X63945740Y-34659000D01*
X64034260Y-34659000D01*
X64100443Y-34665519D01*
X64100443Y-34665519D01*
G37*
G36*
X78100442Y-33655518D02*
X78166627Y-33662037D01*
X78279853Y-33696384D01*
X78336467Y-33713557D01*
X78447260Y-33772778D01*
X78492991Y-33797222D01*
X78500682Y-33803534D01*
X78630186Y-33909814D01*
X78713448Y-34011271D01*
X78742778Y-34047009D01*
X78742779Y-34047011D01*
X78826443Y-34203533D01*
X78826443Y-34203534D01*
X78877963Y-34373373D01*
X78895359Y-34550000D01*
X78877963Y-34726627D01*
X78853515Y-34807221D01*
X78826443Y-34896467D01*
X78813963Y-34919815D01*
X78742778Y-35052991D01*
X78717693Y-35083557D01*
X78630186Y-35190186D01*
X78553916Y-35252778D01*
X78492991Y-35302778D01*
X78492989Y-35302779D01*
X78336467Y-35386443D01*
X78288478Y-35401000D01*
X78166627Y-35437963D01*
X78100442Y-35444482D01*
X78034260Y-35451000D01*
X77945740Y-35451000D01*
X77879558Y-35444482D01*
X77813373Y-35437963D01*
X77691522Y-35401000D01*
X77643533Y-35386443D01*
X77487011Y-35302779D01*
X77487009Y-35302778D01*
X77426084Y-35252778D01*
X77349814Y-35190186D01*
X77262307Y-35083557D01*
X77237222Y-35052991D01*
X77166037Y-34919815D01*
X77153557Y-34896467D01*
X77126485Y-34807221D01*
X77102037Y-34726627D01*
X77084641Y-34550000D01*
X77102037Y-34373373D01*
X77153557Y-34203534D01*
X77153557Y-34203533D01*
X77237221Y-34047011D01*
X77237222Y-34047009D01*
X77266552Y-34011271D01*
X77349814Y-33909814D01*
X77479318Y-33803534D01*
X77487009Y-33797222D01*
X77532740Y-33772778D01*
X77643533Y-33713557D01*
X77700147Y-33696384D01*
X77813373Y-33662037D01*
X77879558Y-33655518D01*
X77945740Y-33649000D01*
X78034260Y-33649000D01*
X78100442Y-33655518D01*
X78100442Y-33655518D01*
G37*
G36*
X80640442Y-33655518D02*
X80706627Y-33662037D01*
X80819853Y-33696384D01*
X80876467Y-33713557D01*
X80987260Y-33772778D01*
X81032991Y-33797222D01*
X81040682Y-33803534D01*
X81170186Y-33909814D01*
X81253448Y-34011271D01*
X81282778Y-34047009D01*
X81282779Y-34047011D01*
X81366443Y-34203533D01*
X81366443Y-34203534D01*
X81417963Y-34373373D01*
X81435359Y-34550000D01*
X81417963Y-34726627D01*
X81393515Y-34807221D01*
X81366443Y-34896467D01*
X81353963Y-34919815D01*
X81282778Y-35052991D01*
X81257693Y-35083557D01*
X81170186Y-35190186D01*
X81093916Y-35252778D01*
X81032991Y-35302778D01*
X81032989Y-35302779D01*
X80876467Y-35386443D01*
X80828478Y-35401000D01*
X80706627Y-35437963D01*
X80640442Y-35444482D01*
X80574260Y-35451000D01*
X80485740Y-35451000D01*
X80419558Y-35444482D01*
X80353373Y-35437963D01*
X80231522Y-35401000D01*
X80183533Y-35386443D01*
X80027011Y-35302779D01*
X80027009Y-35302778D01*
X79966084Y-35252778D01*
X79889814Y-35190186D01*
X79802307Y-35083557D01*
X79777222Y-35052991D01*
X79706037Y-34919815D01*
X79693557Y-34896467D01*
X79666485Y-34807221D01*
X79642037Y-34726627D01*
X79624641Y-34550000D01*
X79642037Y-34373373D01*
X79693557Y-34203534D01*
X79693557Y-34203533D01*
X79777221Y-34047011D01*
X79777222Y-34047009D01*
X79806552Y-34011271D01*
X79889814Y-33909814D01*
X80019318Y-33803534D01*
X80027009Y-33797222D01*
X80072740Y-33772778D01*
X80183533Y-33713557D01*
X80240147Y-33696384D01*
X80353373Y-33662037D01*
X80419558Y-33655518D01*
X80485740Y-33649000D01*
X80574260Y-33649000D01*
X80640442Y-33655518D01*
X80640442Y-33655518D01*
G37*
G36*
X83180442Y-33655518D02*
X83246627Y-33662037D01*
X83359853Y-33696384D01*
X83416467Y-33713557D01*
X83527260Y-33772778D01*
X83572991Y-33797222D01*
X83580682Y-33803534D01*
X83710186Y-33909814D01*
X83793448Y-34011271D01*
X83822778Y-34047009D01*
X83822779Y-34047011D01*
X83906443Y-34203533D01*
X83906443Y-34203534D01*
X83957963Y-34373373D01*
X83975359Y-34550000D01*
X83957963Y-34726627D01*
X83933515Y-34807221D01*
X83906443Y-34896467D01*
X83893963Y-34919815D01*
X83822778Y-35052991D01*
X83797693Y-35083557D01*
X83710186Y-35190186D01*
X83633916Y-35252778D01*
X83572991Y-35302778D01*
X83572989Y-35302779D01*
X83416467Y-35386443D01*
X83368478Y-35401000D01*
X83246627Y-35437963D01*
X83180442Y-35444482D01*
X83114260Y-35451000D01*
X83025740Y-35451000D01*
X82959558Y-35444482D01*
X82893373Y-35437963D01*
X82771522Y-35401000D01*
X82723533Y-35386443D01*
X82567011Y-35302779D01*
X82567009Y-35302778D01*
X82506084Y-35252778D01*
X82429814Y-35190186D01*
X82342307Y-35083557D01*
X82317222Y-35052991D01*
X82246037Y-34919815D01*
X82233557Y-34896467D01*
X82206485Y-34807221D01*
X82182037Y-34726627D01*
X82164641Y-34550000D01*
X82182037Y-34373373D01*
X82233557Y-34203534D01*
X82233557Y-34203533D01*
X82317221Y-34047011D01*
X82317222Y-34047009D01*
X82346552Y-34011271D01*
X82429814Y-33909814D01*
X82559318Y-33803534D01*
X82567009Y-33797222D01*
X82612740Y-33772778D01*
X82723533Y-33713557D01*
X82780147Y-33696384D01*
X82893373Y-33662037D01*
X82959558Y-33655518D01*
X83025740Y-33649000D01*
X83114260Y-33649000D01*
X83180442Y-33655518D01*
X83180442Y-33655518D01*
G37*
G36*
X101570443Y-33605519D02*
X101636627Y-33612037D01*
X101749853Y-33646384D01*
X101806467Y-33663557D01*
X101945087Y-33737652D01*
X101962991Y-33747222D01*
X101994131Y-33772778D01*
X102100186Y-33859814D01*
X102150399Y-33921000D01*
X102212778Y-33997009D01*
X102212779Y-33997011D01*
X102296443Y-34153533D01*
X102296443Y-34153534D01*
X102347963Y-34323373D01*
X102365359Y-34500000D01*
X102347963Y-34676627D01*
X102321593Y-34763557D01*
X102296443Y-34846467D01*
X102257237Y-34919815D01*
X102212778Y-35002991D01*
X102188940Y-35032037D01*
X102100186Y-35140186D01*
X102010811Y-35213533D01*
X101962991Y-35252778D01*
X101961577Y-35253534D01*
X101806467Y-35336443D01*
X101749853Y-35353616D01*
X101636627Y-35387963D01*
X101570443Y-35394481D01*
X101504260Y-35401000D01*
X101415740Y-35401000D01*
X101349557Y-35394481D01*
X101283373Y-35387963D01*
X101170147Y-35353616D01*
X101113533Y-35336443D01*
X100958423Y-35253534D01*
X100957009Y-35252778D01*
X100909189Y-35213533D01*
X100819814Y-35140186D01*
X100731060Y-35032037D01*
X100707222Y-35002991D01*
X100662763Y-34919815D01*
X100623557Y-34846467D01*
X100598407Y-34763557D01*
X100572037Y-34676627D01*
X100554641Y-34500000D01*
X100572037Y-34323373D01*
X100623557Y-34153534D01*
X100623557Y-34153533D01*
X100707221Y-33997011D01*
X100707222Y-33997009D01*
X100769601Y-33921000D01*
X100819814Y-33859814D01*
X100925869Y-33772778D01*
X100957009Y-33747222D01*
X100974913Y-33737652D01*
X101113533Y-33663557D01*
X101170147Y-33646384D01*
X101283373Y-33612037D01*
X101349557Y-33605519D01*
X101415740Y-33599000D01*
X101504260Y-33599000D01*
X101570443Y-33605519D01*
X101570443Y-33605519D01*
G37*
G36*
X104110443Y-33605519D02*
X104176627Y-33612037D01*
X104289853Y-33646384D01*
X104346467Y-33663557D01*
X104485087Y-33737652D01*
X104502991Y-33747222D01*
X104534131Y-33772778D01*
X104640186Y-33859814D01*
X104690399Y-33921000D01*
X104752778Y-33997009D01*
X104752779Y-33997011D01*
X104836443Y-34153533D01*
X104836443Y-34153534D01*
X104887963Y-34323373D01*
X104905359Y-34500000D01*
X104887963Y-34676627D01*
X104861593Y-34763557D01*
X104836443Y-34846467D01*
X104797237Y-34919815D01*
X104752778Y-35002991D01*
X104728940Y-35032037D01*
X104640186Y-35140186D01*
X104550811Y-35213533D01*
X104502991Y-35252778D01*
X104501577Y-35253534D01*
X104346467Y-35336443D01*
X104289853Y-35353616D01*
X104176627Y-35387963D01*
X104110443Y-35394481D01*
X104044260Y-35401000D01*
X103955740Y-35401000D01*
X103889557Y-35394481D01*
X103823373Y-35387963D01*
X103710147Y-35353616D01*
X103653533Y-35336443D01*
X103498423Y-35253534D01*
X103497009Y-35252778D01*
X103449189Y-35213533D01*
X103359814Y-35140186D01*
X103271060Y-35032037D01*
X103247222Y-35002991D01*
X103202763Y-34919815D01*
X103163557Y-34846467D01*
X103138407Y-34763557D01*
X103112037Y-34676627D01*
X103094641Y-34500000D01*
X103112037Y-34323373D01*
X103163557Y-34153534D01*
X103163557Y-34153533D01*
X103247221Y-33997011D01*
X103247222Y-33997009D01*
X103309601Y-33921000D01*
X103359814Y-33859814D01*
X103465869Y-33772778D01*
X103497009Y-33747222D01*
X103514913Y-33737652D01*
X103653533Y-33663557D01*
X103710147Y-33646384D01*
X103823373Y-33612037D01*
X103889557Y-33605519D01*
X103955740Y-33599000D01*
X104044260Y-33599000D01*
X104110443Y-33605519D01*
X104110443Y-33605519D01*
G37*
G36*
X106650443Y-33605519D02*
X106716627Y-33612037D01*
X106829853Y-33646384D01*
X106886467Y-33663557D01*
X107025087Y-33737652D01*
X107042991Y-33747222D01*
X107074131Y-33772778D01*
X107180186Y-33859814D01*
X107230399Y-33921000D01*
X107292778Y-33997009D01*
X107292779Y-33997011D01*
X107376443Y-34153533D01*
X107376443Y-34153534D01*
X107427963Y-34323373D01*
X107445359Y-34500000D01*
X107427963Y-34676627D01*
X107401593Y-34763557D01*
X107376443Y-34846467D01*
X107337237Y-34919815D01*
X107292778Y-35002991D01*
X107268940Y-35032037D01*
X107180186Y-35140186D01*
X107090811Y-35213533D01*
X107042991Y-35252778D01*
X107041577Y-35253534D01*
X106886467Y-35336443D01*
X106829853Y-35353616D01*
X106716627Y-35387963D01*
X106650443Y-35394481D01*
X106584260Y-35401000D01*
X106495740Y-35401000D01*
X106429557Y-35394481D01*
X106363373Y-35387963D01*
X106250147Y-35353616D01*
X106193533Y-35336443D01*
X106038423Y-35253534D01*
X106037009Y-35252778D01*
X105989189Y-35213533D01*
X105899814Y-35140186D01*
X105811060Y-35032037D01*
X105787222Y-35002991D01*
X105742763Y-34919815D01*
X105703557Y-34846467D01*
X105678407Y-34763557D01*
X105652037Y-34676627D01*
X105634641Y-34500000D01*
X105652037Y-34323373D01*
X105703557Y-34153534D01*
X105703557Y-34153533D01*
X105787221Y-33997011D01*
X105787222Y-33997009D01*
X105849601Y-33921000D01*
X105899814Y-33859814D01*
X106005869Y-33772778D01*
X106037009Y-33747222D01*
X106054913Y-33737652D01*
X106193533Y-33663557D01*
X106250147Y-33646384D01*
X106363373Y-33612037D01*
X106429557Y-33605519D01*
X106495740Y-33599000D01*
X106584260Y-33599000D01*
X106650443Y-33605519D01*
X106650443Y-33605519D01*
G37*
G36*
X109981000Y-35401000D02*
X108179000Y-35401000D01*
X108179000Y-33599000D01*
X109981000Y-33599000D01*
X109981000Y-35401000D01*
X109981000Y-35401000D01*
G37*
G36*
X95806000Y-35221000D02*
X89554000Y-35221000D01*
X89554000Y-33519000D01*
X95806000Y-33519000D01*
X95806000Y-35221000D01*
X95806000Y-35221000D01*
G37*
G36*
X73180443Y-33255519D02*
X73246627Y-33262037D01*
X73359853Y-33296384D01*
X73416467Y-33313557D01*
X73515451Y-33366466D01*
X73572991Y-33397222D01*
X73608729Y-33426552D01*
X73710186Y-33509814D01*
X73783378Y-33599000D01*
X73822778Y-33647009D01*
X73822779Y-33647011D01*
X73906443Y-33803533D01*
X73922493Y-33856443D01*
X73957963Y-33973373D01*
X73975359Y-34150000D01*
X73957963Y-34326627D01*
X73943782Y-34373375D01*
X73906443Y-34496467D01*
X73832348Y-34635087D01*
X73822778Y-34652991D01*
X73807147Y-34672037D01*
X73710186Y-34790186D01*
X73640686Y-34847222D01*
X73572991Y-34902778D01*
X73572989Y-34902779D01*
X73416467Y-34986443D01*
X73361921Y-35002989D01*
X73246627Y-35037963D01*
X73180443Y-35044481D01*
X73114260Y-35051000D01*
X73025740Y-35051000D01*
X72959557Y-35044481D01*
X72893373Y-35037963D01*
X72778079Y-35002989D01*
X72723533Y-34986443D01*
X72567011Y-34902779D01*
X72567009Y-34902778D01*
X72499314Y-34847222D01*
X72429814Y-34790186D01*
X72332853Y-34672037D01*
X72317222Y-34652991D01*
X72307652Y-34635087D01*
X72233557Y-34496467D01*
X72196218Y-34373375D01*
X72182037Y-34326627D01*
X72164641Y-34150000D01*
X72182037Y-33973373D01*
X72217507Y-33856443D01*
X72233557Y-33803533D01*
X72317221Y-33647011D01*
X72317222Y-33647009D01*
X72356622Y-33599000D01*
X72429814Y-33509814D01*
X72531271Y-33426552D01*
X72567009Y-33397222D01*
X72624549Y-33366466D01*
X72723533Y-33313557D01*
X72780147Y-33296384D01*
X72893373Y-33262037D01*
X72959557Y-33255519D01*
X73025740Y-33249000D01*
X73114260Y-33249000D01*
X73180443Y-33255519D01*
X73180443Y-33255519D01*
G37*
G36*
X53120442Y-32485518D02*
X53186627Y-32492037D01*
X53268955Y-32517011D01*
X53356467Y-32543557D01*
X53495087Y-32617652D01*
X53512991Y-32627222D01*
X53548729Y-32656552D01*
X53650186Y-32739814D01*
X53733448Y-32841271D01*
X53762778Y-32877009D01*
X53762779Y-32877011D01*
X53846443Y-33033533D01*
X53863616Y-33090147D01*
X53897963Y-33203373D01*
X53915359Y-33380000D01*
X53897963Y-33556627D01*
X53870546Y-33647009D01*
X53846443Y-33726467D01*
X53776968Y-33856443D01*
X53762778Y-33882991D01*
X53751738Y-33896443D01*
X53650186Y-34020186D01*
X53548729Y-34103448D01*
X53512991Y-34132778D01*
X53512989Y-34132779D01*
X53356467Y-34216443D01*
X53299853Y-34233616D01*
X53186627Y-34267963D01*
X53120443Y-34274481D01*
X53054260Y-34281000D01*
X52965740Y-34281000D01*
X52899557Y-34274481D01*
X52833373Y-34267963D01*
X52720147Y-34233616D01*
X52663533Y-34216443D01*
X52507011Y-34132779D01*
X52507009Y-34132778D01*
X52471271Y-34103448D01*
X52369814Y-34020186D01*
X52268262Y-33896443D01*
X52257222Y-33882991D01*
X52243032Y-33856443D01*
X52173557Y-33726467D01*
X52149454Y-33647009D01*
X52122037Y-33556627D01*
X52104641Y-33380000D01*
X52122037Y-33203373D01*
X52156384Y-33090147D01*
X52173557Y-33033533D01*
X52257221Y-32877011D01*
X52257222Y-32877009D01*
X52286552Y-32841271D01*
X52369814Y-32739814D01*
X52471271Y-32656552D01*
X52507009Y-32627222D01*
X52524913Y-32617652D01*
X52663533Y-32543557D01*
X52751045Y-32517011D01*
X52833373Y-32492037D01*
X52899558Y-32485518D01*
X52965740Y-32479000D01*
X53054260Y-32479000D01*
X53120442Y-32485518D01*
X53120442Y-32485518D01*
G37*
G36*
X68870443Y-32165519D02*
X68936627Y-32172037D01*
X69049853Y-32206384D01*
X69106467Y-32223557D01*
X69188155Y-32267221D01*
X69262991Y-32307222D01*
X69298729Y-32336552D01*
X69400186Y-32419814D01*
X69476653Y-32512991D01*
X69512778Y-32557009D01*
X69512779Y-32557011D01*
X69596443Y-32713533D01*
X69596443Y-32713534D01*
X69647963Y-32883373D01*
X69665359Y-33060000D01*
X69647963Y-33236627D01*
X69613616Y-33349853D01*
X69596443Y-33406467D01*
X69536292Y-33519000D01*
X69512778Y-33562991D01*
X69483448Y-33598729D01*
X69400186Y-33700186D01*
X69311731Y-33772778D01*
X69262991Y-33812778D01*
X69262989Y-33812779D01*
X69106467Y-33896443D01*
X69049853Y-33913616D01*
X68936627Y-33947963D01*
X68870442Y-33954482D01*
X68804260Y-33961000D01*
X68715740Y-33961000D01*
X68649558Y-33954482D01*
X68583373Y-33947963D01*
X68470147Y-33913616D01*
X68413533Y-33896443D01*
X68257011Y-33812779D01*
X68257009Y-33812778D01*
X68208269Y-33772778D01*
X68119814Y-33700186D01*
X68036552Y-33598729D01*
X68007222Y-33562991D01*
X67983708Y-33519000D01*
X67923557Y-33406467D01*
X67906384Y-33349853D01*
X67872037Y-33236627D01*
X67854641Y-33060000D01*
X67872037Y-32883373D01*
X67923557Y-32713534D01*
X67923557Y-32713533D01*
X68007221Y-32557011D01*
X68007222Y-32557009D01*
X68043347Y-32512991D01*
X68119814Y-32419814D01*
X68221271Y-32336552D01*
X68257009Y-32307222D01*
X68331845Y-32267221D01*
X68413533Y-32223557D01*
X68470147Y-32206384D01*
X68583373Y-32172037D01*
X68649557Y-32165519D01*
X68715740Y-32159000D01*
X68804260Y-32159000D01*
X68870443Y-32165519D01*
X68870443Y-32165519D01*
G37*
G36*
X64100443Y-32125519D02*
X64166627Y-32132037D01*
X64255512Y-32159000D01*
X64336467Y-32183557D01*
X64475087Y-32257652D01*
X64492991Y-32267222D01*
X64528729Y-32296552D01*
X64630186Y-32379814D01*
X64711585Y-32479000D01*
X64742778Y-32517009D01*
X64742779Y-32517011D01*
X64826443Y-32673533D01*
X64826443Y-32673534D01*
X64877963Y-32843373D01*
X64895359Y-33020000D01*
X64877963Y-33196627D01*
X64865829Y-33236627D01*
X64826443Y-33366467D01*
X64805062Y-33406467D01*
X64742778Y-33522991D01*
X64715175Y-33556625D01*
X64630186Y-33660186D01*
X64549422Y-33726466D01*
X64492991Y-33772778D01*
X64492989Y-33772779D01*
X64336467Y-33856443D01*
X64279853Y-33873616D01*
X64166627Y-33907963D01*
X64100443Y-33914481D01*
X64034260Y-33921000D01*
X63945740Y-33921000D01*
X63879557Y-33914481D01*
X63813373Y-33907963D01*
X63700147Y-33873616D01*
X63643533Y-33856443D01*
X63487011Y-33772779D01*
X63487009Y-33772778D01*
X63430578Y-33726466D01*
X63349814Y-33660186D01*
X63264825Y-33556625D01*
X63237222Y-33522991D01*
X63174938Y-33406467D01*
X63153557Y-33366467D01*
X63114171Y-33236627D01*
X63102037Y-33196627D01*
X63084641Y-33020000D01*
X63102037Y-32843373D01*
X63153557Y-32673534D01*
X63153557Y-32673533D01*
X63237221Y-32517011D01*
X63237222Y-32517009D01*
X63268415Y-32479000D01*
X63349814Y-32379814D01*
X63451271Y-32296552D01*
X63487009Y-32267222D01*
X63504913Y-32257652D01*
X63643533Y-32183557D01*
X63724488Y-32159000D01*
X63813373Y-32132037D01*
X63879557Y-32125519D01*
X63945740Y-32119000D01*
X64034260Y-32119000D01*
X64100443Y-32125519D01*
X64100443Y-32125519D01*
G37*
G36*
X59230443Y-32125519D02*
X59296627Y-32132037D01*
X59385512Y-32159000D01*
X59466467Y-32183557D01*
X59605087Y-32257652D01*
X59622991Y-32267222D01*
X59658729Y-32296552D01*
X59760186Y-32379814D01*
X59841585Y-32479000D01*
X59872778Y-32517009D01*
X59872779Y-32517011D01*
X59956443Y-32673533D01*
X59956443Y-32673534D01*
X60007963Y-32843373D01*
X60025359Y-33020000D01*
X60007963Y-33196627D01*
X59995829Y-33236627D01*
X59956443Y-33366467D01*
X59935062Y-33406467D01*
X59872778Y-33522991D01*
X59845175Y-33556625D01*
X59760186Y-33660186D01*
X59679422Y-33726466D01*
X59622991Y-33772778D01*
X59622989Y-33772779D01*
X59466467Y-33856443D01*
X59409853Y-33873616D01*
X59296627Y-33907963D01*
X59230443Y-33914481D01*
X59164260Y-33921000D01*
X59075740Y-33921000D01*
X59009557Y-33914481D01*
X58943373Y-33907963D01*
X58830147Y-33873616D01*
X58773533Y-33856443D01*
X58617011Y-33772779D01*
X58617009Y-33772778D01*
X58560578Y-33726466D01*
X58479814Y-33660186D01*
X58394825Y-33556625D01*
X58367222Y-33522991D01*
X58304938Y-33406467D01*
X58283557Y-33366467D01*
X58244171Y-33236627D01*
X58232037Y-33196627D01*
X58214641Y-33020000D01*
X58232037Y-32843373D01*
X58283557Y-32673534D01*
X58283557Y-32673533D01*
X58367221Y-32517011D01*
X58367222Y-32517009D01*
X58398415Y-32479000D01*
X58479814Y-32379814D01*
X58581271Y-32296552D01*
X58617009Y-32267222D01*
X58634913Y-32257652D01*
X58773533Y-32183557D01*
X58854488Y-32159000D01*
X58943373Y-32132037D01*
X59009557Y-32125519D01*
X59075740Y-32119000D01*
X59164260Y-32119000D01*
X59230443Y-32125519D01*
X59230443Y-32125519D01*
G37*
G36*
X78100442Y-31115518D02*
X78166627Y-31122037D01*
X78279853Y-31156384D01*
X78336467Y-31173557D01*
X78475087Y-31247652D01*
X78492991Y-31257222D01*
X78528729Y-31286552D01*
X78630186Y-31369814D01*
X78713448Y-31471271D01*
X78742778Y-31507009D01*
X78742779Y-31507011D01*
X78826443Y-31663533D01*
X78826443Y-31663534D01*
X78877963Y-31833373D01*
X78895359Y-32010000D01*
X78877963Y-32186627D01*
X78866760Y-32223557D01*
X78826443Y-32356467D01*
X78813963Y-32379815D01*
X78742778Y-32512991D01*
X78717693Y-32543557D01*
X78630186Y-32650186D01*
X78552996Y-32713533D01*
X78492991Y-32762778D01*
X78492989Y-32762779D01*
X78336467Y-32846443D01*
X78279853Y-32863616D01*
X78166627Y-32897963D01*
X78100442Y-32904482D01*
X78034260Y-32911000D01*
X77945740Y-32911000D01*
X77879558Y-32904482D01*
X77813373Y-32897963D01*
X77700147Y-32863616D01*
X77643533Y-32846443D01*
X77487011Y-32762779D01*
X77487009Y-32762778D01*
X77427004Y-32713533D01*
X77349814Y-32650186D01*
X77262307Y-32543557D01*
X77237222Y-32512991D01*
X77166037Y-32379815D01*
X77153557Y-32356467D01*
X77113240Y-32223557D01*
X77102037Y-32186627D01*
X77084641Y-32010000D01*
X77102037Y-31833373D01*
X77153557Y-31663534D01*
X77153557Y-31663533D01*
X77237221Y-31507011D01*
X77237222Y-31507009D01*
X77266552Y-31471271D01*
X77349814Y-31369814D01*
X77451271Y-31286552D01*
X77487009Y-31257222D01*
X77504913Y-31247652D01*
X77643533Y-31173557D01*
X77700147Y-31156384D01*
X77813373Y-31122037D01*
X77879558Y-31115518D01*
X77945740Y-31109000D01*
X78034260Y-31109000D01*
X78100442Y-31115518D01*
X78100442Y-31115518D01*
G37*
G36*
X80640442Y-31115518D02*
X80706627Y-31122037D01*
X80819853Y-31156384D01*
X80876467Y-31173557D01*
X81015087Y-31247652D01*
X81032991Y-31257222D01*
X81068729Y-31286552D01*
X81170186Y-31369814D01*
X81253448Y-31471271D01*
X81282778Y-31507009D01*
X81282779Y-31507011D01*
X81366443Y-31663533D01*
X81366443Y-31663534D01*
X81417963Y-31833373D01*
X81435359Y-32010000D01*
X81417963Y-32186627D01*
X81406760Y-32223557D01*
X81366443Y-32356467D01*
X81353963Y-32379815D01*
X81282778Y-32512991D01*
X81257693Y-32543557D01*
X81170186Y-32650186D01*
X81092996Y-32713533D01*
X81032991Y-32762778D01*
X81032989Y-32762779D01*
X80876467Y-32846443D01*
X80819853Y-32863616D01*
X80706627Y-32897963D01*
X80640442Y-32904482D01*
X80574260Y-32911000D01*
X80485740Y-32911000D01*
X80419558Y-32904482D01*
X80353373Y-32897963D01*
X80240147Y-32863616D01*
X80183533Y-32846443D01*
X80027011Y-32762779D01*
X80027009Y-32762778D01*
X79967004Y-32713533D01*
X79889814Y-32650186D01*
X79802307Y-32543557D01*
X79777222Y-32512991D01*
X79706037Y-32379815D01*
X79693557Y-32356467D01*
X79653240Y-32223557D01*
X79642037Y-32186627D01*
X79624641Y-32010000D01*
X79642037Y-31833373D01*
X79693557Y-31663534D01*
X79693557Y-31663533D01*
X79777221Y-31507011D01*
X79777222Y-31507009D01*
X79806552Y-31471271D01*
X79889814Y-31369814D01*
X79991271Y-31286552D01*
X80027009Y-31257222D01*
X80044913Y-31247652D01*
X80183533Y-31173557D01*
X80240147Y-31156384D01*
X80353373Y-31122037D01*
X80419558Y-31115518D01*
X80485740Y-31109000D01*
X80574260Y-31109000D01*
X80640442Y-31115518D01*
X80640442Y-31115518D01*
G37*
G36*
X83971000Y-32911000D02*
X82169000Y-32911000D01*
X82169000Y-31109000D01*
X83971000Y-31109000D01*
X83971000Y-32911000D01*
X83971000Y-32911000D01*
G37*
G36*
X73971000Y-32511000D02*
X72169000Y-32511000D01*
X72169000Y-30709000D01*
X73971000Y-30709000D01*
X73971000Y-32511000D01*
X73971000Y-32511000D01*
G37*
G36*
X53911000Y-31741000D02*
X52109000Y-31741000D01*
X52109000Y-29939000D01*
X53911000Y-29939000D01*
X53911000Y-31741000D01*
X53911000Y-31741000D01*
G37*
G36*
X69661000Y-31421000D02*
X67859000Y-31421000D01*
X67859000Y-29619000D01*
X69661000Y-29619000D01*
X69661000Y-31421000D01*
X69661000Y-31421000D01*
G37*
G36*
X60021000Y-31381000D02*
X58219000Y-31381000D01*
X58219000Y-29579000D01*
X60021000Y-29579000D01*
X60021000Y-31381000D01*
X60021000Y-31381000D01*
G37*
G36*
X64891000Y-31381000D02*
X63089000Y-31381000D01*
X63089000Y-29579000D01*
X64891000Y-29579000D01*
X64891000Y-31381000D01*
X64891000Y-31381000D01*
G37*
G36*
X109951000Y-30781000D02*
X108149000Y-30781000D01*
X108149000Y-28979000D01*
X109951000Y-28979000D01*
X109951000Y-30781000D01*
X109951000Y-30781000D01*
G37*
G36*
X101540442Y-28985518D02*
X101606627Y-28992037D01*
X101710535Y-29023557D01*
X101776467Y-29043557D01*
X101895572Y-29107221D01*
X101932991Y-29127222D01*
X101968729Y-29156552D01*
X102070186Y-29239814D01*
X102153448Y-29341271D01*
X102182778Y-29377009D01*
X102182779Y-29377011D01*
X102266443Y-29533533D01*
X102266443Y-29533534D01*
X102317963Y-29703373D01*
X102335359Y-29880000D01*
X102317963Y-30056627D01*
X102283616Y-30169853D01*
X102266443Y-30226467D01*
X102193469Y-30362989D01*
X102182778Y-30382991D01*
X102153448Y-30418729D01*
X102070186Y-30520186D01*
X101968729Y-30603448D01*
X101932991Y-30632778D01*
X101932989Y-30632779D01*
X101776467Y-30716443D01*
X101719853Y-30733616D01*
X101606627Y-30767963D01*
X101540442Y-30774482D01*
X101474260Y-30781000D01*
X101385740Y-30781000D01*
X101319558Y-30774482D01*
X101253373Y-30767963D01*
X101140147Y-30733616D01*
X101083533Y-30716443D01*
X100927011Y-30632779D01*
X100927009Y-30632778D01*
X100891271Y-30603448D01*
X100789814Y-30520186D01*
X100706552Y-30418729D01*
X100677222Y-30382991D01*
X100666531Y-30362989D01*
X100593557Y-30226467D01*
X100576384Y-30169853D01*
X100542037Y-30056627D01*
X100524641Y-29880000D01*
X100542037Y-29703373D01*
X100593557Y-29533534D01*
X100593557Y-29533533D01*
X100677221Y-29377011D01*
X100677222Y-29377009D01*
X100706552Y-29341271D01*
X100789814Y-29239814D01*
X100891271Y-29156552D01*
X100927009Y-29127222D01*
X100964428Y-29107221D01*
X101083533Y-29043557D01*
X101149465Y-29023557D01*
X101253373Y-28992037D01*
X101319558Y-28985518D01*
X101385740Y-28979000D01*
X101474260Y-28979000D01*
X101540442Y-28985518D01*
X101540442Y-28985518D01*
G37*
G36*
X104080442Y-28985518D02*
X104146627Y-28992037D01*
X104250535Y-29023557D01*
X104316467Y-29043557D01*
X104435572Y-29107221D01*
X104472991Y-29127222D01*
X104508729Y-29156552D01*
X104610186Y-29239814D01*
X104693448Y-29341271D01*
X104722778Y-29377009D01*
X104722779Y-29377011D01*
X104806443Y-29533533D01*
X104806443Y-29533534D01*
X104857963Y-29703373D01*
X104875359Y-29880000D01*
X104857963Y-30056627D01*
X104823616Y-30169853D01*
X104806443Y-30226467D01*
X104733469Y-30362989D01*
X104722778Y-30382991D01*
X104693448Y-30418729D01*
X104610186Y-30520186D01*
X104508729Y-30603448D01*
X104472991Y-30632778D01*
X104472989Y-30632779D01*
X104316467Y-30716443D01*
X104259853Y-30733616D01*
X104146627Y-30767963D01*
X104080442Y-30774482D01*
X104014260Y-30781000D01*
X103925740Y-30781000D01*
X103859558Y-30774482D01*
X103793373Y-30767963D01*
X103680147Y-30733616D01*
X103623533Y-30716443D01*
X103467011Y-30632779D01*
X103467009Y-30632778D01*
X103431271Y-30603448D01*
X103329814Y-30520186D01*
X103246552Y-30418729D01*
X103217222Y-30382991D01*
X103206531Y-30362989D01*
X103133557Y-30226467D01*
X103116384Y-30169853D01*
X103082037Y-30056627D01*
X103064641Y-29880000D01*
X103082037Y-29703373D01*
X103133557Y-29533534D01*
X103133557Y-29533533D01*
X103217221Y-29377011D01*
X103217222Y-29377009D01*
X103246552Y-29341271D01*
X103329814Y-29239814D01*
X103431271Y-29156552D01*
X103467009Y-29127222D01*
X103504428Y-29107221D01*
X103623533Y-29043557D01*
X103689465Y-29023557D01*
X103793373Y-28992037D01*
X103859558Y-28985518D01*
X103925740Y-28979000D01*
X104014260Y-28979000D01*
X104080442Y-28985518D01*
X104080442Y-28985518D01*
G37*
G36*
X106620442Y-28985518D02*
X106686627Y-28992037D01*
X106790535Y-29023557D01*
X106856467Y-29043557D01*
X106975572Y-29107221D01*
X107012991Y-29127222D01*
X107048729Y-29156552D01*
X107150186Y-29239814D01*
X107233448Y-29341271D01*
X107262778Y-29377009D01*
X107262779Y-29377011D01*
X107346443Y-29533533D01*
X107346443Y-29533534D01*
X107397963Y-29703373D01*
X107415359Y-29880000D01*
X107397963Y-30056627D01*
X107363616Y-30169853D01*
X107346443Y-30226467D01*
X107273469Y-30362989D01*
X107262778Y-30382991D01*
X107233448Y-30418729D01*
X107150186Y-30520186D01*
X107048729Y-30603448D01*
X107012991Y-30632778D01*
X107012989Y-30632779D01*
X106856467Y-30716443D01*
X106799853Y-30733616D01*
X106686627Y-30767963D01*
X106620442Y-30774482D01*
X106554260Y-30781000D01*
X106465740Y-30781000D01*
X106399558Y-30774482D01*
X106333373Y-30767963D01*
X106220147Y-30733616D01*
X106163533Y-30716443D01*
X106007011Y-30632779D01*
X106007009Y-30632778D01*
X105971271Y-30603448D01*
X105869814Y-30520186D01*
X105786552Y-30418729D01*
X105757222Y-30382991D01*
X105746531Y-30362989D01*
X105673557Y-30226467D01*
X105656384Y-30169853D01*
X105622037Y-30056627D01*
X105604641Y-29880000D01*
X105622037Y-29703373D01*
X105673557Y-29533534D01*
X105673557Y-29533533D01*
X105757221Y-29377011D01*
X105757222Y-29377009D01*
X105786552Y-29341271D01*
X105869814Y-29239814D01*
X105971271Y-29156552D01*
X106007009Y-29127222D01*
X106044428Y-29107221D01*
X106163533Y-29043557D01*
X106229465Y-29023557D01*
X106333373Y-28992037D01*
X106399558Y-28985518D01*
X106465740Y-28979000D01*
X106554260Y-28979000D01*
X106620442Y-28985518D01*
X106620442Y-28985518D01*
G37*
G36*
X96691000Y-30761000D02*
X94889000Y-30761000D01*
X94889000Y-28959000D01*
X96691000Y-28959000D01*
X96691000Y-30761000D01*
X96691000Y-30761000D01*
G37*
G36*
X93360442Y-28965518D02*
X93426627Y-28972037D01*
X93539853Y-29006384D01*
X93596467Y-29023557D01*
X93735087Y-29097652D01*
X93752991Y-29107222D01*
X93777361Y-29127222D01*
X93890186Y-29219814D01*
X93973448Y-29321271D01*
X94002778Y-29357009D01*
X94002779Y-29357011D01*
X94086443Y-29513533D01*
X94086443Y-29513534D01*
X94137963Y-29683373D01*
X94155359Y-29860000D01*
X94137963Y-30036627D01*
X94131896Y-30056627D01*
X94086443Y-30206467D01*
X94012348Y-30345087D01*
X94002778Y-30362991D01*
X93986366Y-30382989D01*
X93890186Y-30500186D01*
X93788729Y-30583448D01*
X93752991Y-30612778D01*
X93752989Y-30612779D01*
X93596467Y-30696443D01*
X93555071Y-30709000D01*
X93426627Y-30747963D01*
X93360442Y-30754482D01*
X93294260Y-30761000D01*
X93205740Y-30761000D01*
X93139558Y-30754482D01*
X93073373Y-30747963D01*
X92944929Y-30709000D01*
X92903533Y-30696443D01*
X92747011Y-30612779D01*
X92747009Y-30612778D01*
X92711271Y-30583448D01*
X92609814Y-30500186D01*
X92513634Y-30382989D01*
X92497222Y-30362991D01*
X92487652Y-30345087D01*
X92413557Y-30206467D01*
X92368104Y-30056627D01*
X92362037Y-30036627D01*
X92344641Y-29860000D01*
X92362037Y-29683373D01*
X92413557Y-29513534D01*
X92413557Y-29513533D01*
X92497221Y-29357011D01*
X92497222Y-29357009D01*
X92526552Y-29321271D01*
X92609814Y-29219814D01*
X92722639Y-29127222D01*
X92747009Y-29107222D01*
X92764913Y-29097652D01*
X92903533Y-29023557D01*
X92960147Y-29006384D01*
X93073373Y-28972037D01*
X93139558Y-28965518D01*
X93205740Y-28959000D01*
X93294260Y-28959000D01*
X93360442Y-28965518D01*
X93360442Y-28965518D01*
G37*
G36*
X90820442Y-28965518D02*
X90886627Y-28972037D01*
X90999853Y-29006384D01*
X91056467Y-29023557D01*
X91195087Y-29097652D01*
X91212991Y-29107222D01*
X91237361Y-29127222D01*
X91350186Y-29219814D01*
X91433448Y-29321271D01*
X91462778Y-29357009D01*
X91462779Y-29357011D01*
X91546443Y-29513533D01*
X91546443Y-29513534D01*
X91597963Y-29683373D01*
X91615359Y-29860000D01*
X91597963Y-30036627D01*
X91591896Y-30056627D01*
X91546443Y-30206467D01*
X91472348Y-30345087D01*
X91462778Y-30362991D01*
X91446366Y-30382989D01*
X91350186Y-30500186D01*
X91248729Y-30583448D01*
X91212991Y-30612778D01*
X91212989Y-30612779D01*
X91056467Y-30696443D01*
X91015071Y-30709000D01*
X90886627Y-30747963D01*
X90820442Y-30754482D01*
X90754260Y-30761000D01*
X90665740Y-30761000D01*
X90599558Y-30754482D01*
X90533373Y-30747963D01*
X90404929Y-30709000D01*
X90363533Y-30696443D01*
X90207011Y-30612779D01*
X90207009Y-30612778D01*
X90171271Y-30583448D01*
X90069814Y-30500186D01*
X89973634Y-30382989D01*
X89957222Y-30362991D01*
X89947652Y-30345087D01*
X89873557Y-30206467D01*
X89828104Y-30056627D01*
X89822037Y-30036627D01*
X89804641Y-29860000D01*
X89822037Y-29683373D01*
X89873557Y-29513534D01*
X89873557Y-29513533D01*
X89957221Y-29357011D01*
X89957222Y-29357009D01*
X89986552Y-29321271D01*
X90069814Y-29219814D01*
X90182639Y-29127222D01*
X90207009Y-29107222D01*
X90224913Y-29097652D01*
X90363533Y-29023557D01*
X90420147Y-29006384D01*
X90533373Y-28972037D01*
X90599558Y-28965518D01*
X90665740Y-28959000D01*
X90754260Y-28959000D01*
X90820442Y-28965518D01*
X90820442Y-28965518D01*
G37*
G36*
X88280442Y-28965518D02*
X88346627Y-28972037D01*
X88459853Y-29006384D01*
X88516467Y-29023557D01*
X88655087Y-29097652D01*
X88672991Y-29107222D01*
X88697361Y-29127222D01*
X88810186Y-29219814D01*
X88893448Y-29321271D01*
X88922778Y-29357009D01*
X88922779Y-29357011D01*
X89006443Y-29513533D01*
X89006443Y-29513534D01*
X89057963Y-29683373D01*
X89075359Y-29860000D01*
X89057963Y-30036627D01*
X89051896Y-30056627D01*
X89006443Y-30206467D01*
X88932348Y-30345087D01*
X88922778Y-30362991D01*
X88906366Y-30382989D01*
X88810186Y-30500186D01*
X88708729Y-30583448D01*
X88672991Y-30612778D01*
X88672989Y-30612779D01*
X88516467Y-30696443D01*
X88475071Y-30709000D01*
X88346627Y-30747963D01*
X88280442Y-30754482D01*
X88214260Y-30761000D01*
X88125740Y-30761000D01*
X88059558Y-30754482D01*
X87993373Y-30747963D01*
X87864929Y-30709000D01*
X87823533Y-30696443D01*
X87667011Y-30612779D01*
X87667009Y-30612778D01*
X87631271Y-30583448D01*
X87529814Y-30500186D01*
X87433634Y-30382989D01*
X87417222Y-30362991D01*
X87407652Y-30345087D01*
X87333557Y-30206467D01*
X87288104Y-30056627D01*
X87282037Y-30036627D01*
X87264641Y-29860000D01*
X87282037Y-29683373D01*
X87333557Y-29513534D01*
X87333557Y-29513533D01*
X87417221Y-29357011D01*
X87417222Y-29357009D01*
X87446552Y-29321271D01*
X87529814Y-29219814D01*
X87642639Y-29127222D01*
X87667009Y-29107222D01*
X87684913Y-29097652D01*
X87823533Y-29023557D01*
X87880147Y-29006384D01*
X87993373Y-28972037D01*
X88059558Y-28965518D01*
X88125740Y-28959000D01*
X88214260Y-28959000D01*
X88280442Y-28965518D01*
X88280442Y-28965518D01*
G37*
M02*
