G04 #@! TF.GenerationSoftware,KiCad,Pcbnew,5.0.1*
G04 #@! TF.CreationDate,2018-12-10T22:32:32+01:00*
G04 #@! TF.ProjectId,tamtam_board,74616D74616D5F626F6172642E6B6963,rev?*
G04 #@! TF.SameCoordinates,Original*
G04 #@! TF.FileFunction,Legend,Bot*
G04 #@! TF.FilePolarity,Positive*
%FSLAX46Y46*%
G04 Gerber Fmt 4.6, Leading zero omitted, Abs format (unit mm)*
G04 Created by KiCad (PCBNEW 5.0.1) date dilluns, 10 de desembre de 2018, 22:32:32 CET*
%MOMM*%
%LPD*%
G01*
G04 APERTURE LIST*
%ADD10C,0.150000*%
%ADD11C,0.120000*%
G04 APERTURE END LIST*
D10*
G04 #@! TO.C,U1*
X89055000Y-42245000D02*
X89055000Y-42020000D01*
X96305000Y-42245000D02*
X96305000Y-41920000D01*
X96305000Y-34995000D02*
X96305000Y-35320000D01*
X89055000Y-34995000D02*
X89055000Y-35320000D01*
X89055000Y-42245000D02*
X89380000Y-42245000D01*
X89055000Y-34995000D02*
X89380000Y-34995000D01*
X96305000Y-34995000D02*
X95980000Y-34995000D01*
X96305000Y-42245000D02*
X95980000Y-42245000D01*
X89055000Y-42020000D02*
X87630000Y-42020000D01*
D11*
G04 #@! TO.C,C2*
X99608733Y-37090000D02*
X99951267Y-37090000D01*
X99608733Y-38110000D02*
X99951267Y-38110000D01*
G04 #@! TO.C,C3*
X81360000Y-42501267D02*
X81360000Y-42158733D01*
X82380000Y-42501267D02*
X82380000Y-42158733D01*
G04 #@! TO.C,C4*
X80640000Y-42446267D02*
X80640000Y-42103733D01*
X79620000Y-42446267D02*
X79620000Y-42103733D01*
G04 #@! TO.C,R1*
X107961267Y-36290000D02*
X107618733Y-36290000D01*
X107961267Y-37310000D02*
X107618733Y-37310000D01*
G04 #@! TO.C,R2*
X107821267Y-42070000D02*
X107478733Y-42070000D01*
X107821267Y-41050000D02*
X107478733Y-41050000D01*
G04 #@! TO.C,R3*
X64396267Y-37120000D02*
X64053733Y-37120000D01*
X64396267Y-38140000D02*
X64053733Y-38140000D01*
G04 #@! TO.C,R6*
X76964000Y-42053733D02*
X76964000Y-42396267D01*
X75944000Y-42053733D02*
X75944000Y-42396267D01*
G04 #@! TO.C,R7*
X78742000Y-42105733D02*
X78742000Y-42448267D01*
X77722000Y-42105733D02*
X77722000Y-42448267D01*
G04 #@! TO.C,U1*
D10*
X93441904Y-44122380D02*
X93441904Y-44931904D01*
X93394285Y-45027142D01*
X93346666Y-45074761D01*
X93251428Y-45122380D01*
X93060952Y-45122380D01*
X92965714Y-45074761D01*
X92918095Y-45027142D01*
X92870476Y-44931904D01*
X92870476Y-44122380D01*
X91870476Y-45122380D02*
X92441904Y-45122380D01*
X92156190Y-45122380D02*
X92156190Y-44122380D01*
X92251428Y-44265238D01*
X92346666Y-44360476D01*
X92441904Y-44408095D01*
G04 #@! TO.C,C2*
X99946666Y-39387142D02*
X99994285Y-39434761D01*
X100137142Y-39482380D01*
X100232380Y-39482380D01*
X100375238Y-39434761D01*
X100470476Y-39339523D01*
X100518095Y-39244285D01*
X100565714Y-39053809D01*
X100565714Y-38910952D01*
X100518095Y-38720476D01*
X100470476Y-38625238D01*
X100375238Y-38530000D01*
X100232380Y-38482380D01*
X100137142Y-38482380D01*
X99994285Y-38530000D01*
X99946666Y-38577619D01*
X99565714Y-38577619D02*
X99518095Y-38530000D01*
X99422857Y-38482380D01*
X99184761Y-38482380D01*
X99089523Y-38530000D01*
X99041904Y-38577619D01*
X98994285Y-38672857D01*
X98994285Y-38768095D01*
X99041904Y-38910952D01*
X99613333Y-39482380D01*
X98994285Y-39482380D01*
G04 #@! TO.C,C3*
X83657142Y-42163333D02*
X83704761Y-42115714D01*
X83752380Y-41972857D01*
X83752380Y-41877619D01*
X83704761Y-41734761D01*
X83609523Y-41639523D01*
X83514285Y-41591904D01*
X83323809Y-41544285D01*
X83180952Y-41544285D01*
X82990476Y-41591904D01*
X82895238Y-41639523D01*
X82800000Y-41734761D01*
X82752380Y-41877619D01*
X82752380Y-41972857D01*
X82800000Y-42115714D01*
X82847619Y-42163333D01*
X82752380Y-42496666D02*
X82752380Y-43115714D01*
X83133333Y-42782380D01*
X83133333Y-42925238D01*
X83180952Y-43020476D01*
X83228571Y-43068095D01*
X83323809Y-43115714D01*
X83561904Y-43115714D01*
X83657142Y-43068095D01*
X83704761Y-43020476D01*
X83752380Y-42925238D01*
X83752380Y-42639523D01*
X83704761Y-42544285D01*
X83657142Y-42496666D01*
G04 #@! TO.C,C4*
X81917142Y-42108333D02*
X81964761Y-42060714D01*
X82012380Y-41917857D01*
X82012380Y-41822619D01*
X81964761Y-41679761D01*
X81869523Y-41584523D01*
X81774285Y-41536904D01*
X81583809Y-41489285D01*
X81440952Y-41489285D01*
X81250476Y-41536904D01*
X81155238Y-41584523D01*
X81060000Y-41679761D01*
X81012380Y-41822619D01*
X81012380Y-41917857D01*
X81060000Y-42060714D01*
X81107619Y-42108333D01*
X81345714Y-42965476D02*
X82012380Y-42965476D01*
X80964761Y-42727380D02*
X81679047Y-42489285D01*
X81679047Y-43108333D01*
G04 #@! TO.C,R1*
X107956666Y-35822380D02*
X108290000Y-35346190D01*
X108528095Y-35822380D02*
X108528095Y-34822380D01*
X108147142Y-34822380D01*
X108051904Y-34870000D01*
X108004285Y-34917619D01*
X107956666Y-35012857D01*
X107956666Y-35155714D01*
X108004285Y-35250952D01*
X108051904Y-35298571D01*
X108147142Y-35346190D01*
X108528095Y-35346190D01*
X107004285Y-35822380D02*
X107575714Y-35822380D01*
X107290000Y-35822380D02*
X107290000Y-34822380D01*
X107385238Y-34965238D01*
X107480476Y-35060476D01*
X107575714Y-35108095D01*
G04 #@! TO.C,R2*
X107816666Y-40582380D02*
X108150000Y-40106190D01*
X108388095Y-40582380D02*
X108388095Y-39582380D01*
X108007142Y-39582380D01*
X107911904Y-39630000D01*
X107864285Y-39677619D01*
X107816666Y-39772857D01*
X107816666Y-39915714D01*
X107864285Y-40010952D01*
X107911904Y-40058571D01*
X108007142Y-40106190D01*
X108388095Y-40106190D01*
X107435714Y-39677619D02*
X107388095Y-39630000D01*
X107292857Y-39582380D01*
X107054761Y-39582380D01*
X106959523Y-39630000D01*
X106911904Y-39677619D01*
X106864285Y-39772857D01*
X106864285Y-39868095D01*
X106911904Y-40010952D01*
X107483333Y-40582380D01*
X106864285Y-40582380D01*
G04 #@! TO.C,R3*
X64391666Y-36652380D02*
X64725000Y-36176190D01*
X64963095Y-36652380D02*
X64963095Y-35652380D01*
X64582142Y-35652380D01*
X64486904Y-35700000D01*
X64439285Y-35747619D01*
X64391666Y-35842857D01*
X64391666Y-35985714D01*
X64439285Y-36080952D01*
X64486904Y-36128571D01*
X64582142Y-36176190D01*
X64963095Y-36176190D01*
X64058333Y-35652380D02*
X63439285Y-35652380D01*
X63772619Y-36033333D01*
X63629761Y-36033333D01*
X63534523Y-36080952D01*
X63486904Y-36128571D01*
X63439285Y-36223809D01*
X63439285Y-36461904D01*
X63486904Y-36557142D01*
X63534523Y-36604761D01*
X63629761Y-36652380D01*
X63915476Y-36652380D01*
X64010714Y-36604761D01*
X64058333Y-36557142D01*
G04 #@! TO.C,R6*
X75476380Y-42058333D02*
X75000190Y-41725000D01*
X75476380Y-41486904D02*
X74476380Y-41486904D01*
X74476380Y-41867857D01*
X74524000Y-41963095D01*
X74571619Y-42010714D01*
X74666857Y-42058333D01*
X74809714Y-42058333D01*
X74904952Y-42010714D01*
X74952571Y-41963095D01*
X75000190Y-41867857D01*
X75000190Y-41486904D01*
X74476380Y-42915476D02*
X74476380Y-42725000D01*
X74524000Y-42629761D01*
X74571619Y-42582142D01*
X74714476Y-42486904D01*
X74904952Y-42439285D01*
X75285904Y-42439285D01*
X75381142Y-42486904D01*
X75428761Y-42534523D01*
X75476380Y-42629761D01*
X75476380Y-42820238D01*
X75428761Y-42915476D01*
X75381142Y-42963095D01*
X75285904Y-43010714D01*
X75047809Y-43010714D01*
X74952571Y-42963095D01*
X74904952Y-42915476D01*
X74857333Y-42820238D01*
X74857333Y-42629761D01*
X74904952Y-42534523D01*
X74952571Y-42486904D01*
X75047809Y-42439285D01*
G04 #@! TO.C,R7*
X77254380Y-42110333D02*
X76778190Y-41777000D01*
X77254380Y-41538904D02*
X76254380Y-41538904D01*
X76254380Y-41919857D01*
X76302000Y-42015095D01*
X76349619Y-42062714D01*
X76444857Y-42110333D01*
X76587714Y-42110333D01*
X76682952Y-42062714D01*
X76730571Y-42015095D01*
X76778190Y-41919857D01*
X76778190Y-41538904D01*
X76254380Y-42443666D02*
X76254380Y-43110333D01*
X77254380Y-42681761D01*
G04 #@! TD*
M02*
