G04 #@! TF.GenerationSoftware,KiCad,Pcbnew,5.0.1*
G04 #@! TF.CreationDate,2018-12-10T22:32:32+01:00*
G04 #@! TF.ProjectId,tamtam_board,74616D74616D5F626F6172642E6B6963,rev?*
G04 #@! TF.SameCoordinates,Original*
G04 #@! TF.FileFunction,Paste,Top*
G04 #@! TF.FilePolarity,Positive*
%FSLAX46Y46*%
G04 Gerber Fmt 4.6, Leading zero omitted, Abs format (unit mm)*
G04 Created by KiCad (PCBNEW 5.0.1) date dilluns, 10 de desembre de 2018, 22:32:32 CET*
%MOMM*%
%LPD*%
G01*
G04 APERTURE LIST*
%ADD10C,0.100000*%
%ADD11C,0.950000*%
G04 APERTURE END LIST*
D10*
G04 #@! TO.C,C1*
G36*
X84925779Y-48836144D02*
X84948834Y-48839563D01*
X84971443Y-48845227D01*
X84993387Y-48853079D01*
X85014457Y-48863044D01*
X85034448Y-48875026D01*
X85053168Y-48888910D01*
X85070438Y-48904562D01*
X85086090Y-48921832D01*
X85099974Y-48940552D01*
X85111956Y-48960543D01*
X85121921Y-48981613D01*
X85129773Y-49003557D01*
X85135437Y-49026166D01*
X85138856Y-49049221D01*
X85140000Y-49072500D01*
X85140000Y-49547500D01*
X85138856Y-49570779D01*
X85135437Y-49593834D01*
X85129773Y-49616443D01*
X85121921Y-49638387D01*
X85111956Y-49659457D01*
X85099974Y-49679448D01*
X85086090Y-49698168D01*
X85070438Y-49715438D01*
X85053168Y-49731090D01*
X85034448Y-49744974D01*
X85014457Y-49756956D01*
X84993387Y-49766921D01*
X84971443Y-49774773D01*
X84948834Y-49780437D01*
X84925779Y-49783856D01*
X84902500Y-49785000D01*
X84327500Y-49785000D01*
X84304221Y-49783856D01*
X84281166Y-49780437D01*
X84258557Y-49774773D01*
X84236613Y-49766921D01*
X84215543Y-49756956D01*
X84195552Y-49744974D01*
X84176832Y-49731090D01*
X84159562Y-49715438D01*
X84143910Y-49698168D01*
X84130026Y-49679448D01*
X84118044Y-49659457D01*
X84108079Y-49638387D01*
X84100227Y-49616443D01*
X84094563Y-49593834D01*
X84091144Y-49570779D01*
X84090000Y-49547500D01*
X84090000Y-49072500D01*
X84091144Y-49049221D01*
X84094563Y-49026166D01*
X84100227Y-49003557D01*
X84108079Y-48981613D01*
X84118044Y-48960543D01*
X84130026Y-48940552D01*
X84143910Y-48921832D01*
X84159562Y-48904562D01*
X84176832Y-48888910D01*
X84195552Y-48875026D01*
X84215543Y-48863044D01*
X84236613Y-48853079D01*
X84258557Y-48845227D01*
X84281166Y-48839563D01*
X84304221Y-48836144D01*
X84327500Y-48835000D01*
X84902500Y-48835000D01*
X84925779Y-48836144D01*
X84925779Y-48836144D01*
G37*
D11*
X84615000Y-49310000D03*
D10*
G36*
X86675779Y-48836144D02*
X86698834Y-48839563D01*
X86721443Y-48845227D01*
X86743387Y-48853079D01*
X86764457Y-48863044D01*
X86784448Y-48875026D01*
X86803168Y-48888910D01*
X86820438Y-48904562D01*
X86836090Y-48921832D01*
X86849974Y-48940552D01*
X86861956Y-48960543D01*
X86871921Y-48981613D01*
X86879773Y-49003557D01*
X86885437Y-49026166D01*
X86888856Y-49049221D01*
X86890000Y-49072500D01*
X86890000Y-49547500D01*
X86888856Y-49570779D01*
X86885437Y-49593834D01*
X86879773Y-49616443D01*
X86871921Y-49638387D01*
X86861956Y-49659457D01*
X86849974Y-49679448D01*
X86836090Y-49698168D01*
X86820438Y-49715438D01*
X86803168Y-49731090D01*
X86784448Y-49744974D01*
X86764457Y-49756956D01*
X86743387Y-49766921D01*
X86721443Y-49774773D01*
X86698834Y-49780437D01*
X86675779Y-49783856D01*
X86652500Y-49785000D01*
X86077500Y-49785000D01*
X86054221Y-49783856D01*
X86031166Y-49780437D01*
X86008557Y-49774773D01*
X85986613Y-49766921D01*
X85965543Y-49756956D01*
X85945552Y-49744974D01*
X85926832Y-49731090D01*
X85909562Y-49715438D01*
X85893910Y-49698168D01*
X85880026Y-49679448D01*
X85868044Y-49659457D01*
X85858079Y-49638387D01*
X85850227Y-49616443D01*
X85844563Y-49593834D01*
X85841144Y-49570779D01*
X85840000Y-49547500D01*
X85840000Y-49072500D01*
X85841144Y-49049221D01*
X85844563Y-49026166D01*
X85850227Y-49003557D01*
X85858079Y-48981613D01*
X85868044Y-48960543D01*
X85880026Y-48940552D01*
X85893910Y-48921832D01*
X85909562Y-48904562D01*
X85926832Y-48888910D01*
X85945552Y-48875026D01*
X85965543Y-48863044D01*
X85986613Y-48853079D01*
X86008557Y-48845227D01*
X86031166Y-48839563D01*
X86054221Y-48836144D01*
X86077500Y-48835000D01*
X86652500Y-48835000D01*
X86675779Y-48836144D01*
X86675779Y-48836144D01*
G37*
D11*
X86365000Y-49310000D03*
G04 #@! TD*
D10*
G04 #@! TO.C,R5*
G36*
X79870779Y-50116144D02*
X79893834Y-50119563D01*
X79916443Y-50125227D01*
X79938387Y-50133079D01*
X79959457Y-50143044D01*
X79979448Y-50155026D01*
X79998168Y-50168910D01*
X80015438Y-50184562D01*
X80031090Y-50201832D01*
X80044974Y-50220552D01*
X80056956Y-50240543D01*
X80066921Y-50261613D01*
X80074773Y-50283557D01*
X80080437Y-50306166D01*
X80083856Y-50329221D01*
X80085000Y-50352500D01*
X80085000Y-50827500D01*
X80083856Y-50850779D01*
X80080437Y-50873834D01*
X80074773Y-50896443D01*
X80066921Y-50918387D01*
X80056956Y-50939457D01*
X80044974Y-50959448D01*
X80031090Y-50978168D01*
X80015438Y-50995438D01*
X79998168Y-51011090D01*
X79979448Y-51024974D01*
X79959457Y-51036956D01*
X79938387Y-51046921D01*
X79916443Y-51054773D01*
X79893834Y-51060437D01*
X79870779Y-51063856D01*
X79847500Y-51065000D01*
X79272500Y-51065000D01*
X79249221Y-51063856D01*
X79226166Y-51060437D01*
X79203557Y-51054773D01*
X79181613Y-51046921D01*
X79160543Y-51036956D01*
X79140552Y-51024974D01*
X79121832Y-51011090D01*
X79104562Y-50995438D01*
X79088910Y-50978168D01*
X79075026Y-50959448D01*
X79063044Y-50939457D01*
X79053079Y-50918387D01*
X79045227Y-50896443D01*
X79039563Y-50873834D01*
X79036144Y-50850779D01*
X79035000Y-50827500D01*
X79035000Y-50352500D01*
X79036144Y-50329221D01*
X79039563Y-50306166D01*
X79045227Y-50283557D01*
X79053079Y-50261613D01*
X79063044Y-50240543D01*
X79075026Y-50220552D01*
X79088910Y-50201832D01*
X79104562Y-50184562D01*
X79121832Y-50168910D01*
X79140552Y-50155026D01*
X79160543Y-50143044D01*
X79181613Y-50133079D01*
X79203557Y-50125227D01*
X79226166Y-50119563D01*
X79249221Y-50116144D01*
X79272500Y-50115000D01*
X79847500Y-50115000D01*
X79870779Y-50116144D01*
X79870779Y-50116144D01*
G37*
D11*
X79560000Y-50590000D03*
D10*
G36*
X78120779Y-50116144D02*
X78143834Y-50119563D01*
X78166443Y-50125227D01*
X78188387Y-50133079D01*
X78209457Y-50143044D01*
X78229448Y-50155026D01*
X78248168Y-50168910D01*
X78265438Y-50184562D01*
X78281090Y-50201832D01*
X78294974Y-50220552D01*
X78306956Y-50240543D01*
X78316921Y-50261613D01*
X78324773Y-50283557D01*
X78330437Y-50306166D01*
X78333856Y-50329221D01*
X78335000Y-50352500D01*
X78335000Y-50827500D01*
X78333856Y-50850779D01*
X78330437Y-50873834D01*
X78324773Y-50896443D01*
X78316921Y-50918387D01*
X78306956Y-50939457D01*
X78294974Y-50959448D01*
X78281090Y-50978168D01*
X78265438Y-50995438D01*
X78248168Y-51011090D01*
X78229448Y-51024974D01*
X78209457Y-51036956D01*
X78188387Y-51046921D01*
X78166443Y-51054773D01*
X78143834Y-51060437D01*
X78120779Y-51063856D01*
X78097500Y-51065000D01*
X77522500Y-51065000D01*
X77499221Y-51063856D01*
X77476166Y-51060437D01*
X77453557Y-51054773D01*
X77431613Y-51046921D01*
X77410543Y-51036956D01*
X77390552Y-51024974D01*
X77371832Y-51011090D01*
X77354562Y-50995438D01*
X77338910Y-50978168D01*
X77325026Y-50959448D01*
X77313044Y-50939457D01*
X77303079Y-50918387D01*
X77295227Y-50896443D01*
X77289563Y-50873834D01*
X77286144Y-50850779D01*
X77285000Y-50827500D01*
X77285000Y-50352500D01*
X77286144Y-50329221D01*
X77289563Y-50306166D01*
X77295227Y-50283557D01*
X77303079Y-50261613D01*
X77313044Y-50240543D01*
X77325026Y-50220552D01*
X77338910Y-50201832D01*
X77354562Y-50184562D01*
X77371832Y-50168910D01*
X77390552Y-50155026D01*
X77410543Y-50143044D01*
X77431613Y-50133079D01*
X77453557Y-50125227D01*
X77476166Y-50119563D01*
X77499221Y-50116144D01*
X77522500Y-50115000D01*
X78097500Y-50115000D01*
X78120779Y-50116144D01*
X78120779Y-50116144D01*
G37*
D11*
X77810000Y-50590000D03*
G04 #@! TD*
D10*
G04 #@! TO.C,R8*
G36*
X56530779Y-30116144D02*
X56553834Y-30119563D01*
X56576443Y-30125227D01*
X56598387Y-30133079D01*
X56619457Y-30143044D01*
X56639448Y-30155026D01*
X56658168Y-30168910D01*
X56675438Y-30184562D01*
X56691090Y-30201832D01*
X56704974Y-30220552D01*
X56716956Y-30240543D01*
X56726921Y-30261613D01*
X56734773Y-30283557D01*
X56740437Y-30306166D01*
X56743856Y-30329221D01*
X56745000Y-30352500D01*
X56745000Y-30927500D01*
X56743856Y-30950779D01*
X56740437Y-30973834D01*
X56734773Y-30996443D01*
X56726921Y-31018387D01*
X56716956Y-31039457D01*
X56704974Y-31059448D01*
X56691090Y-31078168D01*
X56675438Y-31095438D01*
X56658168Y-31111090D01*
X56639448Y-31124974D01*
X56619457Y-31136956D01*
X56598387Y-31146921D01*
X56576443Y-31154773D01*
X56553834Y-31160437D01*
X56530779Y-31163856D01*
X56507500Y-31165000D01*
X56032500Y-31165000D01*
X56009221Y-31163856D01*
X55986166Y-31160437D01*
X55963557Y-31154773D01*
X55941613Y-31146921D01*
X55920543Y-31136956D01*
X55900552Y-31124974D01*
X55881832Y-31111090D01*
X55864562Y-31095438D01*
X55848910Y-31078168D01*
X55835026Y-31059448D01*
X55823044Y-31039457D01*
X55813079Y-31018387D01*
X55805227Y-30996443D01*
X55799563Y-30973834D01*
X55796144Y-30950779D01*
X55795000Y-30927500D01*
X55795000Y-30352500D01*
X55796144Y-30329221D01*
X55799563Y-30306166D01*
X55805227Y-30283557D01*
X55813079Y-30261613D01*
X55823044Y-30240543D01*
X55835026Y-30220552D01*
X55848910Y-30201832D01*
X55864562Y-30184562D01*
X55881832Y-30168910D01*
X55900552Y-30155026D01*
X55920543Y-30143044D01*
X55941613Y-30133079D01*
X55963557Y-30125227D01*
X55986166Y-30119563D01*
X56009221Y-30116144D01*
X56032500Y-30115000D01*
X56507500Y-30115000D01*
X56530779Y-30116144D01*
X56530779Y-30116144D01*
G37*
D11*
X56270000Y-30640000D03*
D10*
G36*
X56530779Y-31866144D02*
X56553834Y-31869563D01*
X56576443Y-31875227D01*
X56598387Y-31883079D01*
X56619457Y-31893044D01*
X56639448Y-31905026D01*
X56658168Y-31918910D01*
X56675438Y-31934562D01*
X56691090Y-31951832D01*
X56704974Y-31970552D01*
X56716956Y-31990543D01*
X56726921Y-32011613D01*
X56734773Y-32033557D01*
X56740437Y-32056166D01*
X56743856Y-32079221D01*
X56745000Y-32102500D01*
X56745000Y-32677500D01*
X56743856Y-32700779D01*
X56740437Y-32723834D01*
X56734773Y-32746443D01*
X56726921Y-32768387D01*
X56716956Y-32789457D01*
X56704974Y-32809448D01*
X56691090Y-32828168D01*
X56675438Y-32845438D01*
X56658168Y-32861090D01*
X56639448Y-32874974D01*
X56619457Y-32886956D01*
X56598387Y-32896921D01*
X56576443Y-32904773D01*
X56553834Y-32910437D01*
X56530779Y-32913856D01*
X56507500Y-32915000D01*
X56032500Y-32915000D01*
X56009221Y-32913856D01*
X55986166Y-32910437D01*
X55963557Y-32904773D01*
X55941613Y-32896921D01*
X55920543Y-32886956D01*
X55900552Y-32874974D01*
X55881832Y-32861090D01*
X55864562Y-32845438D01*
X55848910Y-32828168D01*
X55835026Y-32809448D01*
X55823044Y-32789457D01*
X55813079Y-32768387D01*
X55805227Y-32746443D01*
X55799563Y-32723834D01*
X55796144Y-32700779D01*
X55795000Y-32677500D01*
X55795000Y-32102500D01*
X55796144Y-32079221D01*
X55799563Y-32056166D01*
X55805227Y-32033557D01*
X55813079Y-32011613D01*
X55823044Y-31990543D01*
X55835026Y-31970552D01*
X55848910Y-31951832D01*
X55864562Y-31934562D01*
X55881832Y-31918910D01*
X55900552Y-31905026D01*
X55920543Y-31893044D01*
X55941613Y-31883079D01*
X55963557Y-31875227D01*
X55986166Y-31869563D01*
X56009221Y-31866144D01*
X56032500Y-31865000D01*
X56507500Y-31865000D01*
X56530779Y-31866144D01*
X56530779Y-31866144D01*
G37*
D11*
X56270000Y-32390000D03*
G04 #@! TD*
D10*
G04 #@! TO.C,R9*
G36*
X56450779Y-33936144D02*
X56473834Y-33939563D01*
X56496443Y-33945227D01*
X56518387Y-33953079D01*
X56539457Y-33963044D01*
X56559448Y-33975026D01*
X56578168Y-33988910D01*
X56595438Y-34004562D01*
X56611090Y-34021832D01*
X56624974Y-34040552D01*
X56636956Y-34060543D01*
X56646921Y-34081613D01*
X56654773Y-34103557D01*
X56660437Y-34126166D01*
X56663856Y-34149221D01*
X56665000Y-34172500D01*
X56665000Y-34747500D01*
X56663856Y-34770779D01*
X56660437Y-34793834D01*
X56654773Y-34816443D01*
X56646921Y-34838387D01*
X56636956Y-34859457D01*
X56624974Y-34879448D01*
X56611090Y-34898168D01*
X56595438Y-34915438D01*
X56578168Y-34931090D01*
X56559448Y-34944974D01*
X56539457Y-34956956D01*
X56518387Y-34966921D01*
X56496443Y-34974773D01*
X56473834Y-34980437D01*
X56450779Y-34983856D01*
X56427500Y-34985000D01*
X55952500Y-34985000D01*
X55929221Y-34983856D01*
X55906166Y-34980437D01*
X55883557Y-34974773D01*
X55861613Y-34966921D01*
X55840543Y-34956956D01*
X55820552Y-34944974D01*
X55801832Y-34931090D01*
X55784562Y-34915438D01*
X55768910Y-34898168D01*
X55755026Y-34879448D01*
X55743044Y-34859457D01*
X55733079Y-34838387D01*
X55725227Y-34816443D01*
X55719563Y-34793834D01*
X55716144Y-34770779D01*
X55715000Y-34747500D01*
X55715000Y-34172500D01*
X55716144Y-34149221D01*
X55719563Y-34126166D01*
X55725227Y-34103557D01*
X55733079Y-34081613D01*
X55743044Y-34060543D01*
X55755026Y-34040552D01*
X55768910Y-34021832D01*
X55784562Y-34004562D01*
X55801832Y-33988910D01*
X55820552Y-33975026D01*
X55840543Y-33963044D01*
X55861613Y-33953079D01*
X55883557Y-33945227D01*
X55906166Y-33939563D01*
X55929221Y-33936144D01*
X55952500Y-33935000D01*
X56427500Y-33935000D01*
X56450779Y-33936144D01*
X56450779Y-33936144D01*
G37*
D11*
X56190000Y-34460000D03*
D10*
G36*
X56450779Y-35686144D02*
X56473834Y-35689563D01*
X56496443Y-35695227D01*
X56518387Y-35703079D01*
X56539457Y-35713044D01*
X56559448Y-35725026D01*
X56578168Y-35738910D01*
X56595438Y-35754562D01*
X56611090Y-35771832D01*
X56624974Y-35790552D01*
X56636956Y-35810543D01*
X56646921Y-35831613D01*
X56654773Y-35853557D01*
X56660437Y-35876166D01*
X56663856Y-35899221D01*
X56665000Y-35922500D01*
X56665000Y-36497500D01*
X56663856Y-36520779D01*
X56660437Y-36543834D01*
X56654773Y-36566443D01*
X56646921Y-36588387D01*
X56636956Y-36609457D01*
X56624974Y-36629448D01*
X56611090Y-36648168D01*
X56595438Y-36665438D01*
X56578168Y-36681090D01*
X56559448Y-36694974D01*
X56539457Y-36706956D01*
X56518387Y-36716921D01*
X56496443Y-36724773D01*
X56473834Y-36730437D01*
X56450779Y-36733856D01*
X56427500Y-36735000D01*
X55952500Y-36735000D01*
X55929221Y-36733856D01*
X55906166Y-36730437D01*
X55883557Y-36724773D01*
X55861613Y-36716921D01*
X55840543Y-36706956D01*
X55820552Y-36694974D01*
X55801832Y-36681090D01*
X55784562Y-36665438D01*
X55768910Y-36648168D01*
X55755026Y-36629448D01*
X55743044Y-36609457D01*
X55733079Y-36588387D01*
X55725227Y-36566443D01*
X55719563Y-36543834D01*
X55716144Y-36520779D01*
X55715000Y-36497500D01*
X55715000Y-35922500D01*
X55716144Y-35899221D01*
X55719563Y-35876166D01*
X55725227Y-35853557D01*
X55733079Y-35831613D01*
X55743044Y-35810543D01*
X55755026Y-35790552D01*
X55768910Y-35771832D01*
X55784562Y-35754562D01*
X55801832Y-35738910D01*
X55820552Y-35725026D01*
X55840543Y-35713044D01*
X55861613Y-35703079D01*
X55883557Y-35695227D01*
X55906166Y-35689563D01*
X55929221Y-35686144D01*
X55952500Y-35685000D01*
X56427500Y-35685000D01*
X56450779Y-35686144D01*
X56450779Y-35686144D01*
G37*
D11*
X56190000Y-36210000D03*
G04 #@! TD*
M02*
