M48
;DRILL file {KiCad 5.0.1} date dilluns, 10 de desembre de 2018, 22:32:37 CET
;FORMAT={-:-/ absolute / inch / decimal}
FMAT,2
INCH,TZ
T1C0.0157
T2C0.0315
T3C0.0394
T4C0.0433
%
G90
G05
M72
T1
X2.2122Y-1.3567
X2.2154Y-1.2752
X2.7276Y-1.4851
X2.7699Y-1.5262
X3.1736Y-1.4713
X3.2917Y-2.1102
X3.2984Y-2.0512
X3.4185Y-1.5102
X3.4976Y-1.9102
X3.524Y-1.7693
X3.5356Y-1.3531
X3.567Y-1.4083
X3.6252Y-1.4083
X3.6429Y-1.5681
X3.6651Y-1.3998
X3.6823Y-1.5689
X3.7217Y-1.5689
X3.761Y-1.5689
X3.9217Y-1.2927
X3.9333Y-1.3303
X3.9385Y-1.3694
X3.9445Y-1.4083
X4.0703Y-1.6774
X4.1297Y-1.6533
T2
X3.1598Y-1.5512
X3.352Y-1.5512
X2.5445Y-1.8417
X2.5445Y-2.1417
X2.6445Y-1.8417
X2.6445Y-2.1417
X2.7445Y-1.8417
X2.7445Y-2.1417
X2.8445Y-1.8417
X2.8445Y-2.1417
X2.9445Y-1.8417
X2.9445Y-2.1417
X3.0445Y-1.8417
X3.0445Y-2.1417
X3.1445Y-1.8417
X3.1445Y-2.1417
X3.2445Y-1.8417
X3.2445Y-2.1417
X3.3445Y-1.8417
X3.3445Y-2.1417
X3.4445Y-1.8417
X3.4445Y-2.1417
X3.5445Y-1.8417
X3.5445Y-2.1417
X3.6445Y-1.8417
X3.6445Y-2.1417
X3.7445Y-1.8417
X3.7445Y-2.1417
X3.8445Y-1.8417
X3.8445Y-2.1417
T3
X3.9933Y-1.1764
X4.0933Y-1.1764
X4.1933Y-1.1764
X4.2933Y-1.1764
X3.9945Y-1.3583
X4.0945Y-1.3583
X4.1945Y-1.3583
X4.2945Y-1.3583
X4.09Y-2.32
X4.19Y-2.32
X4.29Y-2.32
X2.7634Y-2.4878
X2.7634Y-2.5878
X2.7634Y-2.6878
X2.087Y-1.2142
X2.087Y-1.3142
X2.087Y-1.4142
X2.0964Y-1.893
X2.1964Y-1.893
X2.2964Y-1.893
X3.4764Y-2.4854
X3.4764Y-2.5854
X3.4764Y-2.6854
X2.9043Y-2.4878
X2.9043Y-2.5878
X2.9043Y-2.6878
X3.3339Y-2.4854
X3.3339Y-2.5854
X3.3339Y-2.6854
X3.4713Y-1.1756
X3.5713Y-1.1756
X3.6713Y-1.1756
X3.7713Y-1.1756
X3.0469Y-2.4862
X3.0469Y-2.5862
X3.0469Y-2.6862
X2.6217Y-2.4878
X2.6217Y-2.5878
X2.6217Y-2.6878
X2.0964Y-2.3182
X2.1964Y-2.3182
X2.2964Y-2.3182
X3.6193Y-2.4854
X3.6193Y-2.5854
X3.6193Y-2.6854
X4.0902Y-2.0335
X4.1902Y-2.0335
X4.2902Y-2.0335
X2.0964Y-2.0347
X2.1964Y-2.0347
X2.2964Y-2.0347
X2.4799Y-2.4878
X2.4799Y-2.5878
X2.4799Y-2.6878
X2.5193Y-1.2
X2.5193Y-1.3
X2.5193Y-1.4
X2.7071Y-1.2016
X2.7071Y-1.3016
X2.7071Y-1.4016
X3.7622Y-2.4854
X3.7622Y-2.5854
X3.7622Y-2.6854
X2.0964Y-1.7513
X2.1964Y-1.7513
X2.2964Y-1.7513
X2.0964Y-2.1765
X2.1964Y-2.1765
X2.2964Y-2.1765
X3.9945Y-1.5402
X4.0945Y-1.5402
X4.1945Y-1.5402
X4.2945Y-1.5402
X4.09Y-2.1764
X4.19Y-2.1764
X4.29Y-2.1764
X4.0902Y-1.8902
X4.1902Y-1.8902
X4.2902Y-1.8902
X3.0705Y-1.2602
X3.0705Y-1.3602
X3.1705Y-1.2602
X3.1705Y-1.3602
X3.2705Y-1.2602
X3.2705Y-1.3602
X2.3276Y-1.2
X2.3276Y-1.3
X2.3276Y-1.4
X3.0933Y-2.3224
X3.1917Y-2.3224
X3.2902Y-2.3224
X2.8768Y-1.2445
X2.8768Y-1.3445
X2.8768Y-1.4445
X2.8768Y-1.5445
X3.9063Y-2.4862
X3.9063Y-2.5862
X3.9063Y-2.6862
X4.0906Y-1.7476
X4.1906Y-1.7476
X4.2906Y-1.7476
X2.1992Y-1.5858
X2.2992Y-1.5858
T4
X2.4898Y-1.5665
X2.5898Y-1.5665
X2.6898Y-1.5665
T0
M30
